M48
;Layer_Color=9474304
;FILE_FORMAT=4:4
METRIC,LZ
;TYPE=PLATED
T01F00S00C0.2000
T02F00S00C0.3000
T03F00S00C0.5000
T04F00S00C0.8000
T06F00S00C1.0200
T07F00S00C1.0800
T08F00S00C1.1000
T09F00S00C1.2700
;TYPE=NON_PLATED
T10F00S00C3.2000
%
T01
X0050538Y0041972
X0051423Y0042226
X005155Y0043623
X00499625Y00438135
T02
X0048248Y0037273
X0054598Y0038797
X0056884Y0036384
X0077077Y0039432
X0085586Y0039559
X00864245Y00378315
X0085332Y0040829
Y0041718
Y0043115
Y0044131
X0084824Y0044893
X0084062Y0045147
X0079744Y0050227
X0086348Y0057466
X009473Y0062546
X0079109Y0053275
X0072505Y005264
X0074791Y0046163
X0073267Y0042988
X0074029Y0040448
X007822Y0040829
X0079236Y004502
X0068187Y0044004
X00663375Y00441267
X00657343Y00431035
X0067044Y0042607
X0066409Y0041972
X0053074Y0048957
X005155Y0049846
X0048248Y0048957
X005155Y0055053
X0053582Y0068007
X0046216
X0020435Y0039813
X0017895
T03
X0072251Y0033209
X0080506
X0089142Y0047814
X0063742Y0052894
Y0058355
T04
X003504Y0006285
X0037707Y0006158
X003504Y0011746
X00376277Y00170007
X0027166Y0017207
X002996Y0025843
X0045581Y0026859
X006171Y002724
X0063435Y0033717
X0058535
X0063615Y001708
Y0011619
X0063742Y0006158
X0082538Y0068007
X0063615Y0069531
X0060567
X0063615Y00749462
X0034405Y0074992
X0034532Y0069531
X002996Y0063181
X0022594Y0065848
X001091Y0055688
X0007608Y0050354
X0037961Y0057212
X00343998Y00803514
X0060567Y0080453
X0069965Y0080326
T06
X009927Y00114265
Y00139665
Y00165065
Y00190466
Y00215865
Y00241266
Y00266665
Y00292066
T07
X004139Y0006158
X004393
X004647
X004901
X005155
X005409
X005663
X005536Y0011238
X005282
X005028
X004774
X00452
X004266
X004012
X00579
X0058027Y0075373
X0055487
X0052947
X0050407
X0047867
X0045327
X0042787
X0040247
X0041517Y0080453
X0044057
X0046597
X0049137
X0051677
X0054217
X0056757
T08
X0087491Y0001813
X0090031
X0094857Y0038289
Y0040829
Y0043369
Y0045909
X0094984Y0072579
Y0075119
X0079617Y0063181
Y0060641
Y0058101
X0077077
Y0060641
Y0063181
X0087364Y008439
X0089904
T09
X001726Y00030719
X002234
X0075934
X0081014
X0002875Y007035
Y007543
X0016752Y008312
X0021832
X0075934
X0081014
T10
X0003417Y0003364
X0097905
X0003417Y0083247
X0097905
M30
