G04*
G04 #@! TF.GenerationSoftware,Altium Limited,Altium Designer,24.1.2 (44)*
G04*
G04 Layer_Physical_Order=1*
G04 Layer_Color=255*
%FSLAX44Y44*%
%MOMM*%
G71*
G04*
G04 #@! TF.SameCoordinates,62CA38D4-F58F-499B-8EE2-8B19808DB9CE*
G04*
G04*
G04 #@! TF.FilePolarity,Positive*
G04*
G01*
G75*
%ADD11C,0.2000*%
%ADD13C,0.2500*%
%ADD17R,2.0000X4.0000*%
%ADD18R,4.0000X2.0000*%
%ADD19R,2.5000X1.7000*%
%ADD20R,1.6510X1.5240*%
%ADD21R,1.0000X0.9500*%
%ADD22R,1.4000X1.2000*%
%ADD23R,0.9500X1.0000*%
%ADD24R,0.8000X1.2000*%
%ADD25R,0.8500X0.8000*%
%ADD26R,3.3000X2.4000*%
%ADD27R,1.0000X2.4000*%
G04:AMPARAMS|DCode=28|XSize=1.49mm|YSize=0.28mm|CornerRadius=0.07mm|HoleSize=0mm|Usage=FLASHONLY|Rotation=90.000|XOffset=0mm|YOffset=0mm|HoleType=Round|Shape=RoundedRectangle|*
%AMROUNDEDRECTD28*
21,1,1.4900,0.1400,0,0,90.0*
21,1,1.3500,0.2800,0,0,90.0*
1,1,0.1400,0.0700,0.6750*
1,1,0.1400,0.0700,-0.6750*
1,1,0.1400,-0.0700,-0.6750*
1,1,0.1400,-0.0700,0.6750*
%
%ADD28ROUNDEDRECTD28*%
G04:AMPARAMS|DCode=29|XSize=1.49mm|YSize=0.28mm|CornerRadius=0.07mm|HoleSize=0mm|Usage=FLASHONLY|Rotation=0.000|XOffset=0mm|YOffset=0mm|HoleType=Round|Shape=RoundedRectangle|*
%AMROUNDEDRECTD29*
21,1,1.4900,0.1400,0,0,0.0*
21,1,1.3500,0.2800,0,0,0.0*
1,1,0.1400,0.6750,-0.0700*
1,1,0.1400,-0.6750,-0.0700*
1,1,0.1400,-0.6750,0.0700*
1,1,0.1400,0.6750,0.0700*
%
%ADD29ROUNDEDRECTD29*%
%ADD30R,0.2600X0.7900*%
%ADD31R,0.7900X0.2600*%
%ADD32R,4.2000X5.6000*%
%ADD33R,1.7000X2.5000*%
%ADD34R,9.1000X10.1000*%
%ADD35R,3.2500X1.1000*%
%ADD72C,0.3000*%
%ADD73C,1.0000*%
%ADD74C,0.5000*%
%ADD75C,1.2000*%
%ADD76C,1.4000*%
%ADD77C,0.4000*%
%ADD78R,2.9210X19.5580*%
%ADD79R,3.3020X19.6850*%
%ADD80R,2.9210X19.6850*%
%ADD81C,1.6000*%
%ADD82R,1.6000X1.6000*%
%ADD83C,2.7940*%
%ADD84C,1.5240*%
%ADD85C,1.5200*%
%ADD86R,1.5200X1.5200*%
%ADD87R,1.6200X1.6200*%
%ADD88C,1.6200*%
%ADD89O,2.2000X4.5000*%
%ADD90O,4.5000X2.2000*%
G04:AMPARAMS|DCode=91|XSize=2.2mm|YSize=4.5mm|CornerRadius=0.55mm|HoleSize=0mm|Usage=FLASHONLY|Rotation=0.000|XOffset=0mm|YOffset=0mm|HoleType=Round|Shape=RoundedRectangle|*
%AMROUNDEDRECTD91*
21,1,2.2000,3.4000,0,0,0.0*
21,1,1.1000,4.5000,0,0,0.0*
1,1,1.1000,0.5500,-1.7000*
1,1,1.1000,-0.5500,-1.7000*
1,1,1.1000,-0.5500,1.7000*
1,1,1.1000,0.5500,1.7000*
%
%ADD91ROUNDEDRECTD91*%
%ADD92C,1.9050*%
%ADD93R,1.6000X1.6000*%
%ADD94C,1.5000*%
%ADD95C,0.5000*%
%ADD96C,0.3000*%
%ADD97C,0.8000*%
G36*
X1012000Y2134D02*
X1011866Y2000D01*
X2498D01*
X2245Y430327D01*
X3515Y430759D01*
X4368Y429647D01*
X11397Y422618D01*
X13486Y421015D01*
X15919Y420007D01*
X18529Y419664D01*
X117800D01*
X120411Y420007D01*
X122843Y421015D01*
X124932Y422618D01*
X127218Y424904D01*
X133040D01*
X133695Y424990D01*
X151040D01*
Y438904D01*
X187312D01*
Y390293D01*
X183467Y386448D01*
X170760D01*
Y390340D01*
X168998D01*
X168030Y391070D01*
Y392522D01*
X178950D01*
X181096Y392949D01*
X182915Y394165D01*
X184131Y395984D01*
X184558Y398130D01*
X184131Y400276D01*
X182915Y402095D01*
X181096Y403311D01*
X178950Y403738D01*
X168030D01*
Y404610D01*
X151145D01*
Y397840D01*
X149875D01*
Y404610D01*
X132990D01*
Y403193D01*
X100280D01*
Y415610D01*
X54145D01*
Y363840D01*
Y312070D01*
X100280D01*
Y353754D01*
X130260D01*
Y337340D01*
Y320340D01*
X147314D01*
X147900Y320097D01*
X150510Y319754D01*
X163052D01*
X180051Y302755D01*
Y269786D01*
X178700D01*
Y273700D01*
X130700D01*
Y245700D01*
X178700D01*
Y249614D01*
X210900D01*
Y242880D01*
X235900D01*
Y248819D01*
X293247D01*
X295161Y247714D01*
X296378Y247388D01*
X307708Y236058D01*
X309797Y234455D01*
X312229Y233447D01*
X314840Y233104D01*
X628162D01*
X650123Y211143D01*
X649637Y209970D01*
X618700D01*
Y208191D01*
X366580D01*
Y211240D01*
X333580D01*
Y186240D01*
X366580D01*
X366984Y185137D01*
Y182580D01*
X366765Y180915D01*
Y176531D01*
X365561Y174446D01*
X364777Y171521D01*
Y168493D01*
X365561Y165568D01*
X367075Y162946D01*
X369216Y160805D01*
X371838Y159291D01*
X374763Y158507D01*
X377791D01*
X380716Y159291D01*
X383338Y160805D01*
X385479Y162946D01*
X386993Y165568D01*
X387777Y168493D01*
Y171521D01*
X386993Y174446D01*
X386937Y174543D01*
Y179470D01*
X387156Y181134D01*
Y188019D01*
X618700D01*
Y184970D01*
X625589D01*
Y175507D01*
X625434Y175239D01*
X624650Y172314D01*
Y169286D01*
X625434Y166361D01*
X626948Y163739D01*
X629089Y161598D01*
X631711Y160084D01*
X634636Y159300D01*
X637664D01*
X640589Y160084D01*
X643211Y161598D01*
X645352Y163739D01*
X646866Y166361D01*
X647650Y169286D01*
Y172314D01*
X646866Y175239D01*
X645761Y177153D01*
Y184970D01*
X651700D01*
Y207906D01*
X652873Y208393D01*
X657472Y203794D01*
Y71666D01*
X642950D01*
X641859Y72296D01*
X638934Y73080D01*
X635906D01*
X632981Y72296D01*
X630359Y70782D01*
X628218Y68641D01*
X626704Y66019D01*
X625920Y63094D01*
Y60066D01*
X626704Y57141D01*
X628218Y54519D01*
X630359Y52378D01*
X632981Y50864D01*
X635906Y50080D01*
X638934D01*
X641859Y50864D01*
X642950Y51494D01*
X657472D01*
Y18400D01*
X657782Y16839D01*
X658666Y15516D01*
X659989Y14632D01*
X661550Y14322D01*
X690760D01*
X692321Y14632D01*
X693644Y15516D01*
X694528Y16839D01*
X694838Y18400D01*
Y213980D01*
X694528Y215541D01*
X693644Y216864D01*
X692321Y217748D01*
X690760Y218058D01*
X671736D01*
X639472Y250322D01*
X637383Y251925D01*
X634950Y252933D01*
X632340Y253276D01*
X319018D01*
X310642Y261652D01*
X310316Y262869D01*
X308802Y265491D01*
X306661Y267632D01*
X304039Y269146D01*
X301114Y269930D01*
X298086D01*
X295161Y269146D01*
X294893Y268991D01*
X235900D01*
Y275880D01*
X210900D01*
Y269786D01*
X200224D01*
Y306932D01*
X199880Y309543D01*
X198873Y311976D01*
X197270Y314065D01*
X175754Y335580D01*
X176240Y336754D01*
X177802D01*
X196797Y317759D01*
X198886Y316156D01*
X201319Y315148D01*
X203930Y314804D01*
X212170D01*
Y305750D01*
X237170D01*
Y314384D01*
X342101D01*
X344711Y314727D01*
X347144Y315735D01*
X349233Y317338D01*
X356262Y324367D01*
X357865Y326456D01*
X358873Y328889D01*
X359216Y331499D01*
Y434710D01*
X379680D01*
Y498710D01*
X329680D01*
Y434710D01*
X339044D01*
Y335677D01*
X337923Y334556D01*
X237170D01*
Y338750D01*
X212170D01*
Y334977D01*
X208107D01*
X190504Y352580D01*
X190990Y353754D01*
X214900D01*
Y348480D01*
X224035D01*
Y362250D01*
X225305D01*
Y348480D01*
X234440D01*
Y358158D01*
X235905Y360067D01*
X236913Y362500D01*
X237256Y365110D01*
X236913Y367720D01*
X235905Y370153D01*
X234756Y371650D01*
Y398130D01*
Y422260D01*
X234413Y424870D01*
X233405Y427303D01*
X231802Y429392D01*
X224182Y437012D01*
X223403Y437610D01*
X223834Y438880D01*
X225300D01*
Y438904D01*
X229680D01*
Y434710D01*
X279680D01*
Y498710D01*
X264766D01*
Y511592D01*
X293618Y540444D01*
X375432D01*
X389844Y526032D01*
Y285148D01*
X390187Y282537D01*
X391195Y280105D01*
X392798Y278016D01*
X409356Y261458D01*
X411445Y259855D01*
X413877Y258847D01*
X416488Y258504D01*
X450280D01*
X451371Y257874D01*
X454296Y257090D01*
X457324D01*
X460249Y257874D01*
X462871Y259388D01*
X465012Y261529D01*
X466526Y264151D01*
X467310Y267076D01*
Y270104D01*
X466526Y273029D01*
X465012Y275651D01*
X462871Y277792D01*
X460249Y279306D01*
X457324Y280090D01*
X454296D01*
X451371Y279306D01*
X450280Y278676D01*
X420666D01*
X410016Y289326D01*
Y530210D01*
X409673Y532821D01*
X408665Y535253D01*
X407062Y537342D01*
X389696Y554708D01*
Y566590D01*
X390326Y567681D01*
X391110Y570606D01*
Y573634D01*
X390326Y576559D01*
X388812Y579181D01*
X386671Y581322D01*
X384049Y582836D01*
X381124Y583620D01*
X378096D01*
X375171Y582836D01*
X372549Y581322D01*
X370408Y579181D01*
X368894Y576559D01*
X368110Y573634D01*
Y570606D01*
X368894Y567681D01*
X369524Y566590D01*
Y560616D01*
X289440D01*
X286829Y560273D01*
X284397Y559265D01*
X282308Y557662D01*
X247548Y522902D01*
X245945Y520813D01*
X244937Y518381D01*
X244594Y515770D01*
Y498710D01*
X238952D01*
X186306Y551356D01*
X184948Y552398D01*
X184653Y552520D01*
X184905Y553790D01*
X223580D01*
Y563234D01*
X238210D01*
X239907Y563457D01*
X241488Y564112D01*
X242846Y565154D01*
X259982Y582290D01*
X267210D01*
Y583734D01*
X276110D01*
Y582290D01*
X280156D01*
X282010Y581522D01*
X284360Y581212D01*
X344540D01*
X346889Y581522D01*
X349079Y582429D01*
X350959Y583871D01*
X375260Y608172D01*
X427672D01*
Y468750D01*
Y391250D01*
Y344250D01*
X427982Y341900D01*
X428889Y339711D01*
X430331Y337831D01*
X502181Y265981D01*
X502181Y265981D01*
X504061Y264538D01*
X506250Y263632D01*
X508600Y263322D01*
X609914D01*
X610039Y263198D01*
X612661Y261684D01*
X615586Y260900D01*
X618614D01*
X621539Y261684D01*
X624161Y263198D01*
X626302Y265339D01*
X627816Y267961D01*
X628600Y270886D01*
Y273914D01*
X628013Y276104D01*
X680582Y328672D01*
X681852Y328146D01*
Y238110D01*
X682240Y236159D01*
X683345Y234505D01*
X806535Y111315D01*
X808189Y110210D01*
X810140Y109822D01*
X981100D01*
Y102666D01*
X1004300D01*
Y125865D01*
X981100D01*
Y120018D01*
X812252D01*
X692048Y240222D01*
Y252083D01*
X693221Y252569D01*
X809075Y136715D01*
X810729Y135610D01*
X812680Y135222D01*
X981881D01*
X981890Y135188D01*
X983418Y132543D01*
X985577Y130383D01*
X988223Y128856D01*
X991173Y128066D01*
X994227D01*
X997177Y128856D01*
X999822Y130383D01*
X1001982Y132543D01*
X1003509Y135188D01*
X1004300Y138138D01*
Y141193D01*
X1003509Y144143D01*
X1001982Y146788D01*
X999822Y148948D01*
X997177Y150475D01*
X994227Y151265D01*
X991173D01*
X988223Y150475D01*
X985577Y148948D01*
X983418Y146788D01*
X982627Y145418D01*
X814792D01*
X696048Y264162D01*
Y276023D01*
X697221Y276509D01*
X811615Y162115D01*
X813269Y161010D01*
X815220Y160622D01*
X981881D01*
X981890Y160588D01*
X983418Y157943D01*
X985577Y155783D01*
X988223Y154256D01*
X991173Y153465D01*
X994227D01*
X997177Y154256D01*
X999822Y155783D01*
X1001982Y157943D01*
X1003509Y160588D01*
X1004300Y163538D01*
Y166593D01*
X1003509Y169543D01*
X1001982Y172188D01*
X999822Y174348D01*
X997177Y175875D01*
X994227Y176665D01*
X991173D01*
X988223Y175875D01*
X985577Y174348D01*
X983418Y172188D01*
X982627Y170818D01*
X817332D01*
X700048Y288102D01*
Y298693D01*
X701221Y299179D01*
X812885Y187515D01*
X814539Y186410D01*
X816490Y186022D01*
X981881D01*
X981890Y185988D01*
X983418Y183343D01*
X985577Y181183D01*
X988223Y179656D01*
X991173Y178866D01*
X994227D01*
X997177Y179656D01*
X999822Y181183D01*
X1001982Y183343D01*
X1003509Y185988D01*
X1004300Y188938D01*
Y191993D01*
X1003509Y194943D01*
X1001982Y197588D01*
X999822Y199748D01*
X997177Y201275D01*
X994227Y202065D01*
X991173D01*
X988223Y201275D01*
X985577Y199748D01*
X983418Y197588D01*
X982627Y196218D01*
X818602D01*
X708558Y306262D01*
Y354108D01*
X710833Y356384D01*
X712395Y356149D01*
X712550Y355890D01*
Y350505D01*
X718820D01*
Y349235D01*
X712550D01*
Y343850D01*
X718330D01*
X718820Y343752D01*
X719310Y343850D01*
X723202D01*
X723728Y342580D01*
X721158Y340010D01*
X719422Y339545D01*
X717598Y338492D01*
X716108Y337002D01*
X715055Y335178D01*
X714510Y333143D01*
Y331037D01*
X715055Y329002D01*
X716108Y327178D01*
X717598Y325688D01*
X719422Y324635D01*
X719963Y324490D01*
X720513Y323028D01*
X720022Y322293D01*
X719634Y320342D01*
Y310818D01*
X720022Y308867D01*
X721127Y307213D01*
X815425Y212915D01*
X817079Y211810D01*
X819030Y211422D01*
X981881D01*
X981890Y211388D01*
X983418Y208743D01*
X985577Y206583D01*
X988223Y205056D01*
X991173Y204265D01*
X994227D01*
X997177Y205056D01*
X999822Y206583D01*
X1001982Y208743D01*
X1003509Y211388D01*
X1004300Y214338D01*
Y217393D01*
X1003509Y220343D01*
X1001982Y222988D01*
X999822Y225148D01*
X997177Y226675D01*
X994227Y227465D01*
X991173D01*
X988223Y226675D01*
X985577Y225148D01*
X983418Y222988D01*
X982627Y221618D01*
X821142D01*
X729830Y312930D01*
Y318230D01*
X742909Y331309D01*
X744082Y330823D01*
Y313040D01*
X744470Y311089D01*
X745575Y309435D01*
X816695Y238315D01*
X818349Y237210D01*
X820300Y236822D01*
X981881D01*
X981890Y236788D01*
X983418Y234143D01*
X985577Y231983D01*
X988223Y230456D01*
X991173Y229666D01*
X994227D01*
X997177Y230456D01*
X999822Y231983D01*
X1001982Y234143D01*
X1003509Y236788D01*
X1004300Y239738D01*
Y242793D01*
X1003509Y245743D01*
X1001982Y248388D01*
X999822Y250548D01*
X997177Y252075D01*
X994227Y252865D01*
X991173D01*
X988223Y252075D01*
X985577Y250548D01*
X983418Y248388D01*
X982627Y247018D01*
X822412D01*
X754278Y315152D01*
Y323203D01*
X755451Y323689D01*
X817965Y261175D01*
X819619Y260070D01*
X821570Y259682D01*
X983337D01*
X983418Y259543D01*
X985577Y257383D01*
X988223Y255856D01*
X991173Y255065D01*
X994227D01*
X997177Y255856D01*
X999822Y257383D01*
X1001982Y259543D01*
X1003509Y262188D01*
X1004300Y265138D01*
Y268193D01*
X1003509Y271143D01*
X1001982Y273788D01*
X999822Y275948D01*
X997177Y277475D01*
X994227Y278265D01*
X991173D01*
X988223Y277475D01*
X985577Y275948D01*
X983418Y273788D01*
X981890Y271143D01*
X981552Y269878D01*
X823682D01*
X760628Y332932D01*
Y340983D01*
X761801Y341469D01*
X814155Y289115D01*
X815809Y288010D01*
X817760Y287622D01*
X981881D01*
X981890Y287588D01*
X983418Y284943D01*
X985577Y282783D01*
X988223Y281256D01*
X991173Y280466D01*
X994227D01*
X997177Y281256D01*
X999822Y282783D01*
X1001982Y284943D01*
X1003509Y287588D01*
X1004300Y290538D01*
Y293593D01*
X1003509Y296543D01*
X1001982Y299188D01*
X999822Y301348D01*
X997177Y302875D01*
X994227Y303665D01*
X991173D01*
X988223Y302875D01*
X985577Y301348D01*
X983418Y299188D01*
X982627Y297818D01*
X819872D01*
X768248Y349442D01*
Y359267D01*
X767860Y361218D01*
X767450Y361832D01*
X768035Y363243D01*
X768150Y363266D01*
X769950Y362908D01*
X771350D01*
X773150Y363266D01*
X774950Y362908D01*
X776350D01*
X778150Y363266D01*
X779950Y362908D01*
X781350D01*
X783150Y363266D01*
X784950Y362908D01*
X785348D01*
X786027Y361638D01*
X785668Y361101D01*
X785202Y358760D01*
Y355890D01*
X783670D01*
Y350505D01*
X789940D01*
Y349235D01*
X783670D01*
Y343850D01*
X789450D01*
X789940Y343752D01*
X790430Y343850D01*
X795940D01*
Y341120D01*
X798444D01*
Y336631D01*
X797605Y335178D01*
X797060Y333143D01*
Y331037D01*
X797605Y329002D01*
X798658Y327178D01*
X800148Y325688D01*
X801972Y324635D01*
X804007Y324090D01*
X806113D01*
X808148Y324635D01*
X809705Y325534D01*
X827920D01*
X829617Y325757D01*
X831198Y326412D01*
X832556Y327454D01*
X881436Y376334D01*
X936570D01*
Y370890D01*
X960570D01*
Y394890D01*
X936570D01*
Y389446D01*
X878720D01*
X877023Y389223D01*
X875442Y388568D01*
X874084Y387526D01*
X869155Y382597D01*
X868236Y383516D01*
X866754Y384372D01*
X865101Y384815D01*
X865005D01*
X860452Y389368D01*
X860539Y391077D01*
X861061Y391599D01*
X861917Y393081D01*
X862360Y394734D01*
Y396446D01*
X861917Y398099D01*
X861061Y399581D01*
X859851Y400791D01*
X858369Y401647D01*
X857676Y401833D01*
X857277Y402826D01*
X857311Y403089D01*
X858521Y404299D01*
X859377Y405781D01*
X859820Y407434D01*
Y409146D01*
X859377Y410799D01*
X858521Y412281D01*
X858067Y412735D01*
X858521Y413189D01*
X859377Y414671D01*
X859820Y416324D01*
Y418036D01*
X859377Y419689D01*
X858521Y421171D01*
X857311Y422381D01*
X855829Y423237D01*
X854961Y423470D01*
X854901Y423530D01*
X855281Y424946D01*
X855829Y425093D01*
X857311Y425949D01*
X858521Y427159D01*
X859377Y428641D01*
X859820Y430294D01*
Y432006D01*
X859377Y433659D01*
X858521Y435141D01*
X857432Y436230D01*
X858521Y437319D01*
X859377Y438801D01*
X859820Y440454D01*
Y442166D01*
X859377Y443819D01*
X858521Y445301D01*
X857311Y446511D01*
X855829Y447367D01*
X854636Y447687D01*
X854740Y448074D01*
Y449786D01*
X854297Y451439D01*
X853957Y452027D01*
X854691Y453297D01*
X882023D01*
X930815Y404505D01*
X932552Y403345D01*
X934600Y402937D01*
X937804D01*
X938968Y400922D01*
X941202Y398688D01*
X943938Y397108D01*
X946990Y396290D01*
X950150D01*
X953202Y397108D01*
X955938Y398688D01*
X958172Y400922D01*
X959752Y403658D01*
X960570Y406710D01*
Y409870D01*
X959752Y412922D01*
X958172Y415658D01*
X955938Y417892D01*
X953202Y419472D01*
X950150Y420290D01*
X946990D01*
X943938Y419472D01*
X941202Y417892D01*
X938968Y415658D01*
X937969Y413928D01*
X936644Y413817D01*
X888025Y462435D01*
X886289Y463595D01*
X884240Y464003D01*
X874256D01*
Y469231D01*
X865986D01*
Y469866D01*
X865351D01*
Y477136D01*
X863785D01*
X863446Y477203D01*
X852838D01*
X851910Y478030D01*
Y482748D01*
X854986D01*
Y478866D01*
X876986D01*
Y481640D01*
X878256Y482032D01*
X883500Y476788D01*
X883965Y475052D01*
X885018Y473228D01*
X886508Y471738D01*
X888332Y470685D01*
X890367Y470140D01*
X892473D01*
X894508Y470685D01*
X896332Y471738D01*
X897822Y473228D01*
X898875Y475052D01*
X899420Y477087D01*
Y479193D01*
X898875Y481228D01*
X897822Y483052D01*
X896332Y484542D01*
X894508Y485595D01*
X892772Y486060D01*
X885330Y493502D01*
X883972Y494544D01*
X882391Y495199D01*
X880694Y495422D01*
X876986D01*
Y498866D01*
X854986D01*
Y494983D01*
X851910D01*
Y496030D01*
X834410D01*
Y492372D01*
X832416Y491975D01*
X830679Y490815D01*
X826137Y486273D01*
X824977Y484536D01*
X824569Y482488D01*
Y475060D01*
X823652Y474142D01*
X813100D01*
X811266Y473777D01*
X809712Y472738D01*
X808673Y471184D01*
X808308Y469350D01*
Y469003D01*
X802000D01*
X799952Y468595D01*
X798215Y467435D01*
X793634Y462854D01*
X792474Y461118D01*
X792066Y459069D01*
Y457476D01*
X788575Y453985D01*
X787415Y452248D01*
X787007Y450200D01*
X787415Y448152D01*
X788575Y446415D01*
X790312Y445255D01*
X792360Y444847D01*
X794408Y445255D01*
X796145Y446415D01*
X801204Y451474D01*
X802365Y453211D01*
X802772Y455259D01*
Y456852D01*
X804217Y458297D01*
X808308D01*
Y457950D01*
X808666Y456150D01*
X808308Y454350D01*
Y452950D01*
X808666Y451150D01*
X808308Y449350D01*
Y447950D01*
X808666Y446150D01*
X808308Y444350D01*
Y442950D01*
X808666Y441150D01*
X808308Y439350D01*
Y437950D01*
X808666Y436150D01*
X808308Y434350D01*
Y432950D01*
X808666Y431150D01*
X808308Y429350D01*
Y427950D01*
X808666Y426150D01*
X808308Y424350D01*
Y422950D01*
X808666Y421150D01*
X808308Y419350D01*
Y417950D01*
X808666Y416150D01*
X808308Y414350D01*
Y412950D01*
X808666Y411150D01*
X808308Y409350D01*
Y407950D01*
X808666Y406150D01*
X808308Y404350D01*
Y402950D01*
X808666Y401150D01*
X808308Y399350D01*
Y397950D01*
X808666Y396150D01*
X808308Y394350D01*
Y392950D01*
X808673Y391116D01*
X809712Y389562D01*
X811266Y388523D01*
X813100Y388158D01*
X826600D01*
X828434Y388523D01*
X829988Y389562D01*
X831027Y391116D01*
X831392Y392950D01*
Y394350D01*
X831034Y396150D01*
X831392Y397950D01*
Y399350D01*
X831034Y401150D01*
X831066Y401309D01*
X832281Y401678D01*
X858236Y375723D01*
X859044Y374324D01*
X859963Y373405D01*
X825204Y338646D01*
X811556D01*
Y341120D01*
X813940D01*
Y358620D01*
X811178D01*
Y358760D01*
X810712Y361101D01*
X809386Y363086D01*
X807401Y364412D01*
X807323Y364427D01*
X806003Y365748D01*
Y367000D01*
X806142Y367700D01*
Y381200D01*
X805777Y383034D01*
X804738Y384589D01*
X803184Y385627D01*
X801350Y385992D01*
X801003D01*
Y394840D01*
X800595Y396888D01*
X799435Y398625D01*
X785985Y412075D01*
X784248Y413235D01*
X782200Y413643D01*
X780152Y413235D01*
X778415Y412075D01*
X777255Y410338D01*
X776847Y408290D01*
X777255Y406242D01*
X778415Y404505D01*
X790297Y392623D01*
Y385992D01*
X789950D01*
X788150Y385634D01*
X786350Y385992D01*
X785694D01*
X785595Y386488D01*
X784435Y388225D01*
X777192Y395468D01*
X776827Y396829D01*
X775971Y398311D01*
X774761Y399521D01*
X773279Y400377D01*
X771626Y400820D01*
X769914D01*
X768261Y400377D01*
X766779Y399521D01*
X765569Y398311D01*
X764713Y396829D01*
X764270Y395176D01*
Y393464D01*
X764713Y391811D01*
X765569Y390329D01*
X766779Y389119D01*
X768261Y388263D01*
X769622Y387898D01*
X770258Y387262D01*
X770066Y386471D01*
X769768Y385956D01*
X768150Y385634D01*
X766350Y385992D01*
X764950D01*
X763150Y385634D01*
X761350Y385992D01*
X759950D01*
X758150Y385634D01*
X756350Y385992D01*
X754950D01*
X753150Y385634D01*
X751350Y385992D01*
X749950D01*
X748150Y385634D01*
X746350Y385992D01*
X744950D01*
X743150Y385634D01*
X741350Y385992D01*
X739950D01*
X738150Y385634D01*
X736350Y385992D01*
X736003D01*
Y392623D01*
X744075Y400695D01*
X745235Y402432D01*
X745643Y404480D01*
X745235Y406528D01*
X744075Y408265D01*
X742338Y409425D01*
X740290Y409833D01*
X738242Y409425D01*
X736505Y408265D01*
X726865Y398625D01*
X725705Y396888D01*
X725297Y394840D01*
Y385992D01*
X724950D01*
X723116Y385627D01*
X721562Y384589D01*
X720523Y383034D01*
X720158Y381200D01*
Y373798D01*
X715940D01*
X713989Y373410D01*
X712335Y372305D01*
X701221Y361191D01*
X700048Y361677D01*
Y386088D01*
X702117Y388158D01*
X713200D01*
X715034Y388523D01*
X716589Y389562D01*
X717627Y391116D01*
X717992Y392950D01*
Y394350D01*
X717634Y396150D01*
X717992Y397950D01*
Y399350D01*
X717634Y401150D01*
X717992Y402950D01*
Y404350D01*
X717634Y406150D01*
X717992Y407950D01*
Y408297D01*
X725330D01*
X727378Y408705D01*
X729115Y409865D01*
X731375Y412125D01*
X732535Y413862D01*
X732943Y415910D01*
Y422583D01*
X736455Y426095D01*
X737615Y427832D01*
X738023Y429880D01*
X737615Y431928D01*
X736455Y433665D01*
X734718Y434825D01*
X732670Y435233D01*
X730622Y434825D01*
X728885Y433665D01*
X723805Y428585D01*
X722645Y426848D01*
X722237Y424800D01*
Y419003D01*
X717992D01*
Y419350D01*
X717634Y421150D01*
X717992Y422950D01*
Y424350D01*
X717634Y426150D01*
X717992Y427950D01*
Y429350D01*
X717634Y431150D01*
X717992Y432950D01*
Y434350D01*
X717634Y436150D01*
X717992Y437950D01*
Y439350D01*
X717634Y441150D01*
X717992Y442950D01*
Y444350D01*
X717634Y446150D01*
X717992Y447950D01*
Y449350D01*
X717634Y451150D01*
X717992Y452950D01*
Y454350D01*
X717634Y456150D01*
X717992Y457950D01*
Y459350D01*
X717634Y461150D01*
X717992Y462950D01*
Y464350D01*
X717634Y466150D01*
X717992Y467950D01*
Y469350D01*
X717627Y471184D01*
X716589Y472738D01*
X715034Y473777D01*
X713200Y474142D01*
X702478D01*
X698908Y477712D01*
Y492327D01*
X700703Y494122D01*
X708673D01*
X708739Y494078D01*
X711080Y493612D01*
X713421Y494078D01*
X713487Y494122D01*
X717858D01*
X720158Y491822D01*
Y481100D01*
X720523Y479266D01*
X721562Y477711D01*
X723116Y476673D01*
X724950Y476308D01*
X725297Y475038D01*
X725297Y471270D01*
X725705Y469222D01*
X726865Y467485D01*
X736505Y457845D01*
X738242Y456685D01*
X740290Y456277D01*
X747910D01*
X749958Y456685D01*
X751695Y457845D01*
X752855Y459582D01*
X753263Y461630D01*
X752855Y463678D01*
X751695Y465415D01*
X749958Y466575D01*
X747910Y466983D01*
X742507D01*
X736003Y473487D01*
X736003Y476097D01*
X736350Y476308D01*
X738150Y476666D01*
X739950Y476308D01*
X741350D01*
X743150Y476666D01*
X744950Y476308D01*
X746350D01*
X748150Y476666D01*
X749950Y476308D01*
X751350D01*
X753150Y476666D01*
X754950Y476308D01*
X756350D01*
X758150Y476666D01*
X759950Y476308D01*
X761350D01*
X763150Y476666D01*
X764950Y476308D01*
X766350D01*
X768150Y476666D01*
X769950Y476308D01*
X771350D01*
X773150Y476666D01*
X774950Y476308D01*
X776350D01*
X778150Y476666D01*
X779950Y476308D01*
X781350D01*
X783150Y476666D01*
X784950Y476308D01*
X786350D01*
X788150Y476666D01*
X789950Y476308D01*
X791350D01*
X793150Y476666D01*
X794950Y476308D01*
X796350D01*
X798150Y476666D01*
X799950Y476308D01*
X801350D01*
X803184Y476673D01*
X804738Y477711D01*
X805777Y479266D01*
X806142Y481100D01*
Y487946D01*
X806153Y488000D01*
Y491983D01*
X825057Y510887D01*
X905518D01*
X911983Y504422D01*
Y464924D01*
X912391Y462875D01*
X913551Y461139D01*
X937172Y437518D01*
X936570Y435270D01*
Y432110D01*
X937388Y429058D01*
X938968Y426322D01*
X941202Y424088D01*
X943938Y422508D01*
X946990Y421690D01*
X950150D01*
X953202Y422508D01*
X955938Y424088D01*
X958172Y426322D01*
X959752Y429058D01*
X960570Y432110D01*
Y435270D01*
X959752Y438322D01*
X958172Y441058D01*
X955938Y443292D01*
X953202Y444872D01*
X950150Y445690D01*
X946990D01*
X944742Y445088D01*
X922689Y467141D01*
Y506639D01*
X922281Y508688D01*
X921121Y510424D01*
X911520Y520025D01*
X909784Y521185D01*
X907736Y521593D01*
X897073D01*
X896723Y522863D01*
X915525Y541665D01*
X916685Y543402D01*
X917093Y545450D01*
Y546170D01*
X921010D01*
Y550257D01*
X938410D01*
X940458Y550665D01*
X942195Y551825D01*
X951085Y560715D01*
X952245Y562452D01*
X952653Y564500D01*
Y574670D01*
X956050D01*
Y589670D01*
Y607670D01*
X952908D01*
Y622173D01*
X953357Y622951D01*
X953800Y624604D01*
Y626316D01*
X953357Y627969D01*
X952501Y629451D01*
X951291Y630661D01*
X949809Y631517D01*
X948156Y631960D01*
X946444D01*
X944791Y631517D01*
X943309Y630661D01*
X942099Y629451D01*
X941243Y627969D01*
X940800Y626316D01*
Y624604D01*
X941243Y622951D01*
X941692Y622173D01*
Y607670D01*
X938550D01*
Y589670D01*
Y574670D01*
X941947D01*
Y566717D01*
X936193Y560963D01*
X921010D01*
Y566170D01*
X905010D01*
Y561523D01*
X889267D01*
X882803Y567987D01*
Y573400D01*
X886200D01*
Y591400D01*
X883470D01*
Y596765D01*
X877450D01*
Y598035D01*
X883470D01*
Y603670D01*
X882803D01*
Y615623D01*
X887997Y620817D01*
X907740D01*
Y618900D01*
X912375D01*
Y626170D01*
Y633440D01*
X907740D01*
Y631523D01*
X885780D01*
X883732Y631115D01*
X881995Y629955D01*
X873665Y621625D01*
X872505Y619888D01*
X872097Y617840D01*
Y603670D01*
X871430D01*
Y602187D01*
X870415D01*
X868366Y601780D01*
X866629Y600620D01*
X861116Y595106D01*
X859943Y595592D01*
Y701983D01*
X878397Y720437D01*
X937840D01*
Y713790D01*
X961840D01*
Y737790D01*
X937840D01*
Y731143D01*
X876180D01*
X874132Y730735D01*
X872395Y729575D01*
X850805Y707985D01*
X849645Y706248D01*
X849237Y704200D01*
Y568001D01*
X843336Y562100D01*
X842163Y562586D01*
Y727383D01*
X859347Y744567D01*
X939807D01*
X940238Y743822D01*
X942472Y741588D01*
X945208Y740008D01*
X948260Y739190D01*
X951420D01*
X954472Y740008D01*
X957208Y741588D01*
X959442Y743822D01*
X961022Y746558D01*
X961840Y749610D01*
Y752770D01*
X961022Y755822D01*
X959442Y758558D01*
X957208Y760792D01*
X954472Y762372D01*
X951420Y763190D01*
X948260D01*
X945208Y762372D01*
X942472Y760792D01*
X940238Y758558D01*
X938658Y755822D01*
X938511Y755273D01*
X857130D01*
X855082Y754865D01*
X853345Y753705D01*
X833025Y733385D01*
X831865Y731648D01*
X831457Y729600D01*
Y691110D01*
X830357Y690475D01*
X829819Y690786D01*
X826894Y691570D01*
X823866D01*
X820941Y690786D01*
X819714Y690078D01*
X768750D01*
X766401Y689768D01*
X764211Y688861D01*
X762331Y687419D01*
X705456Y630544D01*
X704560Y629375D01*
X703391Y628479D01*
X701240Y626328D01*
X371500D01*
X371500Y626328D01*
X369151Y626018D01*
X366961Y625111D01*
X365081Y623669D01*
X340780Y599368D01*
X292470D01*
X291860Y600638D01*
X293095Y602247D01*
X294103Y604679D01*
X294446Y607290D01*
X294103Y609901D01*
X293095Y612333D01*
X291492Y614422D01*
X289403Y616025D01*
X286971Y617033D01*
X284360Y617376D01*
X268885D01*
X268703Y618760D01*
X267695Y621193D01*
X266092Y623282D01*
X254452Y634922D01*
X252363Y636525D01*
X249930Y637533D01*
X247320Y637876D01*
X236096D01*
Y658410D01*
X235753Y661021D01*
X234745Y663453D01*
X233142Y665542D01*
X233072Y665612D01*
X230983Y667215D01*
X228550Y668223D01*
X225940Y668566D01*
X223330Y668223D01*
X220897Y667215D01*
X218808Y665612D01*
X217205Y663523D01*
X216197Y661090D01*
X215854Y658480D01*
X215924Y657948D01*
Y627860D01*
X216267Y625249D01*
X217275Y622817D01*
X218878Y620728D01*
X218948Y620658D01*
X219810Y619996D01*
Y614520D01*
X225445D01*
Y627790D01*
X226715D01*
Y614520D01*
X232350D01*
Y617704D01*
X243142D01*
X248874Y611972D01*
Y607290D01*
X249217Y604679D01*
X250225Y602247D01*
X251828Y600158D01*
X252607Y599560D01*
X252176Y598290D01*
X250710D01*
Y591562D01*
X235494Y576346D01*
X223580D01*
Y585790D01*
X209636D01*
Y611790D01*
X212080D01*
Y643790D01*
X209636D01*
Y652991D01*
X209413Y654688D01*
X208758Y656269D01*
X207716Y657627D01*
X204207Y661136D01*
X202849Y662178D01*
X201268Y662833D01*
X199571Y663056D01*
X178000D01*
X176303Y662833D01*
X174722Y662178D01*
X173364Y661136D01*
X153134Y640906D01*
X90040D01*
Y643100D01*
X57040D01*
Y640906D01*
X46870D01*
X45173Y640683D01*
X43592Y640028D01*
X42234Y638986D01*
X38424Y635176D01*
X37382Y633818D01*
X36727Y632237D01*
X36504Y630540D01*
Y629460D01*
X30805D01*
Y606220D01*
X55315D01*
Y627794D01*
X57040D01*
Y625600D01*
X90040D01*
Y627794D01*
X155850D01*
X157547Y628017D01*
X159128Y628672D01*
X160486Y629714D01*
X169907Y639135D01*
X171080Y638649D01*
Y611790D01*
X173524D01*
Y596456D01*
X155450D01*
Y598290D01*
X138950D01*
Y596846D01*
X130050D01*
Y598290D01*
X113550D01*
Y582290D01*
X130050D01*
Y583734D01*
X138950D01*
Y582290D01*
X140644D01*
Y561960D01*
X140867Y560263D01*
X141522Y558682D01*
X142564Y557324D01*
X157804Y542084D01*
X159162Y541042D01*
X160743Y540387D01*
X162440Y540164D01*
X178954D01*
X229680Y489438D01*
Y459076D01*
X151040D01*
Y472990D01*
X123040D01*
Y455486D01*
X91310D01*
Y457680D01*
X58310D01*
Y455486D01*
X55315D01*
Y478330D01*
X30805D01*
Y455090D01*
X36504D01*
Y454010D01*
X36727Y452313D01*
X37382Y450732D01*
X38424Y449374D01*
X43504Y444294D01*
X44862Y443252D01*
X46443Y442597D01*
X48140Y442374D01*
X58310D01*
Y440180D01*
X57182Y439836D01*
X22707D01*
X21586Y440957D01*
Y639572D01*
X42428Y660414D01*
X71471D01*
X74081Y660757D01*
X76514Y661765D01*
X78603Y663368D01*
X85632Y670397D01*
X87235Y672486D01*
X88243Y674919D01*
X88586Y677529D01*
Y704550D01*
X88243Y707160D01*
X87235Y709593D01*
X85632Y711682D01*
X46399Y750915D01*
X46720Y752530D01*
Y756070D01*
X46029Y759542D01*
X44675Y762812D01*
X42708Y765755D01*
X40205Y768258D01*
X37262Y770225D01*
X33992Y771579D01*
X30520Y772270D01*
X26980D01*
X23508Y771579D01*
X20238Y770225D01*
X17295Y768258D01*
X14792Y765755D01*
X12825Y762812D01*
X11471Y759542D01*
X10780Y756070D01*
Y752530D01*
X11471Y749058D01*
X12825Y745788D01*
X14792Y742845D01*
X17295Y740342D01*
X20238Y738375D01*
X23508Y737021D01*
X26980Y736330D01*
X30520D01*
X32135Y736651D01*
X68414Y700372D01*
Y681707D01*
X67293Y680586D01*
X38250D01*
X35640Y680243D01*
X33207Y679235D01*
X31118Y677632D01*
X4368Y650882D01*
X3386Y649603D01*
X2116Y650033D01*
X2039Y780248D01*
Y860750D01*
X1012000D01*
Y2134D01*
D02*
G37*
G36*
X818319Y670868D02*
X820941Y669354D01*
X823866Y668570D01*
X826894D01*
X829819Y669354D01*
X830357Y669665D01*
X831457Y669030D01*
Y557827D01*
X811173Y537543D01*
X810000Y538029D01*
Y546490D01*
Y556920D01*
X812227Y559147D01*
X817566D01*
X819614Y559555D01*
X821350Y560715D01*
X822815Y562179D01*
X823975Y563916D01*
X824383Y565965D01*
Y601330D01*
X823975Y603378D01*
X822815Y605115D01*
X817735Y610195D01*
X815998Y611355D01*
X813950Y611763D01*
X806936D01*
X805772Y613778D01*
X803538Y616012D01*
X800802Y617592D01*
X797750Y618410D01*
X794590D01*
X791538Y617592D01*
X788802Y616012D01*
X786568Y613778D01*
X784988Y611042D01*
X784170Y607990D01*
Y604830D01*
X784988Y601778D01*
X786568Y599042D01*
X788802Y596808D01*
X791538Y595228D01*
X794590Y594410D01*
X797750D01*
X800802Y595228D01*
X803538Y596808D01*
X805772Y599042D01*
X806936Y601057D01*
X811733D01*
X813677Y599113D01*
Y569853D01*
X810010D01*
X807962Y569445D01*
X806225Y568285D01*
X802430Y564490D01*
X792500D01*
Y546490D01*
Y539675D01*
X791946Y539250D01*
X790234D01*
X788581Y538807D01*
X787099Y537951D01*
X785889Y536741D01*
X785033Y535259D01*
X784590Y533606D01*
Y531894D01*
X784698Y531490D01*
X783925Y530483D01*
X777120D01*
X775072Y530075D01*
X773583Y529081D01*
X772313Y529497D01*
Y531490D01*
X775710D01*
Y546490D01*
Y564490D01*
X765530D01*
X761735Y568285D01*
X759998Y569445D01*
X757950Y569853D01*
X754533D01*
Y600383D01*
X755207Y601057D01*
X760004D01*
X761168Y599042D01*
X763402Y596808D01*
X766138Y595228D01*
X769190Y594410D01*
X772350D01*
X775402Y595228D01*
X778138Y596808D01*
X780372Y599042D01*
X781952Y601778D01*
X782770Y604830D01*
Y607990D01*
X781952Y611042D01*
X780372Y613778D01*
X778138Y616012D01*
X775402Y617592D01*
X772350Y618410D01*
X769190D01*
X766138Y617592D01*
X763402Y616012D01*
X761168Y613778D01*
X760004Y611763D01*
X752990D01*
X750942Y611355D01*
X749205Y610195D01*
X745395Y606385D01*
X744235Y604648D01*
X743827Y602600D01*
Y565965D01*
X744235Y563916D01*
X745395Y562179D01*
X746860Y560715D01*
X748596Y559555D01*
X750645Y559147D01*
X755733D01*
X758210Y556670D01*
Y546490D01*
Y531490D01*
X761607D01*
Y524807D01*
X754436Y517636D01*
X753263Y518122D01*
Y537830D01*
X752855Y539878D01*
X751695Y541615D01*
X726295Y567015D01*
X724558Y568175D01*
X722510Y568583D01*
X528200D01*
X526152Y568175D01*
X524415Y567015D01*
X514352Y556951D01*
X512991Y556587D01*
X511509Y555731D01*
X510299Y554521D01*
X509443Y553039D01*
X509000Y551386D01*
Y549674D01*
X509443Y548021D01*
X510299Y546539D01*
X511509Y545329D01*
X512991Y544473D01*
X514644Y544030D01*
X516356D01*
X518009Y544473D01*
X519491Y545329D01*
X520701Y546539D01*
X521557Y548021D01*
X521922Y549381D01*
X530417Y557877D01*
X720293D01*
X742557Y535613D01*
Y519293D01*
X742273Y519101D01*
X741003Y519777D01*
Y529770D01*
X740595Y531818D01*
X739435Y533555D01*
X726295Y546695D01*
X724558Y547855D01*
X722510Y548263D01*
X528200D01*
X526152Y547855D01*
X524415Y546695D01*
X495205Y517485D01*
X494045Y515748D01*
X493637Y513700D01*
Y478000D01*
X487833D01*
Y485841D01*
X488537Y487061D01*
X488980Y488714D01*
Y490426D01*
X488537Y492079D01*
X487681Y493561D01*
X486471Y494771D01*
X484989Y495627D01*
X483336Y496070D01*
X481624D01*
X479971Y495627D01*
X478489Y494771D01*
X477279Y493561D01*
X476423Y492079D01*
X475980Y490426D01*
Y488714D01*
X476423Y487061D01*
X477127Y485841D01*
Y478000D01*
X473720D01*
Y474858D01*
X445828D01*
Y608172D01*
X630864D01*
Y588195D01*
X629965Y586638D01*
X629420Y584603D01*
Y582497D01*
X629965Y580462D01*
X631018Y578638D01*
X632508Y577148D01*
X634332Y576095D01*
X636367Y575550D01*
X638473D01*
X640508Y576095D01*
X642332Y577148D01*
X643822Y578638D01*
X644875Y580462D01*
X645420Y582497D01*
Y584603D01*
X644875Y586638D01*
X643976Y588195D01*
Y608172D01*
X705000D01*
X707349Y608482D01*
X709539Y609389D01*
X711419Y610831D01*
X716229Y615641D01*
X717125Y616810D01*
X718294Y617706D01*
X763041Y662453D01*
X764214Y661967D01*
Y643810D01*
X758770D01*
Y619810D01*
X782770D01*
Y625254D01*
X786099D01*
X786568Y624442D01*
X788802Y622208D01*
X791538Y620628D01*
X794590Y619810D01*
X797750D01*
X800802Y620628D01*
X803538Y622208D01*
X805772Y624442D01*
X807352Y627178D01*
X808170Y630230D01*
Y633390D01*
X807352Y636442D01*
X805772Y639178D01*
X803538Y641412D01*
X800802Y642992D01*
X797750Y643810D01*
X794590D01*
X791538Y642992D01*
X788802Y641412D01*
X786568Y639178D01*
X786099Y638366D01*
X782770D01*
Y643810D01*
X777326D01*
Y671922D01*
X817264D01*
X818319Y670868D01*
D02*
G37*
G36*
X196524Y643790D02*
X194080D01*
Y611790D01*
X196524D01*
Y585790D01*
X183368D01*
X182842Y587060D01*
X184716Y588934D01*
X185758Y590292D01*
X186413Y591873D01*
X186636Y593570D01*
Y611790D01*
X189080D01*
Y643790D01*
X176221D01*
X175735Y644963D01*
X180716Y649944D01*
X196524D01*
Y643790D01*
D02*
G37*
G36*
X872097Y565770D02*
X872505Y563722D01*
X873665Y561985D01*
X883265Y552385D01*
X885002Y551225D01*
X887050Y550817D01*
X905010D01*
Y546290D01*
X890473Y531753D01*
X829788D01*
X829302Y532926D01*
X858375Y561999D01*
X859535Y563736D01*
X859943Y565784D01*
Y569362D01*
X861063Y569961D01*
X861432Y569715D01*
X863480Y569307D01*
X865528Y569715D01*
X867265Y570875D01*
X868425Y572612D01*
X868426Y572612D01*
X868509Y572960D01*
X868700Y573400D01*
X872097D01*
Y565770D01*
D02*
G37*
G36*
X182580Y585002D02*
Y554437D01*
X181761Y553392D01*
X181523Y553276D01*
X165156D01*
X153756Y564676D01*
Y582290D01*
X155450D01*
Y583344D01*
X176410D01*
X178107Y583567D01*
X179688Y584222D01*
X181046Y585264D01*
X181310Y585528D01*
X182580Y585002D01*
D02*
G37*
G36*
X724864Y532986D02*
X724425Y531629D01*
X723002Y531345D01*
X721265Y530185D01*
X720105Y528448D01*
X719697Y526400D01*
Y520912D01*
X719050Y519910D01*
X708980D01*
X695985Y532905D01*
X694166Y534121D01*
X692020Y534548D01*
X643126D01*
X642332Y535342D01*
X641756Y535674D01*
X641463Y537310D01*
X641668Y537557D01*
X720293D01*
X724864Y532986D01*
D02*
G37*
G36*
X797314Y509714D02*
X796292Y508691D01*
X794931Y508327D01*
X793449Y507471D01*
X792239Y506261D01*
X791383Y504779D01*
X790940Y503126D01*
Y501414D01*
X791142Y500662D01*
X790187Y499392D01*
X789950D01*
X788150Y499034D01*
X786350Y499392D01*
X784950D01*
X783150Y499034D01*
X781350Y499392D01*
X779950D01*
X778150Y499034D01*
X776350Y499392D01*
X774950D01*
X773150Y499034D01*
X771350Y499392D01*
X769950D01*
X768150Y499034D01*
X767985Y499067D01*
X767616Y500282D01*
X778221Y510887D01*
X796828D01*
X797314Y509714D01*
D02*
G37*
G36*
X633377Y537310D02*
X633084Y535674D01*
X632508Y535342D01*
X631018Y533852D01*
X629965Y532028D01*
X629420Y529993D01*
Y527887D01*
X629965Y525852D01*
X630864Y524295D01*
Y511350D01*
X625165D01*
Y488110D01*
X649675D01*
Y511350D01*
X643976D01*
Y523332D01*
X689697D01*
X701050Y511979D01*
Y505338D01*
X698380D01*
X696234Y504911D01*
X694415Y503695D01*
X689335Y498615D01*
X688119Y496796D01*
X687692Y494650D01*
Y487760D01*
X686422Y487374D01*
X686153Y487776D01*
X679425Y494505D01*
X677688Y495665D01*
X675640Y496073D01*
X669030D01*
Y499720D01*
X651530D01*
Y481720D01*
Y474586D01*
X650945Y474127D01*
X649675Y474725D01*
Y475282D01*
X625165D01*
Y457923D01*
X592800D01*
X590752Y457516D01*
X589015Y456355D01*
X580295Y447635D01*
X579135Y445898D01*
X578727Y443850D01*
Y384020D01*
X575080D01*
Y381290D01*
X569715D01*
Y375270D01*
X568445D01*
Y381290D01*
X562810D01*
Y380623D01*
X549382D01*
X548657Y381893D01*
X548707Y382039D01*
X549971Y382769D01*
X551181Y383979D01*
X552037Y385461D01*
X552480Y387114D01*
Y388826D01*
X552037Y390479D01*
X551333Y391699D01*
Y394330D01*
X557270D01*
Y412330D01*
X554540D01*
Y417695D01*
X548520D01*
Y418965D01*
X554540D01*
Y424600D01*
X553873D01*
Y431470D01*
X554540D01*
Y437105D01*
X548520D01*
Y438375D01*
X554540D01*
Y443740D01*
X557270D01*
Y461740D01*
X545537D01*
X545020Y461843D01*
X544784D01*
X543326Y462133D01*
X539740D01*
Y478000D01*
X536093D01*
Y485841D01*
X536797Y487061D01*
X537240Y488714D01*
Y490426D01*
X536797Y492079D01*
X535941Y493561D01*
X534731Y494771D01*
X533249Y495627D01*
X531596Y496070D01*
X529884D01*
X528231Y495627D01*
X526749Y494771D01*
X525539Y493561D01*
X524683Y492079D01*
X524240Y490426D01*
Y488714D01*
X524683Y487061D01*
X525387Y485841D01*
Y478000D01*
X520853D01*
Y494731D01*
X521557Y495951D01*
X522000Y497604D01*
Y499316D01*
X521557Y500969D01*
X520701Y502451D01*
X519491Y503661D01*
X518009Y504517D01*
X516356Y504960D01*
X514644D01*
X512991Y504517D01*
X511509Y503661D01*
X510299Y502451D01*
X509443Y500969D01*
X509000Y499316D01*
Y497604D01*
X509443Y495951D01*
X510147Y494731D01*
Y478000D01*
X506740D01*
Y478000D01*
X506720D01*
Y478000D01*
X504343D01*
Y511483D01*
X530417Y537557D01*
X633172D01*
X633377Y537310D01*
D02*
G37*
G36*
X677016Y481774D02*
Y465265D01*
X677423Y463216D01*
X678584Y461479D01*
X680048Y460015D01*
X681278Y459193D01*
X680892Y457923D01*
X651619D01*
X651234Y459193D01*
X652257Y459877D01*
X659100Y466720D01*
X669030D01*
Y481720D01*
Y485367D01*
X673423D01*
X677016Y481774D01*
D02*
G37*
G36*
X510268Y440648D02*
X510147Y440040D01*
Y436230D01*
X510555Y434182D01*
X511715Y432445D01*
X513452Y431285D01*
X515500Y430877D01*
X517548Y431285D01*
X518360Y431827D01*
X519630Y431148D01*
Y425914D01*
X518360Y425529D01*
X518015Y426045D01*
X516278Y427205D01*
X514230Y427613D01*
X512182Y427205D01*
X510445Y426045D01*
X509285Y424308D01*
X508469Y423970D01*
X507428Y424665D01*
X505380Y425073D01*
X503332Y424665D01*
X501595Y423505D01*
X500435Y421768D01*
X500027Y419720D01*
Y418130D01*
X496130D01*
Y422080D01*
Y432809D01*
X497250Y433408D01*
X497577Y433190D01*
X499625Y432782D01*
X501673Y433190D01*
X503410Y434350D01*
X504570Y436087D01*
X504978Y438135D01*
X504570Y440183D01*
X504352Y440510D01*
X504951Y441630D01*
X509463D01*
X510268Y440648D01*
D02*
G37*
G36*
X208800Y438880D02*
X210266D01*
X210697Y437610D01*
X209918Y437012D01*
X208315Y434923D01*
X207307Y432491D01*
X206964Y429880D01*
X207307Y427270D01*
X208315Y424837D01*
X209918Y422748D01*
X214584Y418082D01*
Y403738D01*
X204350D01*
X202204Y403311D01*
X200385Y402095D01*
X199798Y401217D01*
X198528Y401602D01*
Y438904D01*
X208800D01*
Y438880D01*
D02*
G37*
G36*
X473720Y460500D02*
X489267D01*
X490073Y459518D01*
X490027Y459290D01*
Y449580D01*
X490080Y449314D01*
Y447733D01*
X488180D01*
X486132Y447325D01*
X484395Y446165D01*
X483583Y444950D01*
X482960D01*
Y443048D01*
X482887Y442680D01*
X480230D01*
Y437680D01*
Y427080D01*
Y422080D01*
Y412080D01*
X490080D01*
Y405293D01*
X488458Y404970D01*
X486804Y403865D01*
X482875Y399936D01*
X482424Y399260D01*
X473480D01*
Y396118D01*
X445828D01*
Y463642D01*
X473720D01*
Y460500D01*
D02*
G37*
G36*
X200385Y394165D02*
X202204Y392949D01*
X204350Y392522D01*
X214584D01*
Y373926D01*
X170760D01*
Y375232D01*
X185790D01*
X187936Y375659D01*
X189755Y376875D01*
X196885Y384005D01*
X198101Y385824D01*
X198528Y387970D01*
Y394658D01*
X199798Y395043D01*
X200385Y394165D01*
D02*
G37*
G36*
X132440Y392139D02*
X132347Y390585D01*
X132022Y390340D01*
X130260D01*
Y373926D01*
X100280D01*
Y392487D01*
X132092D01*
X132440Y392139D01*
D02*
G37*
G36*
X651494Y446044D02*
X647605Y442155D01*
X646445Y440418D01*
X646037Y438370D01*
Y401800D01*
X626120D01*
Y384300D01*
X626120D01*
Y384020D01*
X626120D01*
Y366520D01*
X628997D01*
Y349697D01*
X626045Y347993D01*
X623527Y345475D01*
X621746Y342391D01*
X620825Y338951D01*
Y335389D01*
X621746Y331950D01*
X623527Y328865D01*
X626045Y326347D01*
X629129Y324567D01*
X632569Y323645D01*
X636130D01*
X639570Y324567D01*
X642654Y326347D01*
X645172Y328865D01*
X646953Y331950D01*
X647875Y335389D01*
Y338951D01*
X646953Y342391D01*
X645172Y345475D01*
X642654Y347993D01*
X639702Y349697D01*
Y366520D01*
X644120D01*
Y369250D01*
X646131D01*
X646335Y368945D01*
X647605Y367675D01*
X649342Y366515D01*
X651390Y366107D01*
X653438Y366515D01*
X655175Y367675D01*
X656227Y369250D01*
X656390D01*
Y369686D01*
X656743Y371460D01*
X656731Y371521D01*
X664610Y379400D01*
X665770Y381137D01*
X666178Y383185D01*
Y401538D01*
X668137Y403497D01*
X669310Y403011D01*
Y386710D01*
X672962D01*
Y335472D01*
X620804Y283313D01*
X618614Y283900D01*
X615586D01*
X612661Y283116D01*
X610039Y281602D01*
X609914Y281478D01*
X512360D01*
X445828Y348010D01*
Y384902D01*
X473480D01*
Y381760D01*
X477127D01*
Y376459D01*
X476423Y375239D01*
X475980Y373586D01*
Y371874D01*
X476423Y370221D01*
X477279Y368739D01*
X478489Y367529D01*
X479971Y366673D01*
X481624Y366230D01*
X483336D01*
X484989Y366673D01*
X486471Y367529D01*
X487681Y368739D01*
X488537Y370221D01*
X488980Y371874D01*
Y373586D01*
X488537Y375239D01*
X487833Y376459D01*
Y381760D01*
X491480D01*
Y384490D01*
X496845D01*
Y390510D01*
X498115D01*
Y384490D01*
X503750D01*
Y388960D01*
X505447Y390657D01*
X506620Y390171D01*
Y381760D01*
X524620D01*
Y384490D01*
X529320D01*
X542325Y371485D01*
X544062Y370325D01*
X546110Y369917D01*
X562810D01*
Y369250D01*
X563487D01*
Y363840D01*
X563895Y361792D01*
X565055Y360055D01*
X566792Y358895D01*
X568840Y358487D01*
X570888Y358895D01*
X572625Y360055D01*
X573785Y361792D01*
X574193Y363840D01*
Y365617D01*
X575080Y366520D01*
X579997D01*
Y349697D01*
X577046Y347993D01*
X574527Y345475D01*
X572747Y342391D01*
X571825Y338951D01*
Y335389D01*
X572747Y331950D01*
X574527Y328865D01*
X577046Y326347D01*
X580130Y324567D01*
X583569Y323645D01*
X587131D01*
X590570Y324567D01*
X593655Y326347D01*
X596173Y328865D01*
X597953Y331950D01*
X598875Y335389D01*
Y338951D01*
X597953Y342391D01*
X596173Y345475D01*
X593655Y347993D01*
X590703Y349697D01*
Y366520D01*
X593080D01*
Y384020D01*
X589433D01*
Y441633D01*
X595018Y447218D01*
X651008D01*
X651494Y446044D01*
D02*
G37*
%LPC*%
G36*
X650430Y842430D02*
X617430D01*
Y840016D01*
X361500D01*
Y842430D01*
X328500D01*
Y817430D01*
X334914D01*
Y810694D01*
X334795Y810575D01*
X333281Y807953D01*
X332498Y805028D01*
Y802000D01*
X333281Y799075D01*
X334795Y796453D01*
X336936Y794312D01*
X339559Y792798D01*
X342484Y792014D01*
X345512D01*
X348437Y792798D01*
X351059Y794312D01*
X353200Y796453D01*
X354714Y799075D01*
X355498Y802000D01*
Y805028D01*
X355086Y806563D01*
Y817430D01*
X361500D01*
Y819844D01*
X405887D01*
Y812359D01*
X405488Y811960D01*
X403895Y809200D01*
X403070Y806123D01*
Y802937D01*
X403895Y799860D01*
X405488Y797100D01*
X407740Y794848D01*
X410500Y793255D01*
X413577Y792430D01*
X416763D01*
X419840Y793255D01*
X422600Y794848D01*
X424852Y797100D01*
X426445Y799860D01*
X427270Y802937D01*
X428470D01*
X429295Y799860D01*
X430888Y797100D01*
X433140Y794848D01*
X435900Y793255D01*
X438977Y792430D01*
X442163D01*
X445240Y793255D01*
X448000Y794848D01*
X450252Y797100D01*
X451845Y799860D01*
X452670Y802937D01*
X453870D01*
X454695Y799860D01*
X456288Y797100D01*
X458540Y794848D01*
X461300Y793255D01*
X464377Y792430D01*
X467563D01*
X470640Y793255D01*
X473400Y794848D01*
X475652Y797100D01*
X477245Y799860D01*
X478070Y802937D01*
Y806123D01*
X477245Y809200D01*
X475652Y811960D01*
X473400Y814212D01*
X470640Y815805D01*
X467563Y816630D01*
X464377D01*
X461300Y815805D01*
X458540Y814212D01*
X456288Y811960D01*
X454695Y809200D01*
X453870Y806123D01*
X452670D01*
X451845Y809200D01*
X450252Y811960D01*
X448000Y814212D01*
X445240Y815805D01*
X442163Y816630D01*
X438977D01*
X435900Y815805D01*
X433140Y814212D01*
X430888Y811960D01*
X429295Y809200D01*
X428470Y806123D01*
X427270D01*
X426445Y809200D01*
X426060Y809868D01*
Y819844D01*
X617430D01*
Y817430D01*
X650430D01*
Y842430D01*
D02*
G37*
G36*
X900620Y855900D02*
X897460D01*
X894408Y855082D01*
X891672Y853502D01*
X889438Y851268D01*
X887858Y848532D01*
X887040Y845480D01*
Y842320D01*
X887858Y839268D01*
X889438Y836532D01*
X891672Y834298D01*
X894408Y832718D01*
X897460Y831900D01*
X900620D01*
X903672Y832718D01*
X906408Y834298D01*
X908642Y836532D01*
X910222Y839268D01*
X911040Y842320D01*
Y845480D01*
X910222Y848532D01*
X908642Y851268D01*
X906408Y853502D01*
X903672Y855082D01*
X900620Y855900D01*
D02*
G37*
G36*
X885640D02*
X861640D01*
Y831900D01*
X885640D01*
Y855900D01*
D02*
G37*
G36*
X811910Y849170D02*
X808370D01*
X804898Y848479D01*
X801628Y847125D01*
X798685Y845158D01*
X796182Y842655D01*
X794215Y839712D01*
X792861Y836442D01*
X792170Y832970D01*
Y829430D01*
X792861Y825958D01*
X794215Y822688D01*
X796182Y819745D01*
X798685Y817242D01*
X801628Y815275D01*
X804898Y813921D01*
X808370Y813230D01*
X811910D01*
X815382Y813921D01*
X818652Y815275D01*
X821595Y817242D01*
X824098Y819745D01*
X826065Y822688D01*
X827419Y825958D01*
X828110Y829430D01*
Y832970D01*
X827419Y836442D01*
X826065Y839712D01*
X824098Y842655D01*
X821595Y845158D01*
X818652Y847125D01*
X815382Y848479D01*
X811910Y849170D01*
D02*
G37*
G36*
X761110D02*
X757570D01*
X754098Y848479D01*
X750828Y847125D01*
X747885Y845158D01*
X745382Y842655D01*
X743415Y839712D01*
X742061Y836442D01*
X741370Y832970D01*
Y829430D01*
X742061Y825958D01*
X743415Y822688D01*
X745382Y819745D01*
X747885Y817242D01*
X750828Y815275D01*
X754098Y813921D01*
X757570Y813230D01*
X761110D01*
X764582Y813921D01*
X767852Y815275D01*
X770795Y817242D01*
X773298Y819745D01*
X775265Y822688D01*
X776619Y825958D01*
X777310Y829430D01*
Y832970D01*
X776619Y836442D01*
X775265Y839712D01*
X773298Y842655D01*
X770795Y845158D01*
X767852Y847125D01*
X764582Y848479D01*
X761110Y849170D01*
D02*
G37*
G36*
X220090D02*
X216550D01*
X213078Y848479D01*
X209808Y847125D01*
X206865Y845158D01*
X204362Y842655D01*
X202395Y839712D01*
X201041Y836442D01*
X200350Y832970D01*
Y829430D01*
X201041Y825958D01*
X202395Y822688D01*
X204362Y819745D01*
X206865Y817242D01*
X209808Y815275D01*
X213078Y813921D01*
X216550Y813230D01*
X220090D01*
X223562Y813921D01*
X226832Y815275D01*
X229775Y817242D01*
X232278Y819745D01*
X234245Y822688D01*
X235599Y825958D01*
X236290Y829430D01*
Y832970D01*
X235599Y836442D01*
X234245Y839712D01*
X232278Y842655D01*
X229775Y845158D01*
X226832Y847125D01*
X223562Y848479D01*
X220090Y849170D01*
D02*
G37*
G36*
X169290D02*
X165750D01*
X162278Y848479D01*
X159008Y847125D01*
X156065Y845158D01*
X153562Y842655D01*
X151595Y839712D01*
X150241Y836442D01*
X149550Y832970D01*
Y829430D01*
X150241Y825958D01*
X151595Y822688D01*
X153562Y819745D01*
X156065Y817242D01*
X159008Y815275D01*
X162278Y813921D01*
X165750Y813230D01*
X169290D01*
X172762Y813921D01*
X176032Y815275D01*
X178975Y817242D01*
X181478Y819745D01*
X183445Y822688D01*
X184799Y825958D01*
X185490Y829430D01*
Y832970D01*
X184799Y836442D01*
X183445Y839712D01*
X181478Y842655D01*
X178975Y845158D01*
X176032Y847125D01*
X172762Y848479D01*
X169290Y849170D01*
D02*
G37*
G36*
X981020Y852470D02*
X977080D01*
X973216Y851701D01*
X969576Y850194D01*
X966301Y848005D01*
X963515Y845219D01*
X961326Y841944D01*
X959819Y838304D01*
X959050Y834440D01*
Y830500D01*
X959819Y826636D01*
X961326Y822996D01*
X963515Y819721D01*
X966301Y816935D01*
X969576Y814746D01*
X973216Y813239D01*
X977080Y812470D01*
X981020D01*
X984884Y813239D01*
X988523Y814746D01*
X991799Y816935D01*
X994585Y819721D01*
X996774Y822996D01*
X998281Y826636D01*
X999050Y830500D01*
Y834440D01*
X998281Y838304D01*
X996774Y841944D01*
X994585Y845219D01*
X991799Y848005D01*
X988523Y850194D01*
X984884Y851701D01*
X981020Y852470D01*
D02*
G37*
G36*
X36140D02*
X32200D01*
X28336Y851701D01*
X24697Y850194D01*
X21421Y848005D01*
X18635Y845219D01*
X16446Y841944D01*
X14939Y838304D01*
X14170Y834440D01*
Y830500D01*
X14939Y826636D01*
X16446Y822996D01*
X18635Y819721D01*
X21421Y816935D01*
X24697Y814746D01*
X28336Y813239D01*
X32200Y812470D01*
X36140D01*
X40004Y813239D01*
X43643Y814746D01*
X46919Y816935D01*
X49705Y819721D01*
X51894Y822996D01*
X53401Y826636D01*
X54170Y830500D01*
Y834440D01*
X53401Y838304D01*
X51894Y841944D01*
X49705Y845219D01*
X46919Y848005D01*
X43643Y850194D01*
X40004Y851701D01*
X36140Y852470D01*
D02*
G37*
G36*
X569163Y816630D02*
X565977D01*
X562900Y815805D01*
X560140Y814212D01*
X557888Y811960D01*
X556295Y809200D01*
X555470Y806123D01*
X554270D01*
X553445Y809200D01*
X551852Y811960D01*
X549600Y814212D01*
X546840Y815805D01*
X543763Y816630D01*
X540577D01*
X537500Y815805D01*
X534740Y814212D01*
X532488Y811960D01*
X530895Y809200D01*
X530070Y806123D01*
X528870D01*
X528045Y809200D01*
X526452Y811960D01*
X524200Y814212D01*
X521440Y815805D01*
X518363Y816630D01*
X515177D01*
X512100Y815805D01*
X509340Y814212D01*
X507088Y811960D01*
X505495Y809200D01*
X504670Y806123D01*
Y802937D01*
X505495Y799860D01*
X507088Y797100D01*
X509340Y794848D01*
X512100Y793255D01*
X515177Y792430D01*
X518363D01*
X521440Y793255D01*
X524200Y794848D01*
X526452Y797100D01*
X528045Y799860D01*
X528870Y802937D01*
X530070D01*
X530895Y799860D01*
X532488Y797100D01*
X534740Y794848D01*
X537500Y793255D01*
X540577Y792430D01*
X543763D01*
X546840Y793255D01*
X549600Y794848D01*
X551852Y797100D01*
X553445Y799860D01*
X554270Y802937D01*
X555470D01*
X556295Y799860D01*
X557888Y797100D01*
X560140Y794848D01*
X562900Y793255D01*
X565977Y792430D01*
X569163D01*
X572240Y793255D01*
X574300Y794444D01*
X600140D01*
X601231Y793814D01*
X604156Y793030D01*
X607184D01*
X610109Y793814D01*
X612731Y795328D01*
X614872Y797469D01*
X616386Y800091D01*
X617170Y803016D01*
Y806044D01*
X616386Y808969D01*
X614872Y811591D01*
X612731Y813732D01*
X610109Y815246D01*
X607184Y816030D01*
X604156D01*
X601231Y815246D01*
X600140Y814616D01*
X574300D01*
X572240Y815805D01*
X569163Y816630D01*
D02*
G37*
G36*
X492604Y813900D02*
X492005D01*
Y805165D01*
X500740D01*
Y805764D01*
X500101Y808147D01*
X498868Y810283D01*
X497123Y812028D01*
X494987Y813261D01*
X492604Y813900D01*
D02*
G37*
G36*
X490735D02*
X490136D01*
X487753Y813261D01*
X485617Y812028D01*
X483872Y810283D01*
X482639Y808147D01*
X482000Y805764D01*
Y805165D01*
X490735D01*
Y813900D01*
D02*
G37*
G36*
X500740Y803895D02*
X492005D01*
Y795160D01*
X492604D01*
X494987Y795799D01*
X497123Y797032D01*
X498868Y798777D01*
X500101Y800913D01*
X500740Y803296D01*
Y803895D01*
D02*
G37*
G36*
X490735D02*
X482000D01*
Y803296D01*
X482639Y800913D01*
X483872Y798777D01*
X485617Y797032D01*
X487753Y795799D01*
X490136Y795160D01*
X490735D01*
Y803895D01*
D02*
G37*
G36*
X651700Y789090D02*
X618700D01*
Y786676D01*
X361500D01*
Y789090D01*
X328500D01*
Y764090D01*
X334439D01*
Y756273D01*
X333334Y754359D01*
X332550Y751434D01*
Y748406D01*
X333334Y745481D01*
X334848Y742859D01*
X336989Y740718D01*
X339611Y739204D01*
X342536Y738420D01*
X345564D01*
X348489Y739204D01*
X351111Y740718D01*
X353252Y742859D01*
X354766Y745481D01*
X355550Y748406D01*
Y751434D01*
X354766Y754359D01*
X354611Y754627D01*
Y764090D01*
X361500D01*
Y766504D01*
X417784D01*
Y760460D01*
X416595Y758400D01*
X415770Y755323D01*
Y752137D01*
X416595Y749060D01*
X418188Y746300D01*
X420440Y744048D01*
X423200Y742455D01*
X426277Y741630D01*
X429463D01*
X432540Y742455D01*
X435300Y744048D01*
X437552Y746300D01*
X439145Y749060D01*
X439970Y752137D01*
X441170D01*
X441995Y749060D01*
X443588Y746300D01*
X445840Y744048D01*
X448600Y742455D01*
X451677Y741630D01*
X454863D01*
X457940Y742455D01*
X460700Y744048D01*
X462952Y746300D01*
X464545Y749060D01*
X465370Y752137D01*
X466570D01*
X467395Y749060D01*
X468988Y746300D01*
X471240Y744048D01*
X474000Y742455D01*
X477077Y741630D01*
X480263D01*
X483340Y742455D01*
X486100Y744048D01*
X488352Y746300D01*
X489945Y749060D01*
X490770Y752137D01*
X491970D01*
X492795Y749060D01*
X494388Y746300D01*
X496640Y744048D01*
X499400Y742455D01*
X502477Y741630D01*
X505663D01*
X508740Y742455D01*
X511500Y744048D01*
X513752Y746300D01*
X514804Y748122D01*
X518736D01*
X519788Y746300D01*
X522040Y744048D01*
X524800Y742455D01*
X527877Y741630D01*
X531063D01*
X534140Y742455D01*
X536900Y744048D01*
X539152Y746300D01*
X540745Y749060D01*
X541570Y752137D01*
X542770D01*
X543595Y749060D01*
X545188Y746300D01*
X545792Y745696D01*
Y731058D01*
X361500D01*
Y734480D01*
X328500D01*
Y709480D01*
X361500D01*
Y712902D01*
X618700D01*
Y709480D01*
X651700D01*
Y734480D01*
X645761D01*
Y743109D01*
X646866Y745023D01*
X647650Y747948D01*
Y750976D01*
X646866Y753901D01*
X645352Y756523D01*
X643211Y758664D01*
X640589Y760178D01*
X637664Y760962D01*
X634636D01*
X631711Y760178D01*
X629089Y758664D01*
X626948Y756523D01*
X625434Y753901D01*
X624650Y750976D01*
Y747948D01*
X625434Y745023D01*
X625589Y744754D01*
Y734480D01*
X618700D01*
Y731058D01*
X563948D01*
Y745696D01*
X564552Y746300D01*
X566145Y749060D01*
X566970Y752137D01*
Y755323D01*
X566145Y758400D01*
X564552Y761160D01*
X562300Y763412D01*
X559540Y765005D01*
X558688Y765234D01*
X558855Y766504D01*
X618700D01*
Y764090D01*
X651700D01*
Y789090D01*
D02*
G37*
G36*
X581504Y763100D02*
X580905D01*
Y754365D01*
X589640D01*
Y754964D01*
X589001Y757347D01*
X587768Y759483D01*
X586023Y761228D01*
X583887Y762461D01*
X581504Y763100D01*
D02*
G37*
G36*
X579635D02*
X579036D01*
X576653Y762461D01*
X574517Y761228D01*
X572772Y759483D01*
X571539Y757347D01*
X570900Y754964D01*
Y754365D01*
X579635D01*
Y763100D01*
D02*
G37*
G36*
X411840D02*
X403105D01*
Y754365D01*
X411840D01*
Y763100D01*
D02*
G37*
G36*
X401835D02*
X393100D01*
Y754365D01*
X401835D01*
Y763100D01*
D02*
G37*
G36*
X589640Y753095D02*
X580905D01*
Y744360D01*
X581504D01*
X583887Y744999D01*
X586023Y746232D01*
X587768Y747977D01*
X589001Y750113D01*
X589640Y752496D01*
Y753095D01*
D02*
G37*
G36*
X579635D02*
X570900D01*
Y752496D01*
X571539Y750113D01*
X572772Y747977D01*
X574517Y746232D01*
X576653Y744999D01*
X579036Y744360D01*
X579635D01*
Y753095D01*
D02*
G37*
G36*
X411840D02*
X403105D01*
Y744360D01*
X411840D01*
Y753095D01*
D02*
G37*
G36*
X401835D02*
X393100D01*
Y744360D01*
X401835D01*
Y753095D01*
D02*
G37*
G36*
X30251Y718740D02*
X29385D01*
Y704135D01*
X43990D01*
Y705001D01*
X43404Y707945D01*
X42256Y710719D01*
X40588Y713215D01*
X38465Y715338D01*
X35969Y717005D01*
X33195Y718154D01*
X30251Y718740D01*
D02*
G37*
G36*
X28115D02*
X27249D01*
X24305Y718154D01*
X21531Y717005D01*
X19035Y715338D01*
X16912Y713215D01*
X15244Y710719D01*
X14096Y707945D01*
X13510Y705001D01*
Y704135D01*
X28115D01*
Y718740D01*
D02*
G37*
G36*
X43990Y702865D02*
X29385D01*
Y688260D01*
X30251D01*
X33195Y688846D01*
X35969Y689995D01*
X38465Y691662D01*
X40588Y693785D01*
X42256Y696281D01*
X43404Y699055D01*
X43990Y701999D01*
Y702865D01*
D02*
G37*
G36*
X28115D02*
X13510D01*
Y701999D01*
X14096Y699055D01*
X15244Y696281D01*
X16912Y693785D01*
X19035Y691662D01*
X21531Y689995D01*
X24305Y688846D01*
X27249Y688260D01*
X28115D01*
Y702865D01*
D02*
G37*
G36*
X318650Y850518D02*
X289440D01*
X287879Y850208D01*
X286556Y849324D01*
X285672Y848001D01*
X285362Y846440D01*
Y649590D01*
X285672Y648029D01*
X286556Y646706D01*
X287879Y645822D01*
X289440Y645512D01*
X290088D01*
Y638334D01*
X288884Y636249D01*
X288100Y633324D01*
Y630296D01*
X288884Y627371D01*
X290398Y624749D01*
X292539Y622608D01*
X295161Y621094D01*
X298086Y620310D01*
X301114D01*
X304039Y621094D01*
X306661Y622608D01*
X308802Y624749D01*
X310316Y627371D01*
X311100Y630296D01*
Y633324D01*
X310316Y636249D01*
X310260Y636346D01*
Y645512D01*
X318650D01*
X320211Y645822D01*
X321534Y646706D01*
X322418Y648029D01*
X322728Y649590D01*
Y685224D01*
X339790D01*
X340881Y684594D01*
X343806Y683810D01*
X346834D01*
X349759Y684594D01*
X352381Y686108D01*
X354522Y688249D01*
X356036Y690871D01*
X356820Y693796D01*
Y696824D01*
X356036Y699749D01*
X354522Y702371D01*
X352381Y704512D01*
X349759Y706026D01*
X346834Y706810D01*
X343806D01*
X340881Y706026D01*
X339790Y705396D01*
X322728D01*
Y846440D01*
X322418Y848001D01*
X321534Y849324D01*
X320211Y850208D01*
X318650Y850518D01*
D02*
G37*
G36*
X637664Y706810D02*
X634636D01*
X631711Y706026D01*
X629089Y704512D01*
X626948Y702371D01*
X625434Y699749D01*
X624650Y696824D01*
Y693796D01*
X625434Y690871D01*
X625589Y690603D01*
Y679870D01*
X618700D01*
Y677456D01*
X615756D01*
Y689780D01*
X616386Y690871D01*
X617170Y693796D01*
Y696824D01*
X616386Y699749D01*
X614872Y702371D01*
X612731Y704512D01*
X610109Y706026D01*
X607184Y706810D01*
X604156D01*
X601231Y706026D01*
X598609Y704512D01*
X596468Y702371D01*
X594954Y699749D01*
X594170Y696824D01*
Y693796D01*
X594954Y690871D01*
X595584Y689780D01*
Y677456D01*
X543164D01*
X542189Y678726D01*
X542320Y679214D01*
Y680926D01*
X541877Y682579D01*
X541021Y684061D01*
X539811Y685271D01*
X538329Y686127D01*
X536676Y686570D01*
X534964D01*
X533311Y686127D01*
X532091Y685423D01*
X465889D01*
X464669Y686127D01*
X463016Y686570D01*
X461304D01*
X459651Y686127D01*
X458169Y685271D01*
X456959Y684061D01*
X456103Y682579D01*
X455660Y680926D01*
Y679214D01*
X455791Y678726D01*
X454816Y677456D01*
X361180D01*
Y679870D01*
X328180D01*
Y654870D01*
X361180D01*
Y657284D01*
X618700D01*
Y654870D01*
X651700D01*
Y679870D01*
X645761D01*
Y688957D01*
X646866Y690871D01*
X647650Y693796D01*
Y696824D01*
X646866Y699749D01*
X645352Y702371D01*
X643211Y704512D01*
X640589Y706026D01*
X637664Y706810D01*
D02*
G37*
G36*
X690760Y850518D02*
X661550D01*
X659989Y850208D01*
X658666Y849324D01*
X657782Y848001D01*
X657472Y846440D01*
Y650860D01*
X657782Y649299D01*
X658666Y647976D01*
X659989Y647092D01*
X661550Y646782D01*
X690760D01*
X692321Y647092D01*
X693644Y647976D01*
X694528Y649299D01*
X694838Y650860D01*
Y793174D01*
X699650D01*
X702261Y793517D01*
X704693Y794525D01*
X706782Y796128D01*
X708385Y798217D01*
X709393Y800649D01*
X709736Y803260D01*
X709393Y805871D01*
X708385Y808303D01*
X706782Y810392D01*
X704693Y811995D01*
X702261Y813003D01*
X699650Y813346D01*
X694838D01*
Y846440D01*
X694528Y848001D01*
X693644Y849324D01*
X692321Y850208D01*
X690760Y850518D01*
D02*
G37*
G36*
X918280Y633440D02*
X913645D01*
Y626170D01*
Y618900D01*
X918280D01*
Y625754D01*
X918363Y626170D01*
X918280Y626586D01*
Y633440D01*
D02*
G37*
G36*
X147200Y613846D02*
X104900D01*
X103203Y613623D01*
X101622Y612968D01*
X100264Y611926D01*
X77174Y588836D01*
X52585D01*
Y590662D01*
X43695D01*
Y581772D01*
X43060D01*
Y581137D01*
X33535D01*
Y572882D01*
X36504D01*
Y511668D01*
X33535D01*
Y503413D01*
X43060D01*
Y502778D01*
X43695D01*
Y493888D01*
X52585D01*
Y496984D01*
X68506D01*
X68948Y496408D01*
X71037Y494805D01*
X73470Y493797D01*
X76080Y493454D01*
X76892D01*
X79502Y493797D01*
X81935Y494805D01*
X84024Y496408D01*
X97520Y509904D01*
X125770D01*
Y498720D01*
X136405D01*
Y519990D01*
X137040D01*
Y520625D01*
X148310D01*
Y541260D01*
X140034D01*
X117856Y563438D01*
X115767Y565041D01*
X113335Y566049D01*
X112985Y566095D01*
X111711Y566623D01*
X109100Y566966D01*
X106489Y566623D01*
X104057Y565615D01*
X101968Y564012D01*
X100365Y561923D01*
X99357Y559491D01*
X99014Y556880D01*
X99357Y554269D01*
X100365Y551837D01*
X101968Y549748D01*
X102542Y549174D01*
X104631Y547571D01*
X105594Y547172D01*
X121516Y531250D01*
X121030Y530076D01*
X93342D01*
X90731Y529733D01*
X88299Y528725D01*
X86210Y527122D01*
X71593Y512505D01*
X71037Y512275D01*
X68948Y510672D01*
X68506Y510096D01*
X52585D01*
Y511668D01*
X49616D01*
Y572882D01*
X52585D01*
Y575724D01*
X79890D01*
X81587Y575947D01*
X83168Y576602D01*
X84526Y577644D01*
X107616Y600734D01*
X147200D01*
X148897Y600957D01*
X150478Y601612D01*
X151009Y602020D01*
X152720D01*
Y603806D01*
X152878Y604012D01*
X153533Y605593D01*
X153756Y607290D01*
X153533Y608987D01*
X152878Y610568D01*
X152720Y610774D01*
Y612560D01*
X151009D01*
X150478Y612968D01*
X148897Y613623D01*
X147200Y613846D01*
D02*
G37*
G36*
X42425Y590662D02*
X33535D01*
Y582407D01*
X42425D01*
Y590662D01*
D02*
G37*
G36*
X148310Y519355D02*
X137675D01*
Y498720D01*
X148310D01*
Y519355D01*
D02*
G37*
G36*
X42425Y502143D02*
X33535D01*
Y493888D01*
X42425D01*
Y502143D01*
D02*
G37*
G36*
X874256Y477136D02*
X866621D01*
Y470501D01*
X874256D01*
Y477136D01*
D02*
G37*
G36*
X949790Y468360D02*
X949205D01*
Y459725D01*
X957840D01*
Y460310D01*
X957208Y462668D01*
X955988Y464782D01*
X954262Y466508D01*
X952148Y467728D01*
X949790Y468360D01*
D02*
G37*
G36*
X947935D02*
X947350D01*
X944992Y467728D01*
X942878Y466508D01*
X941152Y464782D01*
X939932Y462668D01*
X939300Y460310D01*
Y459725D01*
X947935D01*
Y468360D01*
D02*
G37*
G36*
X957840Y458455D02*
X949205D01*
Y449820D01*
X949790D01*
X952148Y450452D01*
X954262Y451672D01*
X955988Y453398D01*
X957208Y455512D01*
X957840Y457870D01*
Y458455D01*
D02*
G37*
G36*
X947935D02*
X939300D01*
Y457870D01*
X939932Y455512D01*
X941152Y453398D01*
X942878Y451672D01*
X944992Y450452D01*
X947350Y449820D01*
X947935D01*
Y458455D01*
D02*
G37*
G36*
X52875Y415610D02*
X6740D01*
Y364475D01*
X52875D01*
Y415610D01*
D02*
G37*
G36*
X104970Y270970D02*
X84335D01*
Y260335D01*
X104970D01*
Y270970D01*
D02*
G37*
G36*
X652020Y156630D02*
X619020D01*
Y154216D01*
X366580D01*
Y156630D01*
X333580D01*
Y131630D01*
X366580D01*
Y134044D01*
X416514D01*
Y119110D01*
X415325Y117050D01*
X414500Y113973D01*
Y110787D01*
X415325Y107710D01*
X416918Y104950D01*
X419170Y102698D01*
X421930Y101105D01*
X425007Y100280D01*
X428193D01*
X431270Y101105D01*
X434030Y102698D01*
X436282Y104950D01*
X437875Y107710D01*
X438700Y110787D01*
X439900D01*
X440725Y107710D01*
X442318Y104950D01*
X444570Y102698D01*
X447330Y101105D01*
X450407Y100280D01*
X453593D01*
X456670Y101105D01*
X459430Y102698D01*
X461682Y104950D01*
X462734Y106772D01*
X466666D01*
X467718Y104950D01*
X469970Y102698D01*
X472730Y101105D01*
X475807Y100280D01*
X478993D01*
X482070Y101105D01*
X484830Y102698D01*
X487082Y104950D01*
X488675Y107710D01*
X489500Y110787D01*
X490700D01*
X491525Y107710D01*
X493118Y104950D01*
X495370Y102698D01*
X498130Y101105D01*
X501207Y100280D01*
X504393D01*
X507470Y101105D01*
X510230Y102698D01*
X512482Y104950D01*
X514075Y107710D01*
X514900Y110787D01*
X516100D01*
X516925Y107710D01*
X518518Y104950D01*
X520770Y102698D01*
X523530Y101105D01*
X526607Y100280D01*
X529793D01*
X532870Y101105D01*
X535630Y102698D01*
X537882Y104950D01*
X539475Y107710D01*
X540300Y110787D01*
X541500D01*
X542325Y107710D01*
X542710Y107042D01*
Y98971D01*
X367850D01*
Y102020D01*
X360961D01*
Y112753D01*
X361116Y113021D01*
X361900Y115946D01*
Y118974D01*
X361116Y121899D01*
X359602Y124521D01*
X357461Y126662D01*
X354839Y128176D01*
X351914Y128960D01*
X348886D01*
X345961Y128176D01*
X343339Y126662D01*
X341198Y124521D01*
X339684Y121899D01*
X338900Y118974D01*
Y115946D01*
X339684Y113021D01*
X340789Y111107D01*
Y102020D01*
X334850D01*
Y77020D01*
X367850D01*
Y78799D01*
X618700D01*
Y75750D01*
X651700D01*
Y100750D01*
X618700D01*
Y98971D01*
X562883D01*
Y104551D01*
X563282Y104950D01*
X564875Y107710D01*
X565700Y110787D01*
Y113973D01*
X564875Y117050D01*
X563282Y119810D01*
X561030Y122062D01*
X558270Y123655D01*
X555193Y124480D01*
X552007D01*
X548930Y123655D01*
X546170Y122062D01*
X543918Y119810D01*
X542325Y117050D01*
X541500Y113973D01*
X540300D01*
X539475Y117050D01*
X537882Y119810D01*
X535630Y122062D01*
X532870Y123655D01*
X529793Y124480D01*
X526607D01*
X523530Y123655D01*
X520770Y122062D01*
X518518Y119810D01*
X516925Y117050D01*
X516100Y113973D01*
X514900D01*
X514075Y117050D01*
X512482Y119810D01*
X510230Y122062D01*
X507470Y123655D01*
X504393Y124480D01*
X501207D01*
X498130Y123655D01*
X495370Y122062D01*
X493118Y119810D01*
X491525Y117050D01*
X490700Y113973D01*
X489500D01*
X488675Y117050D01*
X487082Y119810D01*
X484830Y122062D01*
X482070Y123655D01*
X478993Y124480D01*
X475807D01*
X472730Y123655D01*
X469970Y122062D01*
X467718Y119810D01*
X466666Y117988D01*
X462734D01*
X461682Y119810D01*
X459430Y122062D01*
X456670Y123655D01*
X453593Y124480D01*
X450407D01*
X447330Y123655D01*
X444570Y122062D01*
X442318Y119810D01*
X440725Y117050D01*
X439900Y113973D01*
X438700D01*
X437875Y117050D01*
X436686Y119110D01*
Y134044D01*
X619020D01*
Y131630D01*
X625749D01*
Y121174D01*
X625434Y120629D01*
X624650Y117704D01*
Y114676D01*
X625434Y111751D01*
X626948Y109129D01*
X629089Y106988D01*
X631711Y105474D01*
X634636Y104690D01*
X637664D01*
X640589Y105474D01*
X643211Y106988D01*
X645352Y109129D01*
X646866Y111751D01*
X647650Y114676D01*
Y117704D01*
X646866Y120629D01*
X645921Y122266D01*
Y131630D01*
X652020D01*
Y156630D01*
D02*
G37*
G36*
X147930Y175578D02*
X143065D01*
Y152385D01*
X154758D01*
Y168750D01*
X154526Y170517D01*
X153844Y172164D01*
X152758Y173578D01*
X151344Y174664D01*
X149697Y175346D01*
X147930Y175578D01*
D02*
G37*
G36*
X81795Y151115D02*
X70054D01*
Y140250D01*
X70476Y137047D01*
X71712Y134062D01*
X73679Y131499D01*
X76242Y129532D01*
X79227Y128296D01*
X81795Y127958D01*
Y151115D01*
D02*
G37*
G36*
X154758D02*
X143065D01*
Y127922D01*
X147930D01*
X149697Y128154D01*
X151344Y128836D01*
X152758Y129922D01*
X153844Y131336D01*
X154526Y132983D01*
X154758Y134750D01*
Y151115D01*
D02*
G37*
G36*
X52875Y363205D02*
X6740D01*
Y312070D01*
X25354D01*
Y272400D01*
X25697Y269790D01*
X26705Y267357D01*
X28308Y265268D01*
X41008Y252568D01*
X43097Y250965D01*
X45529Y249957D01*
X48140Y249614D01*
X62430D01*
Y248430D01*
X71144D01*
Y168066D01*
X70476Y166453D01*
X70054Y163250D01*
Y152385D01*
X82430D01*
Y151750D01*
X83065D01*
Y127958D01*
X85633Y128296D01*
X88618Y129532D01*
X91181Y131499D01*
X93148Y134062D01*
X94384Y137047D01*
X94806Y140250D01*
Y141664D01*
X130102D01*
Y134750D01*
X130334Y132983D01*
X131016Y131336D01*
X132102Y129922D01*
X133516Y128836D01*
X135163Y128154D01*
X136930Y127922D01*
X141795D01*
Y151750D01*
Y175578D01*
X136930D01*
X135163Y175346D01*
X133516Y174664D01*
X132102Y173578D01*
X131016Y172164D01*
X130334Y170517D01*
X130102Y168750D01*
Y161836D01*
X94806D01*
Y163250D01*
X94384Y166453D01*
X93148Y169438D01*
X91316Y171825D01*
Y248430D01*
X104970D01*
Y259065D01*
X83700D01*
Y259700D01*
X83065D01*
Y270970D01*
X62430D01*
Y269786D01*
X52318D01*
X45526Y276578D01*
Y312070D01*
X52875D01*
Y363205D01*
D02*
G37*
G36*
X235900Y235880D02*
X210900D01*
Y202880D01*
X212044D01*
Y177518D01*
X148862Y114336D01*
X137557D01*
X137088Y114908D01*
X134804Y116782D01*
X132198Y118175D01*
X129370Y119033D01*
X126430Y119323D01*
X103430D01*
X100490Y119033D01*
X97662Y118175D01*
X95056Y116782D01*
X92772Y114908D01*
X90898Y112624D01*
X89505Y110018D01*
X88647Y107191D01*
X88357Y104250D01*
X88647Y101309D01*
X89505Y98482D01*
X90898Y95876D01*
X92772Y93592D01*
X95056Y91718D01*
X97662Y90325D01*
X100490Y89467D01*
X103430Y89177D01*
X126430D01*
X129370Y89467D01*
X132198Y90325D01*
X134804Y91718D01*
X137088Y93592D01*
X137557Y94164D01*
X153040D01*
X155651Y94507D01*
X158083Y95515D01*
X160172Y97118D01*
X229262Y166208D01*
X230865Y168297D01*
X231873Y170730D01*
X232216Y173340D01*
Y202880D01*
X235900D01*
Y235880D01*
D02*
G37*
G36*
X402434Y121750D02*
X401835D01*
Y113015D01*
X410570D01*
Y113614D01*
X409931Y115997D01*
X408698Y118133D01*
X406953Y119878D01*
X404817Y121111D01*
X402434Y121750D01*
D02*
G37*
G36*
X588370D02*
X579635D01*
Y113015D01*
X588370D01*
Y121750D01*
D02*
G37*
G36*
X400565D02*
X399966D01*
X397583Y121111D01*
X395447Y119878D01*
X393702Y118133D01*
X392469Y115997D01*
X391830Y113614D01*
Y113015D01*
X400565D01*
Y121750D01*
D02*
G37*
G36*
X578365D02*
X569630D01*
Y113015D01*
X578365D01*
Y121750D01*
D02*
G37*
G36*
X588370Y111745D02*
X579635D01*
Y103010D01*
X588370D01*
Y111745D01*
D02*
G37*
G36*
X578365D02*
X569630D01*
Y103010D01*
X578365D01*
Y111745D01*
D02*
G37*
G36*
X410570D02*
X401835D01*
Y103010D01*
X402434D01*
X404817Y103649D01*
X406953Y104882D01*
X408698Y106627D01*
X409931Y108763D01*
X410570Y111146D01*
Y111745D01*
D02*
G37*
G36*
X400565D02*
X391830D01*
Y111146D01*
X392469Y108763D01*
X393702Y106627D01*
X395447Y104882D01*
X397583Y103649D01*
X399966Y103010D01*
X400565D01*
Y111745D01*
D02*
G37*
G36*
X491334Y70950D02*
X490735D01*
Y62215D01*
X499470D01*
Y62814D01*
X498831Y65197D01*
X497598Y67333D01*
X495853Y69078D01*
X493717Y70311D01*
X491334Y70950D01*
D02*
G37*
G36*
X489465D02*
X488866D01*
X486483Y70311D01*
X484347Y69078D01*
X482602Y67333D01*
X481369Y65197D01*
X480730Y62814D01*
Y62215D01*
X489465D01*
Y70950D01*
D02*
G37*
G36*
X499470Y60945D02*
X490735D01*
Y52210D01*
X491334D01*
X493717Y52849D01*
X495853Y54082D01*
X497598Y55827D01*
X498831Y57963D01*
X499470Y60346D01*
Y60945D01*
D02*
G37*
G36*
X489465D02*
X480730D01*
Y60346D01*
X481369Y57963D01*
X482602Y55827D01*
X484347Y54082D01*
X486483Y52849D01*
X488866Y52210D01*
X489465D01*
Y60945D01*
D02*
G37*
G36*
X351914Y74350D02*
X348886D01*
X345961Y73566D01*
X343339Y72052D01*
X341198Y69911D01*
X339684Y67289D01*
X338900Y64364D01*
Y61336D01*
X339684Y58411D01*
X340314Y57320D01*
Y47410D01*
X333900D01*
Y22410D01*
X366900D01*
Y26620D01*
X367338Y26802D01*
X368412Y27625D01*
X558025D01*
X558455Y27065D01*
X560752Y25301D01*
X563428Y24193D01*
X566300Y23815D01*
X618700D01*
Y22410D01*
X651700D01*
Y47410D01*
X618700D01*
Y46005D01*
X577395D01*
Y56597D01*
X577575Y56910D01*
X578400Y59987D01*
Y63173D01*
X577575Y66250D01*
X575982Y69010D01*
X573730Y71262D01*
X570970Y72855D01*
X567893Y73680D01*
X564707D01*
X561630Y72855D01*
X558870Y71262D01*
X556618Y69010D01*
X555025Y66250D01*
X554200Y63173D01*
X553000D01*
X552175Y66250D01*
X550582Y69010D01*
X548330Y71262D01*
X545570Y72855D01*
X542493Y73680D01*
X539307D01*
X536230Y72855D01*
X533470Y71262D01*
X531218Y69010D01*
X529625Y66250D01*
X528800Y63173D01*
X527600D01*
X526775Y66250D01*
X525182Y69010D01*
X522930Y71262D01*
X520170Y72855D01*
X517093Y73680D01*
X513907D01*
X510830Y72855D01*
X508070Y71262D01*
X505818Y69010D01*
X504225Y66250D01*
X503400Y63173D01*
Y59987D01*
X504225Y56910D01*
X505818Y54150D01*
X508070Y51898D01*
X509478Y51085D01*
X509138Y49815D01*
X471062D01*
X470722Y51085D01*
X472130Y51898D01*
X474382Y54150D01*
X475975Y56910D01*
X476800Y59987D01*
Y63173D01*
X475975Y66250D01*
X474382Y69010D01*
X472130Y71262D01*
X469370Y72855D01*
X466293Y73680D01*
X463107D01*
X460030Y72855D01*
X457270Y71262D01*
X455018Y69010D01*
X453425Y66250D01*
X452600Y63173D01*
X451400D01*
X450575Y66250D01*
X448982Y69010D01*
X446730Y71262D01*
X443970Y72855D01*
X440893Y73680D01*
X437707D01*
X434630Y72855D01*
X431870Y71262D01*
X429618Y69010D01*
X428025Y66250D01*
X427200Y63173D01*
X426000D01*
X425175Y66250D01*
X423582Y69010D01*
X421330Y71262D01*
X418570Y72855D01*
X415493Y73680D01*
X412307D01*
X409230Y72855D01*
X407170Y71666D01*
X382600D01*
X381509Y72296D01*
X378584Y73080D01*
X375556D01*
X372631Y72296D01*
X370009Y70782D01*
X367868Y68641D01*
X366354Y66019D01*
X365570Y63094D01*
Y60066D01*
X366354Y57141D01*
X367868Y54519D01*
X370009Y52378D01*
X372248Y51085D01*
X371908Y49815D01*
X364101D01*
X361756Y49506D01*
X360486Y50363D01*
Y57320D01*
X361116Y58411D01*
X361900Y61336D01*
Y64364D01*
X361116Y67289D01*
X359602Y69911D01*
X357461Y72052D01*
X354839Y73566D01*
X351914Y74350D01*
D02*
G37*
G36*
X326270Y219328D02*
X293250D01*
X291689Y219018D01*
X290366Y218134D01*
X289482Y216811D01*
X289172Y215250D01*
Y182156D01*
X271660D01*
X269049Y181813D01*
X266617Y180805D01*
X264528Y179202D01*
X262925Y177113D01*
X261917Y174681D01*
X261574Y172070D01*
X261917Y169459D01*
X262925Y167027D01*
X264528Y164938D01*
X266617Y163335D01*
X269049Y162327D01*
X271660Y161984D01*
X289172D01*
Y41320D01*
X289164Y41260D01*
X289172Y41200D01*
Y18400D01*
X289482Y16839D01*
X290366Y15516D01*
X291689Y14632D01*
X293250Y14322D01*
X326270D01*
X327831Y14632D01*
X329154Y15516D01*
X330038Y16839D01*
X330348Y18400D01*
Y215250D01*
X330038Y216811D01*
X329154Y218134D01*
X327831Y219018D01*
X326270Y219328D01*
D02*
G37*
G36*
X981020Y53640D02*
X977080D01*
X973216Y52871D01*
X969576Y51364D01*
X966301Y49175D01*
X963515Y46389D01*
X961326Y43113D01*
X959819Y39474D01*
X959050Y35610D01*
Y31670D01*
X959819Y27806D01*
X961326Y24166D01*
X963515Y20891D01*
X966301Y18105D01*
X969576Y15916D01*
X973216Y14409D01*
X977080Y13640D01*
X981020D01*
X984884Y14409D01*
X988523Y15916D01*
X991799Y18105D01*
X994585Y20891D01*
X996774Y24166D01*
X998281Y27806D01*
X999050Y31670D01*
Y35610D01*
X998281Y39474D01*
X996774Y43113D01*
X994585Y46389D01*
X991799Y49175D01*
X988523Y51364D01*
X984884Y52871D01*
X981020Y53640D01*
D02*
G37*
G36*
X36140D02*
X32200D01*
X28336Y52871D01*
X24697Y51364D01*
X21421Y49175D01*
X18635Y46389D01*
X16446Y43113D01*
X14939Y39474D01*
X14170Y35610D01*
Y31670D01*
X14939Y27806D01*
X16446Y24166D01*
X18635Y20891D01*
X21421Y18105D01*
X24697Y15916D01*
X28336Y14409D01*
X32200Y13640D01*
X36140D01*
X40004Y14409D01*
X43643Y15916D01*
X46919Y18105D01*
X49705Y20891D01*
X51894Y24166D01*
X53401Y27806D01*
X54170Y31670D01*
Y35610D01*
X53401Y39474D01*
X51894Y43113D01*
X49705Y46389D01*
X46919Y49175D01*
X43643Y51364D01*
X40004Y52871D01*
X36140Y53640D01*
D02*
G37*
G36*
X811910Y48689D02*
X808370D01*
X804898Y47998D01*
X801628Y46644D01*
X798685Y44677D01*
X796182Y42174D01*
X794215Y39231D01*
X792861Y35961D01*
X792170Y32489D01*
Y28949D01*
X792861Y25477D01*
X794215Y22207D01*
X796182Y19264D01*
X798685Y16761D01*
X801628Y14794D01*
X804898Y13440D01*
X808370Y12749D01*
X811910D01*
X815382Y13440D01*
X818652Y14794D01*
X821595Y16761D01*
X824098Y19264D01*
X826065Y22207D01*
X827419Y25477D01*
X828110Y28949D01*
Y32489D01*
X827419Y35961D01*
X826065Y39231D01*
X824098Y42174D01*
X821595Y44677D01*
X818652Y46644D01*
X815382Y47998D01*
X811910Y48689D01*
D02*
G37*
G36*
X761110D02*
X757570D01*
X754098Y47998D01*
X750828Y46644D01*
X747885Y44677D01*
X745382Y42174D01*
X743415Y39231D01*
X742061Y35961D01*
X741370Y32489D01*
Y28949D01*
X742061Y25477D01*
X743415Y22207D01*
X745382Y19264D01*
X747885Y16761D01*
X750828Y14794D01*
X754098Y13440D01*
X757570Y12749D01*
X761110D01*
X764582Y13440D01*
X767852Y14794D01*
X770795Y16761D01*
X773298Y19264D01*
X775265Y22207D01*
X776619Y25477D01*
X777310Y28949D01*
Y32489D01*
X776619Y35961D01*
X775265Y39231D01*
X773298Y42174D01*
X770795Y44677D01*
X767852Y46644D01*
X764582Y47998D01*
X761110Y48689D01*
D02*
G37*
G36*
X225170D02*
X221630D01*
X218158Y47998D01*
X214888Y46644D01*
X211945Y44677D01*
X209442Y42174D01*
X207475Y39231D01*
X206121Y35961D01*
X205430Y32489D01*
Y28949D01*
X206121Y25477D01*
X207475Y22207D01*
X209442Y19264D01*
X211945Y16761D01*
X214888Y14794D01*
X218158Y13440D01*
X221630Y12749D01*
X225170D01*
X228642Y13440D01*
X231912Y14794D01*
X234855Y16761D01*
X237358Y19264D01*
X239325Y22207D01*
X240679Y25477D01*
X241370Y28949D01*
Y32489D01*
X240679Y35961D01*
X239325Y39231D01*
X237358Y42174D01*
X234855Y44677D01*
X231912Y46644D01*
X228642Y47998D01*
X225170Y48689D01*
D02*
G37*
G36*
X174370D02*
X170830D01*
X167358Y47998D01*
X164088Y46644D01*
X161145Y44677D01*
X158642Y42174D01*
X156675Y39231D01*
X155321Y35961D01*
X154630Y32489D01*
Y28949D01*
X155321Y25477D01*
X156675Y22207D01*
X158642Y19264D01*
X161145Y16761D01*
X164088Y14794D01*
X167358Y13440D01*
X170830Y12749D01*
X174370D01*
X177842Y13440D01*
X181112Y14794D01*
X184055Y16761D01*
X186558Y19264D01*
X188525Y22207D01*
X189879Y25477D01*
X190570Y28949D01*
Y32489D01*
X189879Y35961D01*
X188525Y39231D01*
X186558Y42174D01*
X184055Y44677D01*
X181112Y46644D01*
X177842Y47998D01*
X174370Y48689D01*
D02*
G37*
G36*
X901890Y30130D02*
X898730D01*
X895678Y29312D01*
X892942Y27732D01*
X890708Y25498D01*
X889128Y22762D01*
X888310Y19710D01*
Y16550D01*
X889128Y13498D01*
X890708Y10762D01*
X892942Y8528D01*
X895678Y6948D01*
X898730Y6130D01*
X901890D01*
X904942Y6948D01*
X907678Y8528D01*
X909912Y10762D01*
X911492Y13498D01*
X912310Y16550D01*
Y19710D01*
X911492Y22762D01*
X909912Y25498D01*
X907678Y27732D01*
X904942Y29312D01*
X901890Y30130D01*
D02*
G37*
G36*
X886910D02*
X862910D01*
Y6130D01*
X886910D01*
Y30130D01*
D02*
G37*
G36*
X797390Y590280D02*
X796805D01*
Y581645D01*
X805440D01*
Y582230D01*
X804808Y584588D01*
X803588Y586702D01*
X801862Y588428D01*
X799748Y589648D01*
X797390Y590280D01*
D02*
G37*
G36*
X771990D02*
X771405D01*
Y581645D01*
X780040D01*
Y582230D01*
X779408Y584588D01*
X778188Y586702D01*
X776462Y588428D01*
X774348Y589648D01*
X771990Y590280D01*
D02*
G37*
G36*
X795535D02*
X794950D01*
X792592Y589648D01*
X790478Y588428D01*
X788752Y586702D01*
X787532Y584588D01*
X786900Y582230D01*
Y581645D01*
X795535D01*
Y590280D01*
D02*
G37*
G36*
X770135D02*
X769550D01*
X767192Y589648D01*
X765078Y588428D01*
X763352Y586702D01*
X762132Y584588D01*
X761500Y582230D01*
Y581645D01*
X770135D01*
Y590280D01*
D02*
G37*
G36*
X805440Y580375D02*
X796805D01*
Y571740D01*
X797390D01*
X799748Y572372D01*
X801862Y573592D01*
X803588Y575318D01*
X804808Y577432D01*
X805440Y579790D01*
Y580375D01*
D02*
G37*
G36*
X795535D02*
X786900D01*
Y579790D01*
X787532Y577432D01*
X788752Y575318D01*
X790478Y573592D01*
X792592Y572372D01*
X794950Y571740D01*
X795535D01*
Y580375D01*
D02*
G37*
G36*
X780040D02*
X771405D01*
Y571740D01*
X771990D01*
X774348Y572372D01*
X776462Y573592D01*
X778188Y575318D01*
X779408Y577432D01*
X780040Y579790D01*
Y580375D01*
D02*
G37*
G36*
X770135D02*
X761500D01*
Y579790D01*
X762132Y577432D01*
X763352Y575318D01*
X765078Y573592D01*
X767192Y572372D01*
X769550Y571740D01*
X770135D01*
Y580375D01*
D02*
G37*
%LPD*%
D11*
X617100Y272400D02*
X678060Y333360D01*
Y395710D01*
X692900Y408650D02*
X706450D01*
X683960Y399710D02*
X692900Y408650D01*
X681810Y399710D02*
X683960D01*
X678060Y395960D02*
X681810Y399710D01*
X678060Y395710D02*
Y395960D01*
X686950Y238110D02*
Y394320D01*
X696000Y403370D01*
X697230Y398250D02*
X706050D01*
X690950Y262050D02*
Y391970D01*
X697230Y398250D01*
X696000Y403370D02*
X706170D01*
X706450Y403650D01*
X500380Y403121D02*
Y410180D01*
X497519Y400260D02*
X500380Y403121D01*
X486480Y396331D02*
X490409Y400260D01*
X497519D01*
X486480Y394260D02*
Y396331D01*
X482480Y390510D02*
X482730D01*
X486480Y394260D01*
X810140Y114920D02*
X990480D01*
X686950Y238110D02*
X810140Y114920D01*
X724732Y320342D02*
X744100Y339710D01*
Y360484D01*
X749180Y313040D02*
Y361300D01*
X755530Y330820D02*
Y360607D01*
X749180Y313040D02*
X820300Y241920D01*
X821570Y264780D02*
X984368D01*
X755530Y330820D02*
X821570Y264780D01*
X763150Y347330D02*
X817760Y292720D01*
X751050Y365087D02*
Y374050D01*
X763150Y347330D02*
Y359267D01*
X745650Y364830D02*
X749180Y361300D01*
X817760Y292720D02*
X990480D01*
X756050Y366367D02*
X763150Y359267D01*
X751050Y365087D02*
X755530Y360607D01*
X756050Y366367D02*
Y374050D01*
X755650Y374450D02*
X756050Y374050D01*
X740050Y364534D02*
X744100Y360484D01*
X745650Y364830D02*
Y374450D01*
X724732Y310818D02*
Y320342D01*
X740250Y374050D02*
X740650Y374450D01*
X740050Y366828D02*
X740250Y367028D01*
X740050Y364534D02*
Y366828D01*
X724732Y310818D02*
X819030Y216520D01*
X740250Y367028D02*
Y374050D01*
X820300Y241920D02*
X990480D01*
X819030Y216520D02*
X990480D01*
X703460Y304150D02*
Y356220D01*
Y304150D02*
X816490Y191120D01*
X990480D01*
X694950Y285990D02*
X815220Y165720D01*
X990480D01*
X694950Y285990D02*
Y388200D01*
X690950Y262050D02*
X812680Y140320D01*
X990480D01*
X750650Y374450D02*
X751050Y374050D01*
X986908Y267320D02*
X990480D01*
X984368Y264780D02*
X986908Y267320D01*
X725250Y368700D02*
X725650Y369100D01*
X703460Y356220D02*
X715940Y368700D01*
X725650Y369100D02*
Y374450D01*
X715940Y368700D02*
X725250D01*
X694950Y388200D02*
X700400Y393650D01*
X706450D01*
X706050Y398250D02*
X706450Y398650D01*
D13*
X482480Y469490D02*
X482720Y469250D01*
X482480Y469490D02*
Y489570D01*
Y372730D02*
Y390510D01*
X530870D02*
X546110Y375270D01*
X530620Y390510D02*
X530870D01*
X546110Y375270D02*
X569080D01*
X797419Y455259D02*
Y459069D01*
X802000Y463650D01*
X792360Y450200D02*
X797419Y455259D01*
X770770Y394320D02*
X780650Y384440D01*
Y374450D02*
Y384440D01*
X801250Y540240D02*
Y540490D01*
X794238Y533228D02*
X801250Y540240D01*
X791568Y533228D02*
X794238D01*
X791090Y532750D02*
X791568Y533228D01*
X515500Y440040D02*
X517840Y442380D01*
X535305D01*
X515500Y436230D02*
Y440040D01*
X514230Y418450D02*
Y422260D01*
X650370Y372730D02*
X660825Y383185D01*
X650120Y372730D02*
X650370D01*
X495380Y442380D02*
X499625Y438135D01*
X706450Y413650D02*
X725330D01*
X852644Y441310D02*
X853320D01*
X849984Y438650D02*
X852644Y441310D01*
X462160Y680070D02*
X535820D01*
X842960Y443650D02*
X848240Y448930D01*
X797440Y502270D02*
X821570Y526400D01*
X854590Y565784D02*
Y704200D01*
X805046Y516240D02*
X854590Y565784D01*
X821570Y526400D02*
X892690D01*
X776004Y516240D02*
X805046D01*
X836810Y555610D02*
Y729600D01*
X806330Y525130D02*
X836810Y555610D01*
X777120Y525130D02*
X806330D01*
X907736Y516240D02*
X917336Y506639D01*
X892690Y526400D02*
X911740Y545450D01*
X822840Y516240D02*
X907736D01*
X800800Y494200D02*
X822840Y516240D01*
X917336Y464924D02*
Y506639D01*
X755800Y496036D02*
X776004Y516240D01*
X852644Y431150D02*
X853320D01*
X819850Y433650D02*
X850144D01*
X852644Y431150D01*
X819850Y438650D02*
X849984D01*
X819850Y443650D02*
X842960D01*
X837123Y448650D02*
X839943Y451470D01*
X840620D01*
X819850Y448650D02*
X837123D01*
X884240Y458650D02*
X934600Y408290D01*
X948570D01*
X819850Y458650D02*
X884240D01*
X835030Y463650D02*
X843160Y471780D01*
X819850Y463650D02*
X835030D01*
X843160Y471780D02*
Y472030D01*
X825380Y468300D02*
X829922Y472842D01*
Y482488D02*
X834464Y487030D01*
X843160D01*
X829922Y472842D02*
Y482488D01*
X725330Y413650D02*
X727590Y415910D01*
X693580Y413650D02*
X706450D01*
X782200Y408290D02*
X795650Y394840D01*
Y374450D02*
Y394840D01*
X730650Y374450D02*
Y394840D01*
X740290Y404480D01*
X727590Y415910D02*
Y424800D01*
X732670Y429880D01*
X740290Y461630D02*
X747910D01*
X730650Y471270D02*
Y473810D01*
Y471270D02*
X740290Y461630D01*
X730650Y473810D02*
X730650Y476097D01*
Y487850D01*
X802000Y463650D02*
X819850D01*
X725050Y511160D02*
Y526400D01*
X488180Y442380D02*
X495380D01*
X514230Y418450D02*
X515380Y417300D01*
Y410180D02*
Y417300D01*
X535305Y442380D02*
X539945Y437740D01*
X548520D01*
Y418330D02*
Y437740D01*
X528200Y392930D02*
Y399400D01*
Y392930D02*
X530620Y390510D01*
X521314Y399400D02*
X528200D01*
X515430Y405284D02*
X521314Y399400D01*
X515380Y410180D02*
X515430Y410130D01*
Y405284D02*
Y410130D01*
X497730Y390510D02*
X505380Y398160D01*
Y410180D01*
X497480Y390510D02*
X497730D01*
X505380Y410180D02*
Y419720D01*
X876885Y596834D02*
X877450Y597400D01*
X870415Y596834D02*
X876885D01*
X863480Y589900D02*
X870415Y596834D01*
X863480Y574660D02*
Y589900D01*
X877450Y597400D02*
Y617840D01*
X917336Y464924D02*
X948570Y433690D01*
X76080Y386410D02*
X87510Y397840D01*
X150510D01*
X693300Y475750D02*
X700400Y468650D01*
X706450D01*
X682368Y465265D02*
Y483992D01*
X675640Y490720D02*
X682368Y483992D01*
X679550Y434228D02*
X694439D01*
X682546Y440040D02*
X683859Y438728D01*
X663404Y441296D02*
X672483D01*
X679550Y434228D01*
X681870Y440040D02*
X682546D01*
X683859Y438728D02*
X706372D01*
X706450Y438650D01*
X685969Y447677D02*
X689955Y443691D01*
X660697Y447677D02*
X685969D01*
X651390Y438370D02*
X660697Y447677D01*
X584080Y372730D02*
Y443850D01*
X592800Y452570D01*
X688249D01*
X692170Y448650D01*
X706450D01*
X584080Y372730D02*
X585350Y371460D01*
Y337170D02*
Y371460D01*
X545980Y400790D02*
X548520Y403330D01*
X545980Y387970D02*
Y400790D01*
X515500Y469490D02*
Y498460D01*
X530740Y469250D02*
Y489570D01*
X650120Y372730D02*
X651390Y371460D01*
X660825Y383185D02*
Y403755D01*
X667780Y410710D01*
X568840Y363840D02*
Y372490D01*
X569080Y372730D01*
X528200Y563230D02*
X722510D01*
X747910Y537830D01*
X515500Y550530D02*
X528200Y563230D01*
X749180Y602600D02*
X752990Y606410D01*
X770770D01*
X749180Y565965D02*
Y602600D01*
X813950Y606410D02*
X819030Y601330D01*
Y565965D02*
Y601330D01*
X796170Y606410D02*
X813950D01*
X749180Y565965D02*
X750645Y564500D01*
X757950D01*
X763210Y559240D02*
X763460D01*
X766960Y555740D01*
X757950Y564500D02*
X763210Y559240D01*
X836810Y729600D02*
X857130Y749920D01*
X528200Y542910D02*
X722510D01*
X735650Y529770D01*
X498990Y513700D02*
X528200Y542910D01*
X651390Y394320D02*
Y438370D01*
X650120Y393050D02*
X651390Y394320D01*
X541945Y804305D02*
X542170Y804530D01*
X677192Y429478D02*
X692825D01*
X664844Y432150D02*
X674520D01*
X692825Y429478D02*
X693652Y428650D01*
X674520Y432150D02*
X677192Y429478D01*
X663375Y441267D02*
X663404Y441296D01*
X694439Y434228D02*
X695016Y433650D01*
X663728Y431035D02*
X664844Y432150D01*
X683833Y463800D02*
X706300D01*
X682368Y465265D02*
X683833Y463800D01*
X706300D02*
X706450Y463650D01*
X657343Y431035D02*
X663728D01*
X670440Y426070D02*
X670918Y425592D01*
X674714D01*
X664501Y420131D02*
X689444D01*
X664090Y419720D02*
X664501Y420131D01*
X689955Y443691D02*
X706408D01*
X675676Y424631D02*
X691308D01*
X674714Y425592D02*
X675676Y424631D01*
X740650Y508980D02*
X747910Y516240D01*
Y537830D01*
X740650Y487850D02*
Y508980D01*
X735650Y487850D02*
Y529770D01*
X766960Y555490D02*
Y555740D01*
X150510Y397840D02*
X150800Y398130D01*
X192920Y447720D02*
X194190Y448990D01*
X674570Y827448D02*
X674890Y827128D01*
X810010Y564500D02*
X817566D01*
X819030Y565965D01*
X801250Y555740D02*
X810010Y564500D01*
X801250Y555490D02*
Y555740D01*
X667780Y410710D02*
X670078D01*
X670078Y410710D01*
X678060D01*
X780500Y374300D02*
X780650Y374450D01*
X695016Y433650D02*
X706450D01*
X706408Y443691D02*
X706450Y443650D01*
X693652Y428650D02*
X706450D01*
X689444Y420131D02*
X690925Y418650D01*
X691308Y424631D02*
X692289Y423650D01*
X706450D01*
X690925Y418650D02*
X706450D01*
X913010Y556170D02*
X913570Y555610D01*
X938410D01*
X947300Y564500D01*
Y583670D01*
X911740Y545450D02*
Y554900D01*
X913010Y556170D01*
X546100Y405750D02*
X548520Y403330D01*
X537090Y407215D02*
Y414640D01*
X538554Y405750D02*
X546100D01*
X537090Y407215D02*
X538554Y405750D01*
X534350Y417380D02*
X537090Y414640D01*
X527580Y417380D02*
X534350D01*
X515500Y469490D02*
X515740Y469250D01*
X515500Y469010D02*
X515740Y469250D01*
X543615Y456490D02*
X545020D01*
X517734Y456780D02*
X543326D01*
X543615Y456490D01*
X545020D02*
X545930Y455580D01*
X515430Y454476D02*
X517734Y456780D01*
X545930Y454190D02*
Y455580D01*
X515380Y449580D02*
X515430Y449630D01*
Y454476D01*
X510420Y401940D02*
Y404480D01*
X514230Y391900D02*
Y398130D01*
X510420Y401940D02*
X514230Y398130D01*
X510380Y404520D02*
X510420Y404480D01*
X510380Y404520D02*
Y410180D01*
X514230Y391900D02*
X515620Y390510D01*
X857130Y749920D02*
X948570D01*
X800650Y487850D02*
X800800Y488000D01*
Y494200D01*
X876180Y725790D02*
X949840D01*
X854590Y704200D02*
X876180Y725790D01*
X885780Y626170D02*
X913010D01*
X877450Y617840D02*
X885780Y626170D01*
X505340Y460360D02*
X514035D01*
X515500Y461824D02*
Y469010D01*
X514035Y460360D02*
X515500Y461824D01*
X500430Y455450D02*
X505340Y460360D01*
X500380Y449580D02*
X500430Y449630D01*
Y455450D01*
X495380Y459290D02*
X497720Y461630D01*
Y469250D01*
X495380Y449580D02*
Y459290D01*
X750650Y487850D02*
Y498660D01*
X777120Y525130D01*
X755800Y488000D02*
Y496036D01*
X755650Y487850D02*
X755800Y488000D01*
X766960Y522590D02*
Y540490D01*
X745650Y501280D02*
X766960Y522590D01*
X745650Y487850D02*
Y501280D01*
X498990Y470520D02*
Y513700D01*
X497720Y469250D02*
X498990Y470520D01*
X661430Y490720D02*
X675640D01*
X660280D02*
X661430D01*
X719970Y499580D02*
Y499730D01*
X725650Y487850D02*
Y493900D01*
X719970Y499580D02*
X725650Y493900D01*
X730650Y487850D02*
Y499210D01*
X648472Y463662D02*
X660280Y475470D01*
Y475720D01*
X637420Y463662D02*
X648472D01*
X877450Y565770D02*
Y582400D01*
Y565770D02*
X887050Y556170D01*
X913010D01*
X634350Y371960D02*
X635120Y372730D01*
X634350Y337170D02*
Y371960D01*
X635120Y372730D02*
Y393050D01*
X730650Y361820D02*
Y374450D01*
X735650Y362570D02*
Y374450D01*
X795650Y363090D02*
Y374450D01*
X800650Y363170D02*
Y374450D01*
D17*
X137040Y448990D02*
D03*
Y519990D02*
D03*
D18*
X154700Y259700D02*
D03*
X83700D02*
D03*
D19*
X304680Y667370D02*
D03*
X344680D02*
D03*
X305000Y721980D02*
D03*
X345000D02*
D03*
X305000Y776590D02*
D03*
X345000D02*
D03*
X305000Y829930D02*
D03*
X345000D02*
D03*
X310400Y34910D02*
D03*
X350400D02*
D03*
X311350Y89520D02*
D03*
X351350D02*
D03*
X310080Y144130D02*
D03*
X350080D02*
D03*
X310080Y198740D02*
D03*
X350080D02*
D03*
X673930Y829930D02*
D03*
X633930D02*
D03*
X675200Y776590D02*
D03*
X635200D02*
D03*
X675200Y721980D02*
D03*
X635200D02*
D03*
X675200Y667370D02*
D03*
X635200D02*
D03*
X675200Y34910D02*
D03*
X635200D02*
D03*
X675200Y88250D02*
D03*
X635200D02*
D03*
X675520Y144130D02*
D03*
X635520D02*
D03*
X675200Y197470D02*
D03*
X635200D02*
D03*
D20*
X637420Y463662D02*
D03*
Y499730D02*
D03*
X43060Y502778D02*
D03*
Y466710D02*
D03*
Y581772D02*
D03*
Y617840D02*
D03*
D21*
X650120Y393050D02*
D03*
X635120D02*
D03*
X66040Y634350D02*
D03*
X81040D02*
D03*
X635120Y375270D02*
D03*
X650120D02*
D03*
X789940Y349870D02*
D03*
X804940D02*
D03*
X718820D02*
D03*
X733820D02*
D03*
X482480Y390510D02*
D03*
X497480D02*
D03*
X515620D02*
D03*
X530620D02*
D03*
X725050Y511160D02*
D03*
X710050D02*
D03*
X584080Y375270D02*
D03*
X569080D02*
D03*
X497720Y469250D02*
D03*
X482720D02*
D03*
X515740D02*
D03*
X530740D02*
D03*
X67310Y448930D02*
D03*
X82310D02*
D03*
D22*
X865986Y469866D02*
D03*
Y488866D02*
D03*
D23*
X843160Y487030D02*
D03*
Y472030D02*
D03*
X877450Y582400D02*
D03*
Y597400D02*
D03*
X947300Y598670D02*
D03*
Y583670D02*
D03*
X678060Y395710D02*
D03*
Y410710D02*
D03*
X548520Y437740D02*
D03*
Y452740D02*
D03*
Y403330D02*
D03*
Y418330D02*
D03*
X660280Y475720D02*
D03*
Y490720D02*
D03*
X766960Y555490D02*
D03*
Y540490D02*
D03*
X801250D02*
D03*
Y555490D02*
D03*
D24*
X913010Y556170D02*
D03*
Y626170D02*
D03*
D25*
X217050Y446880D02*
D03*
Y429880D02*
D03*
X147200Y607290D02*
D03*
Y590290D02*
D03*
X121800Y607290D02*
D03*
Y590290D02*
D03*
X284360Y607290D02*
D03*
Y590290D02*
D03*
X258960Y607290D02*
D03*
Y590290D02*
D03*
D26*
X203080Y569790D02*
D03*
D27*
X180080Y627790D02*
D03*
X203080D02*
D03*
X226080D02*
D03*
D28*
X725650Y487850D02*
D03*
X730650D02*
D03*
X735650D02*
D03*
X740650D02*
D03*
X745650D02*
D03*
X750650D02*
D03*
X755650D02*
D03*
X760650D02*
D03*
X765650D02*
D03*
X770650D02*
D03*
X775650D02*
D03*
X780650D02*
D03*
X785650D02*
D03*
X790650D02*
D03*
X795650D02*
D03*
X800650D02*
D03*
Y374450D02*
D03*
X795650D02*
D03*
X790650D02*
D03*
X785650D02*
D03*
X780650D02*
D03*
X775650D02*
D03*
X770650D02*
D03*
X765650D02*
D03*
X760650D02*
D03*
X755650D02*
D03*
X750650D02*
D03*
X745650D02*
D03*
X740650D02*
D03*
X735650D02*
D03*
X730650D02*
D03*
X725650D02*
D03*
D29*
X819850Y468650D02*
D03*
Y463650D02*
D03*
Y458650D02*
D03*
Y453650D02*
D03*
Y448650D02*
D03*
Y443650D02*
D03*
Y438650D02*
D03*
Y433650D02*
D03*
Y428650D02*
D03*
Y423650D02*
D03*
Y418650D02*
D03*
Y413650D02*
D03*
Y408650D02*
D03*
Y403650D02*
D03*
Y398650D02*
D03*
Y393650D02*
D03*
X706450D02*
D03*
Y398650D02*
D03*
Y403650D02*
D03*
Y408650D02*
D03*
Y413650D02*
D03*
Y418650D02*
D03*
Y423650D02*
D03*
Y428650D02*
D03*
Y433650D02*
D03*
Y438650D02*
D03*
Y443650D02*
D03*
Y448650D02*
D03*
Y453650D02*
D03*
Y458650D02*
D03*
Y463650D02*
D03*
Y468650D02*
D03*
D30*
X495380Y449580D02*
D03*
X500380D02*
D03*
X505380D02*
D03*
X510380D02*
D03*
X515380D02*
D03*
X520380D02*
D03*
Y410180D02*
D03*
X515380D02*
D03*
X510380D02*
D03*
X505380D02*
D03*
X500380D02*
D03*
X495380D02*
D03*
D31*
X527580Y442380D02*
D03*
Y437380D02*
D03*
Y432380D02*
D03*
Y427380D02*
D03*
Y422380D02*
D03*
Y417380D02*
D03*
X488180D02*
D03*
Y422380D02*
D03*
Y427380D02*
D03*
Y432380D02*
D03*
Y437380D02*
D03*
Y442380D02*
D03*
D32*
X354680Y466710D02*
D03*
X254680D02*
D03*
D33*
X224670Y322250D02*
D03*
Y362250D02*
D03*
X223400Y259380D02*
D03*
Y219380D02*
D03*
D34*
X53510Y363840D02*
D03*
D35*
X150510Y397840D02*
D03*
Y380840D02*
D03*
Y363840D02*
D03*
Y346840D02*
D03*
Y329840D02*
D03*
D72*
X692020Y528940D02*
X709800Y511160D01*
X710050D01*
X637420Y528940D02*
X692020D01*
X436750Y391250D02*
X437490Y390510D01*
X482480D01*
X437250Y469250D02*
X482720D01*
X436750Y468750D02*
X437250Y469250D01*
X863704Y378315D02*
X864245D01*
X862704Y379315D02*
X863704Y378315D01*
X862575Y379315D02*
X862704D01*
X828340Y413550D02*
X862575Y379315D01*
X819850Y413650D02*
X819950Y413550D01*
X837960Y423650D02*
X853320Y408290D01*
X841850Y428650D02*
X853320Y417180D01*
X819850Y418650D02*
X821921D01*
X819950Y413550D02*
X828340D01*
X819850Y423650D02*
X837960D01*
X831800Y428650D02*
X841850D01*
X821921Y418650D02*
X822021Y418550D01*
X832900D01*
X855860Y395590D01*
X819850Y428650D02*
X831800Y428650D01*
X254680Y463990D02*
X255150Y463520D01*
X698380Y499730D02*
X711080D01*
X693300Y494650D02*
X698380Y499730D01*
X693300Y475750D02*
Y494650D01*
X452000Y112380D02*
X477400D01*
X504070Y753730D02*
X529470D01*
X947300Y598670D02*
Y625460D01*
X204350Y398130D02*
X224670D01*
X150800D02*
X178950D01*
X192920Y387970D02*
Y447720D01*
X185790Y380840D02*
X192920Y387970D01*
X150510Y380840D02*
X185790D01*
X688500Y413650D02*
X693580D01*
X711080Y499730D02*
X719970D01*
X727590Y502270D02*
X730650Y499210D01*
X726950Y358640D02*
X730130Y361820D01*
X718820Y358640D02*
X726950D01*
X735650Y358320D02*
Y362570D01*
X800650Y363170D02*
X805060Y358760D01*
X791320D02*
X795650Y363090D01*
D73*
X436750Y391250D02*
Y468750D01*
Y344250D02*
Y391250D01*
Y468750D02*
Y617250D01*
X636750D01*
X371500D02*
X436750D01*
X508600Y272400D02*
X617100D01*
X436750Y344250D02*
X508600Y272400D01*
X711875Y624125D02*
X768750Y681000D01*
X705000Y617250D02*
X709810Y622060D01*
X636750Y617250D02*
X705000D01*
X824450Y681000D02*
X825380Y680070D01*
X768750Y681000D02*
X824450D01*
X284360Y590290D02*
X344540D01*
X371500Y617250D01*
X345000Y721980D02*
X554870D01*
X635200D01*
X554870D02*
Y753730D01*
D74*
X203080Y569790D02*
Y627790D01*
X770770Y631810D02*
X796170D01*
X768750Y681000D02*
X770770Y678980D01*
Y631810D02*
Y678980D01*
X709810Y622060D02*
X711875Y624125D01*
X636750Y617250D02*
X637420Y616580D01*
Y583550D02*
Y616580D01*
X258960Y590290D02*
X284360D01*
X238210Y569790D02*
X258710Y590290D01*
X203080Y569790D02*
X238210D01*
X258710Y590290D02*
X258960D01*
X203080Y627790D02*
Y652991D01*
X199571Y656500D02*
X203080Y652991D01*
X178000Y656500D02*
X199571D01*
X155850Y634350D02*
X178000Y656500D01*
X81040Y634350D02*
X155850D01*
X865986Y488866D02*
X880694D01*
X891420Y478140D01*
X805060Y332090D02*
X827920D01*
X878720Y382890D01*
X948570D01*
X891068Y477788D02*
X891420Y478140D01*
X731320Y347620D02*
X734280Y350580D01*
X805000Y332150D02*
Y349810D01*
Y332150D02*
X805060Y332090D01*
X804940Y349870D02*
X805000Y349810D01*
X731320Y340900D02*
Y347620D01*
X734280Y350580D02*
X735650D01*
X722510Y332090D02*
X731320Y340900D01*
X637420Y499730D02*
Y528940D01*
X43568Y582280D02*
X79890D01*
X43060Y581772D02*
X43568Y582280D01*
X79890D02*
X104900Y607290D01*
X121800D01*
X43060Y502778D02*
X43822Y503540D01*
X76080D01*
X43060Y502778D02*
Y581772D01*
Y617840D02*
Y630540D01*
X46870Y634350D01*
X66040D01*
X181670Y546720D02*
X254680Y473710D01*
X162440Y546720D02*
X181670D01*
X147200Y561960D02*
X162440Y546720D01*
X147200Y561960D02*
Y590290D01*
X147590Y589900D01*
X176410D01*
X180080Y593570D01*
Y627790D01*
X121800Y607290D02*
X147200D01*
X121800Y590290D02*
X147200D01*
X43060Y454010D02*
Y466710D01*
Y454010D02*
X48140Y448930D01*
X67310D01*
X136980D02*
X137040Y448990D01*
X82310Y448930D02*
X136980D01*
D75*
X28750Y754300D02*
X78500Y704550D01*
X71471Y670500D02*
X78500Y677529D01*
X38250Y670500D02*
X71471D01*
X78500Y677529D02*
Y704550D01*
X11500Y643750D02*
X38250Y670500D01*
X194190Y448990D02*
X239680D01*
X18529Y429750D02*
X117800D01*
X11500Y436779D02*
X18529Y429750D01*
X11500Y436779D02*
Y643750D01*
X133040Y434990D02*
X137040Y438990D01*
X123040Y434990D02*
X133040D01*
X117800Y429750D02*
X123040Y434990D01*
X137040Y438990D02*
Y448990D01*
X226010Y627860D02*
Y658410D01*
X225940Y658480D02*
X226010Y658410D01*
Y627860D02*
X226080Y627790D01*
X110724Y556306D02*
X137040Y529990D01*
Y519990D02*
Y529990D01*
X109674Y556306D02*
X110724D01*
X109100Y556880D02*
X109674Y556306D01*
X258960Y607290D02*
Y616150D01*
X247320Y627790D02*
X258960Y616150D01*
X226080Y627790D02*
X247320D01*
X258960Y607290D02*
X284360D01*
X351985Y88885D02*
X552330D01*
X351350Y89520D02*
X351985Y88885D01*
X676790Y803260D02*
X699650D01*
X271660Y172070D02*
X299250D01*
X299600Y170800D02*
Y171720D01*
X299250Y172070D02*
X299600Y171720D01*
X224670Y362610D02*
Y398130D01*
Y362250D02*
Y362610D01*
X227170Y365110D01*
X673930Y829930D02*
X676470Y832470D01*
X304680Y696580D02*
X305950Y695310D01*
X345320D01*
X299250Y41260D02*
X300870Y42880D01*
Y43800D01*
X669170Y206360D02*
X675520D01*
X299600Y258430D02*
X314840Y243190D01*
X299125Y258905D02*
X299600Y258430D01*
X190138Y259700D02*
X223400D01*
X299600Y170800D02*
X300870Y172070D01*
X223875Y258905D02*
X299125D01*
X223400Y259380D02*
X223875Y258905D01*
X632340Y243190D02*
X669170Y206360D01*
X314840Y243190D02*
X632340D01*
X53510Y363840D02*
X150510D01*
X223080D01*
X224670Y362250D01*
X675200Y667370D02*
X675837Y666732D01*
X669170Y61580D02*
X670440Y62850D01*
X637420Y61580D02*
X669170D01*
X416440Y829930D02*
X633930D01*
X416488Y268590D02*
X455810D01*
X399930Y285148D02*
X416488Y268590D01*
X399930Y285148D02*
Y530210D01*
X379610Y550530D02*
X399930Y530210D01*
X300174Y632384D02*
Y662864D01*
X299600Y631810D02*
X300174Y632384D01*
Y662864D02*
X304680Y667370D01*
X379610Y550530D02*
Y572120D01*
X289440Y550530D02*
X379610D01*
X254680Y515770D02*
X289440Y550530D01*
X254680Y473710D02*
Y515770D01*
Y466710D02*
Y473710D01*
X349130Y331499D02*
Y461160D01*
X224670Y322250D02*
X226890Y324470D01*
X342101D02*
X349130Y331499D01*
X226890Y324470D02*
X342101D01*
X349130Y461160D02*
X354680Y466710D01*
X376851Y180915D02*
X377070Y181134D01*
X376277Y170007D02*
X376851Y170581D01*
Y180915D01*
X377070Y181134D02*
Y198105D01*
X427870Y776590D02*
X635200D01*
X605670Y667370D02*
X635200D01*
X635675Y667845D02*
Y694835D01*
X344680Y667370D02*
X605670D01*
Y695310D01*
X635675Y722455D02*
Y748987D01*
X636150Y749462D01*
X635200Y721980D02*
X635675Y722455D01*
X635200Y667370D02*
X635675Y667845D01*
Y694835D02*
X636150Y695310D01*
X635520Y144130D02*
X635835Y143815D01*
Y116505D02*
Y143815D01*
Y116505D02*
X636150Y116190D01*
X635200Y197470D02*
X635675Y196995D01*
X634565Y198105D02*
X635200Y197470D01*
X635675Y171275D02*
Y196995D01*
Y171275D02*
X636150Y170800D01*
X344050Y749920D02*
X344525Y750395D01*
Y776115D02*
X345000Y776590D01*
X344525Y750395D02*
Y776115D01*
X343998Y804326D02*
X345000Y805328D01*
X343998Y803514D02*
Y804326D01*
X345000Y805328D02*
Y829930D01*
X350400Y34910D02*
Y62850D01*
X350875Y89995D02*
X351350Y89520D01*
X350875Y89995D02*
Y116985D01*
X350400Y117460D02*
X350875Y116985D01*
X76892Y503540D02*
X93342Y519990D01*
X137040D01*
X76080Y503540D02*
X76892D01*
X81230Y257230D02*
X83700Y259700D01*
X81230Y151750D02*
Y257230D01*
X153040Y104250D02*
X222130Y173340D01*
X113730Y104250D02*
X153040D01*
X222130Y173340D02*
Y219032D01*
X81230Y151750D02*
X141230D01*
X35440Y345770D02*
X53510Y363840D01*
X35440Y272400D02*
Y345770D01*
Y272400D02*
X48140Y259700D01*
X83700D01*
X224670Y398130D02*
Y422260D01*
X217050Y429880D02*
X224670Y422260D01*
X137040Y448990D02*
X194190D01*
X239680D02*
X254680Y463990D01*
Y466710D01*
X203930Y324891D02*
X223299D01*
X150510Y346840D02*
X181980D01*
X203930Y324891D01*
X223299D02*
X223400Y324790D01*
X190138Y259700D02*
Y306932D01*
X150510Y329840D02*
X167230D01*
X190138Y306932D01*
X154700Y259700D02*
X190138D01*
X222704Y218684D02*
X223400Y219380D01*
X345000Y829930D02*
X416440D01*
X415974Y805334D02*
Y829464D01*
X416440Y829930D01*
X415170Y804530D02*
X415974Y805334D01*
X345000Y776590D02*
X427870D01*
Y753730D02*
Y776590D01*
X567570Y804530D02*
X605670D01*
X377070Y198105D02*
X634565D01*
X350715D02*
X377070D01*
Y61580D02*
X413900D01*
X552330Y88885D02*
X634565D01*
X552796Y89351D02*
Y111576D01*
X552330Y88885D02*
X552796Y89351D01*
X426600Y144130D02*
X635520D01*
X350080D02*
X426600D01*
Y112380D02*
Y144130D01*
X552796Y111576D02*
X553600Y112380D01*
X634565Y88885D02*
X635200Y88250D01*
X350080Y198740D02*
X350715Y198105D01*
D76*
X364101Y38720D02*
X566300D01*
X361791Y36410D02*
X364101Y38720D01*
X350400Y34910D02*
X351900Y36410D01*
X361791D01*
X566300Y34910D02*
X635200D01*
X566300D02*
Y61580D01*
D77*
X843160Y471086D02*
X863446D01*
X844996Y488866D02*
X865986D01*
X843160Y487030D02*
X844996Y488866D01*
X678460Y413650D02*
X688500D01*
X678060Y413250D02*
X678460Y413650D01*
X711080Y499730D02*
Y510130D01*
X710050Y511160D02*
X711080Y510130D01*
X725050Y511160D02*
X727590Y508620D01*
Y502270D02*
Y508620D01*
X718820Y349870D02*
Y358640D01*
X735650Y350580D02*
Y358320D01*
X791320Y351250D02*
Y358760D01*
X789940Y349870D02*
X791320Y351250D01*
X804940Y349870D02*
X805060Y349990D01*
Y358760D01*
D78*
X676155Y116190D02*
D03*
Y748650D02*
D03*
D79*
X309760Y116825D02*
D03*
D80*
X304045Y748015D02*
D03*
D81*
X949840Y751190D02*
D03*
X948570Y459090D02*
D03*
Y433690D02*
D03*
Y408290D02*
D03*
X796170Y631810D02*
D03*
Y606410D02*
D03*
Y581010D02*
D03*
X770770Y606410D02*
D03*
Y581010D02*
D03*
X900310Y18130D02*
D03*
X899040Y843900D02*
D03*
D82*
X949840Y725790D02*
D03*
X948570Y382890D02*
D03*
X770770Y631810D02*
D03*
D83*
X28750Y703500D02*
D03*
Y754300D02*
D03*
X218320Y831200D02*
D03*
X167520D02*
D03*
X223400Y30719D02*
D03*
X172600D02*
D03*
X759340D02*
D03*
X810140D02*
D03*
Y831200D02*
D03*
X759340D02*
D03*
D84*
X979050Y832470D02*
D03*
Y33640D02*
D03*
X34170D02*
D03*
Y832470D02*
D03*
D85*
X992700Y292066D02*
D03*
Y266665D02*
D03*
Y241266D02*
D03*
Y215865D02*
D03*
Y190466D02*
D03*
Y165065D02*
D03*
Y139665D02*
D03*
D86*
Y114265D02*
D03*
D87*
X402470Y753730D02*
D03*
X579000Y112380D02*
D03*
D88*
X415170Y804530D02*
D03*
X427870Y753730D02*
D03*
X440570Y804530D02*
D03*
X453270Y753730D02*
D03*
X465970Y804530D02*
D03*
X478670Y753730D02*
D03*
X491370Y804530D02*
D03*
X504070Y753730D02*
D03*
X516770Y804530D02*
D03*
X529470Y753730D02*
D03*
X542170Y804530D02*
D03*
X554870Y753730D02*
D03*
X567570Y804530D02*
D03*
X580270Y753730D02*
D03*
X401200Y112380D02*
D03*
X413900Y61580D02*
D03*
X426600Y112380D02*
D03*
X439300Y61580D02*
D03*
X452000Y112380D02*
D03*
X464700Y61580D02*
D03*
X477400Y112380D02*
D03*
X490100Y61580D02*
D03*
X502800Y112380D02*
D03*
X515500Y61580D02*
D03*
X528200Y112380D02*
D03*
X540900Y61580D02*
D03*
X553600Y112380D02*
D03*
X566300Y61580D02*
D03*
D89*
X82430Y151750D02*
D03*
D90*
X114930Y104250D02*
D03*
D91*
X142430Y151750D02*
D03*
D92*
X634350Y337170D02*
D03*
X585350D02*
D03*
D93*
X874910Y18130D02*
D03*
X873640Y843900D02*
D03*
D94*
X225940Y658480D02*
D03*
X109100Y556880D02*
D03*
X699650Y803260D02*
D03*
X271660Y172070D02*
D03*
X345320Y695310D02*
D03*
X299600Y258430D02*
D03*
X637420Y61580D02*
D03*
X455810Y268590D02*
D03*
X299600Y631810D02*
D03*
X379610Y572120D02*
D03*
X825380Y680070D02*
D03*
X376277Y170007D02*
D03*
X617100Y272400D02*
D03*
X636150Y749462D02*
D03*
Y695310D02*
D03*
Y116190D02*
D03*
Y170800D02*
D03*
X344050Y749920D02*
D03*
X343998Y803514D02*
D03*
X350400Y62850D02*
D03*
Y117460D02*
D03*
X76080Y503540D02*
D03*
X605670Y695310D02*
D03*
Y804530D02*
D03*
X377070Y61580D02*
D03*
D95*
X792360Y450200D02*
D03*
X770770Y394320D02*
D03*
X791090Y532750D02*
D03*
X864245Y378315D02*
D03*
X855860Y395590D02*
D03*
X853320Y408290D02*
D03*
Y417180D02*
D03*
Y441310D02*
D03*
X535820Y680070D02*
D03*
X462160D02*
D03*
X848240Y448930D02*
D03*
X797440Y502270D02*
D03*
X853320Y431150D02*
D03*
X840620Y451470D02*
D03*
X782200Y408290D02*
D03*
X740290Y404480D02*
D03*
X732670Y429880D02*
D03*
X747910Y461630D02*
D03*
X725050Y526400D02*
D03*
X863480Y574660D02*
D03*
X681870Y440040D02*
D03*
X545980Y387970D02*
D03*
X482480Y372730D02*
D03*
X515500Y498460D02*
D03*
X482480Y489570D02*
D03*
X530740D02*
D03*
X568840Y363840D02*
D03*
X947300Y625460D02*
D03*
X515500Y550530D02*
D03*
X663375Y441267D02*
D03*
X657343Y431035D02*
D03*
X670440Y426070D02*
D03*
X204350Y398130D02*
D03*
X178950D02*
D03*
X664090Y419720D02*
D03*
D96*
X515500Y436230D02*
D03*
X514230Y422260D02*
D03*
X505380Y419720D02*
D03*
X499625Y438135D02*
D03*
D97*
X891420Y478140D02*
D03*
X805060Y332090D02*
D03*
X722510D02*
D03*
X637420Y583550D02*
D03*
Y528940D02*
D03*
M02*
