G04*
G04 #@! TF.GenerationSoftware,Altium Limited,Altium Designer,24.1.2 (44)*
G04*
G04 Layer_Color=32896*
%FSLAX44Y44*%
%MOMM*%
G71*
G04*
G04 #@! TF.SameCoordinates,62CA38D4-F58F-499B-8EE2-8B19808DB9CE*
G04*
G04*
G04 #@! TF.FilePolarity,Positive*
G04*
G01*
G75*
%ADD14C,0.2540*%
%ADD15C,0.1016*%
D14*
X446917Y160638D02*
X449456Y163178D01*
X454535D01*
X457074Y160638D01*
Y150482D01*
X454535Y147942D01*
X449456D01*
X446917Y150482D01*
X441839Y147942D02*
X436760D01*
X439300D01*
Y163178D01*
X441839Y160638D01*
X429143D02*
X426604Y163178D01*
X421525D01*
X418986Y160638D01*
Y150482D01*
X421525Y147942D01*
X426604D01*
X429143Y150482D01*
Y160638D01*
X516769Y24748D02*
X519308Y27287D01*
X524387D01*
X526926Y24748D01*
Y14592D01*
X524387Y12053D01*
X519308D01*
X516769Y14592D01*
X511691D02*
X509152Y12053D01*
X504073D01*
X501534Y14592D01*
Y24748D01*
X504073Y27287D01*
X509152D01*
X511691Y24748D01*
Y22209D01*
X509152Y19670D01*
X501534D01*
X557409Y719438D02*
X559948Y721977D01*
X565027D01*
X567566Y719438D01*
Y709282D01*
X565027Y706742D01*
X559948D01*
X557409Y709282D01*
X542174Y721977D02*
X547253Y719438D01*
X552331Y714360D01*
Y709282D01*
X549792Y706742D01*
X544713D01*
X542174Y709282D01*
Y711821D01*
X544713Y714360D01*
X552331D01*
X504069Y840088D02*
X506608Y842627D01*
X511687D01*
X514226Y840088D01*
Y829932D01*
X511687Y827393D01*
X506608D01*
X504069Y829932D01*
X488834Y842627D02*
X498991D01*
Y835010D01*
X493913Y837549D01*
X491373D01*
X488834Y835010D01*
Y829932D01*
X491373Y827393D01*
X496452D01*
X498991Y829932D01*
D15*
X440062Y125588D02*
Y137272D01*
X412884Y125588D02*
X440062D01*
X412884D02*
Y137272D01*
X440062D01*
X425584Y135494D02*
X427616D01*
X425584Y127366D02*
X427616D01*
X468764Y836534D02*
X470796D01*
X468764Y828406D02*
X470796D01*
X456318Y826628D02*
X483496D01*
Y838312D01*
X456318D02*
X483496D01*
X456318Y826628D02*
Y838312D01*
X514484Y37196D02*
X516516D01*
X514484Y45324D02*
X516516D01*
X501784Y47102D02*
X528962D01*
X501784Y35418D02*
Y47102D01*
Y35418D02*
X528962D01*
Y47102D01*
X553974Y738744D02*
X556006D01*
X553974Y730616D02*
X556006D01*
X541528Y728838D02*
X568706D01*
Y740522D01*
X541528D02*
X568706D01*
X541528Y728838D02*
Y740522D01*
M02*
