G04*
G04 #@! TF.GenerationSoftware,Altium Limited,Altium Designer,24.1.2 (44)*
G04*
G04 Layer_Color=255*
%FSLAX44Y44*%
%MOMM*%
G71*
G04*
G04 #@! TF.SameCoordinates,62CA38D4-F58F-499B-8EE2-8B19808DB9CE*
G04*
G04*
G04 #@! TF.FilePolarity,Positive*
G04*
G01*
G75*
%ADD21R,1.0000X0.9500*%
%ADD81C,1.6000*%
%ADD82R,1.6000X1.6000*%
%ADD83C,2.7940*%
%ADD84C,1.5240*%
%ADD85C,1.5200*%
%ADD86R,1.5200X1.5200*%
%ADD87R,1.6200X1.6200*%
%ADD88C,1.6200*%
%ADD89O,2.2000X4.5000*%
%ADD90O,4.5000X2.2000*%
G04:AMPARAMS|DCode=91|XSize=2.2mm|YSize=4.5mm|CornerRadius=0.55mm|HoleSize=0mm|Usage=FLASHONLY|Rotation=0.000|XOffset=0mm|YOffset=0mm|HoleType=Round|Shape=RoundedRectangle|*
%AMROUNDEDRECTD91*
21,1,2.2000,3.4000,0,0,0.0*
21,1,1.1000,4.5000,0,0,0.0*
1,1,1.1000,0.5500,-1.7000*
1,1,1.1000,-0.5500,-1.7000*
1,1,1.1000,-0.5500,1.7000*
1,1,1.1000,0.5500,1.7000*
%
%ADD91ROUNDEDRECTD91*%
%ADD92C,1.9050*%
%ADD93R,1.6000X1.6000*%
D21*
X434100Y131430D02*
D03*
X419100D02*
D03*
X477280Y832470D02*
D03*
X462280D02*
D03*
X508000Y41260D02*
D03*
X523000D02*
D03*
X562490Y734680D02*
D03*
X547490D02*
D03*
D81*
X949840Y751190D02*
D03*
X948570Y459090D02*
D03*
Y433690D02*
D03*
Y408290D02*
D03*
X796170Y631810D02*
D03*
Y606410D02*
D03*
Y581010D02*
D03*
X770770Y606410D02*
D03*
Y581010D02*
D03*
X900310Y18130D02*
D03*
X899040Y843900D02*
D03*
D82*
X949840Y725790D02*
D03*
X948570Y382890D02*
D03*
X770770Y631810D02*
D03*
D83*
X28750Y703500D02*
D03*
Y754300D02*
D03*
X218320Y831200D02*
D03*
X167520D02*
D03*
X223400Y30719D02*
D03*
X172600D02*
D03*
X759340D02*
D03*
X810140D02*
D03*
Y831200D02*
D03*
X759340D02*
D03*
D84*
X979050Y832470D02*
D03*
Y33640D02*
D03*
X34170D02*
D03*
Y832470D02*
D03*
D85*
X992700Y292066D02*
D03*
Y266665D02*
D03*
Y241266D02*
D03*
Y215865D02*
D03*
Y190466D02*
D03*
Y165065D02*
D03*
Y139665D02*
D03*
D86*
Y114265D02*
D03*
D87*
X402470Y753730D02*
D03*
X579000Y112380D02*
D03*
D88*
X415170Y804530D02*
D03*
X427870Y753730D02*
D03*
X440570Y804530D02*
D03*
X453270Y753730D02*
D03*
X465970Y804530D02*
D03*
X478670Y753730D02*
D03*
X491370Y804530D02*
D03*
X504070Y753730D02*
D03*
X516770Y804530D02*
D03*
X529470Y753730D02*
D03*
X542170Y804530D02*
D03*
X554870Y753730D02*
D03*
X567570Y804530D02*
D03*
X580270Y753730D02*
D03*
X401200Y112380D02*
D03*
X413900Y61580D02*
D03*
X426600Y112380D02*
D03*
X439300Y61580D02*
D03*
X452000Y112380D02*
D03*
X464700Y61580D02*
D03*
X477400Y112380D02*
D03*
X490100Y61580D02*
D03*
X502800Y112380D02*
D03*
X515500Y61580D02*
D03*
X528200Y112380D02*
D03*
X540900Y61580D02*
D03*
X553600Y112380D02*
D03*
X566300Y61580D02*
D03*
D89*
X82430Y151750D02*
D03*
D90*
X114930Y104250D02*
D03*
D91*
X142430Y151750D02*
D03*
D92*
X634350Y337170D02*
D03*
X585350D02*
D03*
D93*
X874910Y18130D02*
D03*
X873640Y843900D02*
D03*
M02*
