G04*
G04 #@! TF.GenerationSoftware,Altium Limited,Altium Designer,24.1.2 (44)*
G04*
G04 Layer_Color=16711935*
%FSLAX44Y44*%
%MOMM*%
G71*
G04*
G04 #@! TF.SameCoordinates,62CA38D4-F58F-499B-8EE2-8B19808DB9CE*
G04*
G04*
G04 #@! TF.FilePolarity,Positive*
G04*
G01*
G75*
%ADD11C,0.2000*%
%ADD12C,0.1270*%
%ADD98C,0.1000*%
%ADD99R,0.6187X2.9200*%
%ADD100R,2.9200X0.6187*%
D11*
X403470Y737830D02*
G03*
X403470Y737830I-1000J0D01*
G01*
X694150Y471150D02*
G03*
X694150Y471150I-1000J0D01*
G01*
X580000Y128280D02*
G03*
X580000Y128280I-1000J0D01*
G01*
D12*
X713150Y481150D02*
X813150D01*
X713150Y381150D02*
Y481150D01*
Y381150D02*
X813150D01*
Y481150D01*
X487380Y409380D02*
Y450380D01*
X528380Y409380D02*
Y450380D01*
X487380Y409380D02*
X528380D01*
X487380Y450380D02*
X528380D01*
D98*
X434600Y127430D02*
Y135430D01*
X418600Y127430D02*
Y135430D01*
X434600D01*
X418600Y127430D02*
X434600D01*
X461780Y836470D02*
X477780D01*
X461780Y828470D02*
X477780D01*
Y836470D01*
X461780Y828470D02*
Y836470D01*
X507500Y37260D02*
X523500D01*
X507500Y45260D02*
X523500D01*
X507500Y37260D02*
Y45260D01*
X523500Y37260D02*
Y45260D01*
X301680Y681970D02*
X347680D01*
X301680Y652770D02*
X347680D01*
X301680D02*
Y681970D01*
X347680Y652770D02*
Y681970D01*
X302000Y736580D02*
X348000D01*
X302000Y707380D02*
X348000D01*
X302000D02*
Y736580D01*
X348000Y707380D02*
Y736580D01*
X302000Y791190D02*
X348000D01*
X302000Y761990D02*
X348000D01*
X302000D02*
Y791190D01*
X348000Y761990D02*
Y791190D01*
X302000Y844530D02*
X348000D01*
X302000Y815330D02*
X348000D01*
X302000D02*
Y844530D01*
X348000Y815330D02*
Y844530D01*
X634620Y389050D02*
X650620D01*
X634620Y397050D02*
X650620D01*
Y389050D02*
Y397050D01*
X634620Y389050D02*
Y397050D01*
X839160Y487530D02*
X847160D01*
X839160Y471530D02*
X847160D01*
Y487530D01*
X839160Y471530D02*
Y487530D01*
X873450Y581900D02*
X881450D01*
X873450Y597900D02*
X881450D01*
X873450Y581900D02*
Y597900D01*
X881450Y581900D02*
Y597900D01*
X307400Y20310D02*
Y49510D01*
X353400Y20310D02*
Y49510D01*
X307400D02*
X353400D01*
X307400Y20310D02*
X353400D01*
X308350Y74920D02*
Y104120D01*
X354350Y74920D02*
Y104120D01*
X308350D02*
X354350D01*
X308350Y74920D02*
X354350D01*
X307080Y129530D02*
Y158730D01*
X353080Y129530D02*
Y158730D01*
X307080D02*
X353080D01*
X307080Y129530D02*
X353080D01*
X307080Y184140D02*
Y213340D01*
X353080Y184140D02*
Y213340D01*
X307080D02*
X353080D01*
X307080Y184140D02*
X353080D01*
X212550Y446880D02*
X221550D01*
X212550Y429880D02*
X221550D01*
Y446880D01*
X212550Y429880D02*
Y446880D01*
X65540Y630350D02*
Y638350D01*
X81540Y630350D02*
Y638350D01*
X65540D02*
X81540D01*
X65540Y630350D02*
X81540D01*
X151700Y590290D02*
Y607290D01*
X142700Y590290D02*
Y607290D01*
X151700D01*
X142700Y590290D02*
X151700D01*
X126300D02*
Y607290D01*
X117300Y590290D02*
Y607290D01*
X126300D01*
X117300Y590290D02*
X126300D01*
X288860D02*
Y607290D01*
X279860Y590290D02*
Y607290D01*
X288860D01*
X279860Y590290D02*
X288860D01*
X263460D02*
Y607290D01*
X254460Y590290D02*
Y607290D01*
X263460D01*
X254460Y590290D02*
X263460D01*
X169580Y580290D02*
Y617290D01*
X236580Y580290D02*
Y617290D01*
X169580Y580290D02*
X236580D01*
X169580Y617290D02*
X236580D01*
X676930Y815330D02*
Y844530D01*
X630930Y815330D02*
Y844530D01*
Y815330D02*
X676930D01*
X630930Y844530D02*
X676930D01*
X678200Y761990D02*
Y791190D01*
X632200Y761990D02*
Y791190D01*
Y761990D02*
X678200D01*
X632200Y791190D02*
X678200D01*
Y707380D02*
Y736580D01*
X632200Y707380D02*
Y736580D01*
Y707380D02*
X678200D01*
X632200Y736580D02*
X678200D01*
Y652770D02*
Y681970D01*
X632200Y652770D02*
Y681970D01*
Y652770D02*
X678200D01*
X632200Y681970D02*
X678200D01*
X366180Y405210D02*
Y528210D01*
X243180Y405210D02*
Y528210D01*
Y405210D02*
X366180D01*
X243180Y528210D02*
X366180D01*
X943300Y599170D02*
X951300D01*
X943300Y583170D02*
X951300D01*
Y599170D01*
X943300Y583170D02*
Y599170D01*
X210070Y319250D02*
Y365250D01*
X239270Y319250D02*
Y365250D01*
X210070Y319250D02*
X239270D01*
X210070Y365250D02*
X239270D01*
X238000Y216380D02*
Y262380D01*
X208800Y216380D02*
Y262380D01*
X238000D01*
X208800Y216380D02*
X238000D01*
X546990Y738680D02*
X562990D01*
X546990Y730680D02*
X562990D01*
Y738680D01*
X546990Y730680D02*
Y738680D01*
X632200Y20310D02*
X678200D01*
X632200Y49510D02*
X678200D01*
Y20310D02*
Y49510D01*
X632200Y20310D02*
Y49510D01*
Y73650D02*
X678200D01*
X632200Y102850D02*
X678200D01*
Y73650D02*
Y102850D01*
X632200Y73650D02*
Y102850D01*
X632520Y129530D02*
X678520D01*
X632520Y158730D02*
X678520D01*
Y129530D02*
Y158730D01*
X632520Y129530D02*
Y158730D01*
X632200Y182870D02*
X678200D01*
X632200Y212070D02*
X678200D01*
Y182870D02*
Y212070D01*
X632200Y182870D02*
Y212070D01*
X674060Y395210D02*
X682060D01*
X674060Y411210D02*
X682060D01*
X674060Y395210D02*
Y411210D01*
X682060Y395210D02*
Y411210D01*
X634620Y379270D02*
X650620D01*
X634620Y371270D02*
X650620D01*
X634620D02*
Y379270D01*
X650620Y371270D02*
Y379270D01*
X789440Y353870D02*
X805440D01*
X789440Y345870D02*
X805440D01*
X789440D02*
Y353870D01*
X805440Y345870D02*
Y353870D01*
X718320D02*
X734320D01*
X718320Y345870D02*
X734320D01*
X718320D02*
Y353870D01*
X734320Y345870D02*
Y353870D01*
X481980Y386510D02*
Y394510D01*
X497980Y386510D02*
Y394510D01*
X481980D02*
X497980D01*
X481980Y386510D02*
X497980D01*
X515120D02*
Y394510D01*
X531120Y386510D02*
Y394510D01*
X515120D02*
X531120D01*
X515120Y386510D02*
X531120D01*
X544520Y437240D02*
X552520D01*
X544520Y453240D02*
X552520D01*
X544520Y437240D02*
Y453240D01*
X552520Y437240D02*
Y453240D01*
X544520Y402830D02*
X552520D01*
X544520Y418830D02*
X552520D01*
X544520Y402830D02*
Y418830D01*
X552520Y402830D02*
Y418830D01*
X709550Y507160D02*
X725550D01*
X709550Y515160D02*
X725550D01*
Y507160D02*
Y515160D01*
X709550Y507160D02*
Y515160D01*
X656280Y475220D02*
Y491220D01*
X664280Y475220D02*
Y491220D01*
X656280Y475220D02*
X664280D01*
X656280Y491220D02*
X664280D01*
X762960Y555990D02*
X770960D01*
X762960Y539990D02*
X770960D01*
Y555990D01*
X762960Y539990D02*
Y555990D01*
X797250Y539990D02*
X805250D01*
X797250Y555990D02*
X805250D01*
X797250Y539990D02*
Y555990D01*
X805250Y539990D02*
Y555990D01*
X568580Y371270D02*
X584580D01*
X568580Y379270D02*
X584580D01*
Y371270D02*
Y379270D01*
X568580Y371270D02*
Y379270D01*
X482220Y465250D02*
X498220D01*
X482220Y473250D02*
X498220D01*
Y465250D02*
Y473250D01*
X482220Y465250D02*
Y473250D01*
X515240D02*
X531240D01*
X515240Y465250D02*
X531240D01*
X515240D02*
Y473250D01*
X531240Y465250D02*
Y473250D01*
X66810Y444930D02*
Y452930D01*
X82810Y444930D02*
Y452930D01*
X66810D02*
X82810D01*
X66810Y444930D02*
X82810D01*
X26110Y415840D02*
X115010D01*
X26110Y311840D02*
X115010D01*
X26110D02*
Y415840D01*
X115010Y311840D02*
Y415840D01*
D99*
X304774Y667369D02*
D03*
X305094Y721980D02*
D03*
X305093Y776590D02*
D03*
X305093Y829930D02*
D03*
X350307Y34910D02*
D03*
X351256Y89520D02*
D03*
X349986Y144130D02*
D03*
X349986Y198740D02*
D03*
X634024Y829930D02*
D03*
X635294Y776590D02*
D03*
X635294Y721980D02*
D03*
X635294Y667370D02*
D03*
X675106Y34910D02*
D03*
X675107Y88250D02*
D03*
X675426Y144130D02*
D03*
X675107Y197470D02*
D03*
D100*
X224668Y322343D02*
D03*
X223400Y259287D02*
D03*
M02*
