G04*
G04 #@! TF.GenerationSoftware,Altium Limited,Altium Designer,24.1.2 (44)*
G04*
G04 Layer_Color=128*
%FSLAX44Y44*%
%MOMM*%
G71*
G04*
G04 #@! TF.SameCoordinates,62CA38D4-F58F-499B-8EE2-8B19808DB9CE*
G04*
G04*
G04 #@! TF.FilePolarity,Positive*
G04*
G01*
G75*
%ADD12C,0.1270*%
D12*
X944340Y751190D02*
X955340D01*
X949840Y745690D02*
Y756690D01*
X944340Y725790D02*
X955340D01*
X949840Y720290D02*
Y731290D01*
X943070Y459090D02*
X954070D01*
X948570Y453590D02*
Y464590D01*
X943070Y433690D02*
X954070D01*
X948570Y428190D02*
Y439190D01*
X943070Y408290D02*
X954070D01*
X948570Y402790D02*
Y413790D01*
X943070Y382890D02*
X954070D01*
X948570Y377390D02*
Y388390D01*
X22400Y703500D02*
X35100D01*
X28750Y697150D02*
Y709850D01*
X22400Y754300D02*
X35100D01*
X28750Y747950D02*
Y760650D01*
X963050Y832470D02*
X995050D01*
X979050Y816470D02*
Y848470D01*
X211970Y831200D02*
X224670D01*
X218320Y824850D02*
Y837550D01*
X161170Y831200D02*
X173870D01*
X167520Y824850D02*
Y837550D01*
X987600Y292066D02*
X997800D01*
X992700Y286966D02*
Y297165D01*
X987600Y266665D02*
X997800D01*
X992700Y261565D02*
Y271765D01*
X987600Y241266D02*
X997800D01*
X992700Y236166D02*
Y246365D01*
X987600Y215865D02*
X997800D01*
X992700Y210765D02*
Y220965D01*
X987600Y190466D02*
X997800D01*
X992700Y185366D02*
Y195565D01*
X987600Y165065D02*
X997800D01*
X992700Y159965D02*
Y170165D01*
X987600Y139665D02*
X997800D01*
X992700Y134565D02*
Y144765D01*
X987600Y114265D02*
X997800D01*
X992700Y109165D02*
Y119365D01*
X397070Y753730D02*
X407870D01*
X402470Y748330D02*
Y759130D01*
X409770Y804530D02*
X420570D01*
X415170Y799130D02*
Y809930D01*
X422470Y753730D02*
X433270D01*
X427870Y748330D02*
Y759130D01*
X435170Y804530D02*
X445970D01*
X440570Y799130D02*
Y809930D01*
X447870Y753730D02*
X458670D01*
X453270Y748330D02*
Y759130D01*
X460570Y804530D02*
X471370D01*
X465970Y799130D02*
Y809930D01*
X473270Y753730D02*
X484070D01*
X478670Y748330D02*
Y759130D01*
X485970Y804530D02*
X496770D01*
X491370Y799130D02*
Y809930D01*
X498670Y753730D02*
X509470D01*
X504070Y748330D02*
Y759130D01*
X511370Y804530D02*
X522170D01*
X516770Y799130D02*
Y809930D01*
X524070Y753730D02*
X534870D01*
X529470Y748330D02*
Y759130D01*
X536770Y804530D02*
X547570D01*
X542170Y799130D02*
Y809930D01*
X549470Y753730D02*
X560270D01*
X554870Y748330D02*
Y759130D01*
X562170Y804530D02*
X572970D01*
X567570Y799130D02*
Y809930D01*
X574870Y753730D02*
X585670D01*
X580270Y748330D02*
Y759130D01*
X77430Y151750D02*
X87430D01*
X82430Y146750D02*
Y156750D01*
X109930Y104250D02*
X119930D01*
X114930Y99250D02*
Y109250D01*
X137430Y151750D02*
X147430D01*
X142430Y146750D02*
Y156750D01*
X217050Y30719D02*
X229750D01*
X223400Y24369D02*
Y37069D01*
X166250Y30719D02*
X178950D01*
X172600Y24369D02*
Y37069D01*
X790670Y631810D02*
X801670D01*
X796170Y626310D02*
Y637310D01*
X790670Y606410D02*
X801670D01*
X796170Y600910D02*
Y611910D01*
X790670Y581010D02*
X801670D01*
X796170Y575510D02*
Y586510D01*
X765270Y631810D02*
X776270D01*
X770770Y626310D02*
Y637310D01*
X765270Y606410D02*
X776270D01*
X770770Y600910D02*
Y611910D01*
X765270Y581010D02*
X776270D01*
X770770Y575510D02*
Y586510D01*
X395800Y112380D02*
X406600D01*
X401200Y106980D02*
Y117780D01*
X408500Y61580D02*
X419300D01*
X413900Y56180D02*
Y66980D01*
X421200Y112380D02*
X432000D01*
X426600Y106980D02*
Y117780D01*
X433900Y61580D02*
X444700D01*
X439300Y56180D02*
Y66980D01*
X446600Y112380D02*
X457400D01*
X452000Y106980D02*
Y117780D01*
X459300Y61580D02*
X470100D01*
X464700Y56180D02*
Y66980D01*
X472000Y112380D02*
X482800D01*
X477400Y106980D02*
Y117780D01*
X484700Y61580D02*
X495500D01*
X490100Y56180D02*
Y66980D01*
X497400Y112380D02*
X508200D01*
X502800Y106980D02*
Y117780D01*
X510100Y61580D02*
X520900D01*
X515500Y56180D02*
Y66980D01*
X522800Y112380D02*
X533600D01*
X528200Y106980D02*
Y117780D01*
X535500Y61580D02*
X546300D01*
X540900Y56180D02*
Y66980D01*
X548200Y112380D02*
X559000D01*
X553600Y106980D02*
Y117780D01*
X560900Y61580D02*
X571700D01*
X566300Y56180D02*
Y66980D01*
X573600Y112380D02*
X584400D01*
X579000Y106980D02*
Y117780D01*
X752990Y30719D02*
X765690D01*
X759340Y24369D02*
Y37069D01*
X803790Y30719D02*
X816490D01*
X810140Y24369D02*
Y37069D01*
X803790Y831200D02*
X816490D01*
X810140Y824850D02*
Y837550D01*
X752990Y831200D02*
X765690D01*
X759340Y824850D02*
Y837550D01*
X630350Y337170D02*
X638350D01*
X634350Y333170D02*
Y341170D01*
X581350Y337170D02*
X589350D01*
X585350Y333170D02*
Y341170D01*
X963050Y33640D02*
X995050D01*
X979050Y17640D02*
Y49640D01*
X18170Y33640D02*
X50170D01*
X34170Y17640D02*
Y49640D01*
X18170Y832470D02*
X50170D01*
X34170Y816470D02*
Y848470D01*
X894810Y18130D02*
X905810D01*
X900310Y12630D02*
Y23630D01*
X869410Y18130D02*
X880410D01*
X874910Y12630D02*
Y23630D01*
X893540Y843900D02*
X904540D01*
X899040Y838400D02*
Y849400D01*
X868140Y843900D02*
X879140D01*
X873640Y838400D02*
Y849400D01*
X221940Y658480D02*
X229940D01*
X225940Y654480D02*
Y662480D01*
X105100Y556880D02*
X113100D01*
X109100Y552880D02*
Y560880D01*
X790860Y450200D02*
X793860D01*
X792360Y448700D02*
Y451700D01*
X769270Y394320D02*
X772270D01*
X770770Y392820D02*
Y395820D01*
X789590Y532750D02*
X792590D01*
X791090Y531250D02*
Y534250D01*
X695650Y803260D02*
X703650D01*
X699650Y799260D02*
Y807260D01*
X267660Y172070D02*
X275660D01*
X271660Y168070D02*
Y176070D01*
X862745Y378315D02*
X865745D01*
X864245Y376815D02*
Y379815D01*
X854360Y395590D02*
X857360D01*
X855860Y394090D02*
Y397090D01*
X851820Y408290D02*
X854820D01*
X853320Y406790D02*
Y409790D01*
X851820Y417180D02*
X854820D01*
X853320Y415680D02*
Y418680D01*
X514500Y436230D02*
X516500D01*
X515500Y435230D02*
Y437230D01*
X513230Y422260D02*
X515230D01*
X514230Y421260D02*
Y423260D01*
X504380Y419720D02*
X506380D01*
X505380Y418720D02*
Y420720D01*
X498625Y438135D02*
X500625D01*
X499625Y437135D02*
Y439135D01*
X851820Y441310D02*
X854820D01*
X853320Y439810D02*
Y442810D01*
X534320Y680070D02*
X537320D01*
X535820Y678570D02*
Y681570D01*
X460660Y680070D02*
X463660D01*
X462160Y678570D02*
Y681570D01*
X846740Y448930D02*
X849740D01*
X848240Y447430D02*
Y450430D01*
X795940Y502270D02*
X798940D01*
X797440Y500770D02*
Y503770D01*
X851820Y431150D02*
X854820D01*
X853320Y429650D02*
Y432650D01*
X839120Y451470D02*
X842120D01*
X840620Y449970D02*
Y452970D01*
X780700Y408290D02*
X783700D01*
X782200Y406790D02*
Y409790D01*
X738790Y404480D02*
X741790D01*
X740290Y402980D02*
Y405980D01*
X731170Y429880D02*
X734170D01*
X732670Y428380D02*
Y431380D01*
X746410Y461630D02*
X749410D01*
X747910Y460130D02*
Y463130D01*
X723550Y526400D02*
X726550D01*
X725050Y524900D02*
Y527900D01*
X888920Y478140D02*
X893920D01*
X891420Y475640D02*
Y480640D01*
X861980Y574660D02*
X864980D01*
X863480Y573160D02*
Y576160D01*
X341320Y695310D02*
X349320D01*
X345320Y691310D02*
Y699310D01*
X295600Y258430D02*
X303600D01*
X299600Y254430D02*
Y262430D01*
X633420Y61580D02*
X641420D01*
X637420Y57580D02*
Y65580D01*
X451810Y268590D02*
X459810D01*
X455810Y264590D02*
Y272590D01*
X295600Y631810D02*
X303600D01*
X299600Y627810D02*
Y635810D01*
X375610Y572120D02*
X383610D01*
X379610Y568120D02*
Y576120D01*
X821380Y680070D02*
X829380D01*
X825380Y676070D02*
Y684070D01*
X680370Y440040D02*
X683370D01*
X681870Y438540D02*
Y441540D01*
X372277Y170007D02*
X380277D01*
X376277Y166007D02*
Y174007D01*
X802560Y332090D02*
X807560D01*
X805060Y329590D02*
Y334590D01*
X544480Y387970D02*
X547480D01*
X545980Y386470D02*
Y389470D01*
X480980Y372730D02*
X483980D01*
X482480Y371230D02*
Y374230D01*
X514000Y498460D02*
X517000D01*
X515500Y496960D02*
Y499960D01*
X480980Y489570D02*
X483980D01*
X482480Y488070D02*
Y491070D01*
X529240Y489570D02*
X532240D01*
X530740Y488070D02*
Y491070D01*
X720010Y332090D02*
X725010D01*
X722510Y329590D02*
Y334590D01*
X613100Y272400D02*
X621100D01*
X617100Y268400D02*
Y276400D01*
X567340Y363840D02*
X570340D01*
X568840Y362340D02*
Y365340D01*
X945800Y625460D02*
X948800D01*
X947300Y623960D02*
Y626960D01*
X634920Y583550D02*
X639920D01*
X637420Y581050D02*
Y586050D01*
X634920Y528940D02*
X639920D01*
X637420Y526440D02*
Y531440D01*
X514000Y550530D02*
X517000D01*
X515500Y549030D02*
Y552030D01*
X661875Y441267D02*
X664875D01*
X663375Y439767D02*
Y442767D01*
X655843Y431035D02*
X658843D01*
X657343Y429535D02*
Y432535D01*
X668940Y426070D02*
X671940D01*
X670440Y424570D02*
Y427570D01*
X632150Y749462D02*
X640150D01*
X636150Y745462D02*
Y753462D01*
X632150Y695310D02*
X640150D01*
X636150Y691310D02*
Y699310D01*
X632150Y116190D02*
X640150D01*
X636150Y112190D02*
Y120190D01*
X632150Y170800D02*
X640150D01*
X636150Y166800D02*
Y174800D01*
X340050Y749920D02*
X348050D01*
X344050Y745920D02*
Y753920D01*
X339998Y803514D02*
X347998D01*
X343998Y799514D02*
Y807514D01*
X346400Y62850D02*
X354400D01*
X350400Y58850D02*
Y66850D01*
X346400Y117460D02*
X354400D01*
X350400Y113460D02*
Y121460D01*
X72080Y503540D02*
X80080D01*
X76080Y499540D02*
Y507540D01*
X202850Y398130D02*
X205850D01*
X204350Y396630D02*
Y399630D01*
X177450Y398130D02*
X180450D01*
X178950Y396630D02*
Y399630D01*
X601670Y695310D02*
X609670D01*
X605670Y691310D02*
Y699310D01*
X601670Y804530D02*
X609670D01*
X605670Y800530D02*
Y808530D01*
X373070Y61580D02*
X381070D01*
X377070Y57580D02*
Y65580D01*
X662590Y419720D02*
X665590D01*
X664090Y418220D02*
Y421220D01*
M02*
