G04*
G04 #@! TF.GenerationSoftware,Altium Limited,Altium Designer,24.1.2 (44)*
G04*
G04 Layer_Color=2752767*
%FSLAX44Y44*%
%MOMM*%
G71*
G04*
G04 #@! TF.SameCoordinates,62CA38D4-F58F-499B-8EE2-8B19808DB9CE*
G04*
G04*
G04 #@! TF.FilePolarity,Positive*
G04*
G01*
G75*
%ADD12C,0.1270*%
%ADD15C,0.1016*%
%ADD102C,0.1693*%
D12*
X949840Y746110D02*
X944760Y756270D01*
X954920D01*
X949840Y746110D01*
Y720710D02*
X944760Y730870D01*
X954920D01*
X949840Y720710D01*
X948570Y454010D02*
X943490Y464170D01*
X953650D01*
X948570Y454010D01*
Y428610D02*
X943490Y438770D01*
X953650D01*
X948570Y428610D01*
Y403210D02*
X943490Y413370D01*
X953650D01*
X948570Y403210D01*
Y377810D02*
X943490Y387970D01*
X953650D01*
X948570Y377810D01*
X28750Y698420D02*
X31290Y700960D01*
X33830D01*
X31290Y703500D01*
X33830Y706040D01*
X31290D01*
X28750Y708580D01*
X26210Y706040D01*
X23670D01*
X26210Y703500D01*
X23670Y700960D01*
X26210D01*
X28750Y698420D01*
Y749220D02*
X31290Y751760D01*
X33830D01*
X31290Y754300D01*
X33830Y756840D01*
X31290D01*
X28750Y759380D01*
X26210Y756840D01*
X23670D01*
X26210Y754300D01*
X23670Y751760D01*
X26210D01*
X28750Y749220D01*
X979050Y827390D02*
X973970Y837550D01*
X984130D01*
X979050Y827390D01*
Y829422D02*
X976002Y835518D01*
X982098D01*
X979050Y829422D01*
X218320Y826120D02*
X220860Y828660D01*
X223400D01*
X220860Y831200D01*
X223400Y833740D01*
X220860D01*
X218320Y836280D01*
X215780Y833740D01*
X213240D01*
X215780Y831200D01*
X213240Y828660D01*
X215780D01*
X218320Y826120D01*
X167520D02*
X170060Y828660D01*
X172600D01*
X170060Y831200D01*
X172600Y833740D01*
X170060D01*
X167520Y836280D01*
X164980Y833740D01*
X162440D01*
X164980Y831200D01*
X162440Y828660D01*
X164980D01*
X167520Y826120D01*
X987620Y286985D02*
Y297146D01*
X997780D01*
Y286985D01*
X987620D01*
Y261586D02*
Y271745D01*
X997780D01*
Y261586D01*
X987620D01*
Y236185D02*
Y246346D01*
X997780D01*
Y236185D01*
X987620D01*
Y210786D02*
Y220945D01*
X997780D01*
Y210786D01*
X987620D01*
Y185385D02*
Y195546D01*
X997780D01*
Y185385D01*
X987620D01*
Y159986D02*
Y170145D01*
X997780D01*
Y159986D01*
X987620D01*
Y134586D02*
Y144746D01*
X997780D01*
Y134586D01*
X987620D01*
Y109185D02*
Y119346D01*
X997780D01*
Y109185D01*
X987620D01*
X79890Y149210D02*
Y146670D01*
X84970D01*
Y149210D01*
X87510D01*
Y154290D01*
X84970D01*
Y156830D01*
X79890D01*
Y154290D01*
X77350D01*
Y149210D01*
X79890D01*
X112390Y101710D02*
Y99170D01*
X117470D01*
Y101710D01*
X120010D01*
Y106790D01*
X117470D01*
Y109330D01*
X112390D01*
Y106790D01*
X109850D01*
Y101710D01*
X112390D01*
X139890Y149210D02*
Y146670D01*
X144970D01*
Y149210D01*
X147510D01*
Y154290D01*
X144970D01*
Y156830D01*
X139890D01*
Y154290D01*
X137350D01*
Y149210D01*
X139890D01*
X223400Y25639D02*
X225940Y28179D01*
X228480D01*
X225940Y30719D01*
X228480Y33259D01*
X225940D01*
X223400Y35799D01*
X220860Y33259D01*
X218320D01*
X220860Y30719D01*
X218320Y28179D01*
X220860D01*
X223400Y25639D01*
X172600D02*
X175140Y28179D01*
X177680D01*
X175140Y30719D01*
X177680Y33259D01*
X175140D01*
X172600Y35799D01*
X170060Y33259D01*
X167520D01*
X170060Y30719D01*
X167520Y28179D01*
X170060D01*
X172600Y25639D01*
X796170Y626730D02*
X791090Y636890D01*
X801250D01*
X796170Y626730D01*
Y601330D02*
X791090Y611490D01*
X801250D01*
X796170Y601330D01*
Y575930D02*
X791090Y586090D01*
X801250D01*
X796170Y575930D01*
X770770Y626730D02*
X765690Y636890D01*
X775850D01*
X770770Y626730D01*
Y601330D02*
X765690Y611490D01*
X775850D01*
X770770Y601330D01*
Y575930D02*
X765690Y586090D01*
X775850D01*
X770770Y575930D01*
X759340Y25639D02*
X761880Y28179D01*
X764420D01*
X761880Y30719D01*
X764420Y33259D01*
X761880D01*
X759340Y35799D01*
X756800Y33259D01*
X754260D01*
X756800Y30719D01*
X754260Y28179D01*
X756800D01*
X759340Y25639D01*
X810140D02*
X812680Y28179D01*
X815220D01*
X812680Y30719D01*
X815220Y33259D01*
X812680D01*
X810140Y35799D01*
X807600Y33259D01*
X805060D01*
X807600Y30719D01*
X805060Y28179D01*
X807600D01*
X810140Y25639D01*
Y826120D02*
X812680Y828660D01*
X815220D01*
X812680Y831200D01*
X815220Y833740D01*
X812680D01*
X810140Y836280D01*
X807600Y833740D01*
X805060D01*
X807600Y831200D01*
X805060Y828660D01*
X807600D01*
X810140Y826120D01*
X759340D02*
X761880Y828660D01*
X764420D01*
X761880Y831200D01*
X764420Y833740D01*
X761880D01*
X759340Y836280D01*
X756800Y833740D01*
X754260D01*
X756800Y831200D01*
X754260Y828660D01*
X756800D01*
X759340Y826120D01*
X629270Y332090D02*
X631810Y337170D01*
X629270Y342250D01*
X634350Y339710D01*
X639430Y342250D01*
X636890Y337170D01*
X639430Y332090D01*
X634350Y334630D01*
X629270Y332090D01*
X580270D02*
X582810Y337170D01*
X580270Y342250D01*
X585350Y339710D01*
X590430Y342250D01*
X587890Y337170D01*
X590430Y332090D01*
X585350Y334630D01*
X580270Y332090D01*
X979050Y28560D02*
X973970Y38720D01*
X984130D01*
X979050Y28560D01*
Y30592D02*
X976002Y36688D01*
X982098D01*
X979050Y30592D01*
X34170Y28560D02*
X29090Y38720D01*
X39250D01*
X34170Y28560D01*
Y30592D02*
X31122Y36688D01*
X37218D01*
X34170Y30592D01*
Y827390D02*
X29090Y837550D01*
X39250D01*
X34170Y827390D01*
Y829422D02*
X31122Y835518D01*
X37218D01*
X34170Y829422D01*
X900310Y13050D02*
X895230Y23210D01*
X905390D01*
X900310Y13050D01*
X874910D02*
X869830Y23210D01*
X879990D01*
X874910Y13050D01*
X899040Y838820D02*
X893960Y848980D01*
X904120D01*
X899040Y838820D01*
X873640D02*
X868560Y848980D01*
X878720D01*
X873640Y838820D01*
X220860Y653400D02*
X223400Y658480D01*
X220860Y663560D01*
X225940Y661020D01*
X231020Y663560D01*
X228480Y658480D01*
X231020Y653400D01*
X225940Y655940D01*
X220860Y653400D01*
X104020Y551800D02*
X106560Y556880D01*
X104020Y561960D01*
X109100Y559420D01*
X114180Y561960D01*
X111640Y556880D01*
X114180Y551800D01*
X109100Y554340D01*
X104020Y551800D01*
X787280Y445120D02*
X789820D01*
X792360Y447660D01*
X794900Y445120D01*
X797440D01*
Y447660D01*
X794900Y450200D01*
X797440Y452740D01*
Y455280D01*
X794900D01*
X792360Y452740D01*
X789820Y455280D01*
X787280D01*
Y452740D01*
X789820Y450200D01*
X787280Y447660D01*
Y445120D01*
X765690Y389240D02*
X768230D01*
X770770Y391780D01*
X773310Y389240D01*
X775850D01*
Y391780D01*
X773310Y394320D01*
X775850Y396860D01*
Y399400D01*
X773310D01*
X770770Y396860D01*
X768230Y399400D01*
X765690D01*
Y396860D01*
X768230Y394320D01*
X765690Y391780D01*
Y389240D01*
X786010Y527670D02*
X788550D01*
X791090Y530210D01*
X793630Y527670D01*
X796170D01*
Y530210D01*
X793630Y532750D01*
X796170Y535290D01*
Y537830D01*
X793630D01*
X791090Y535290D01*
X788550Y537830D01*
X786010D01*
Y535290D01*
X788550Y532750D01*
X786010Y530210D01*
Y527670D01*
X694570Y798180D02*
X697110Y803260D01*
X694570Y808340D01*
X699650Y805800D01*
X704730Y808340D01*
X702190Y803260D01*
X704730Y798180D01*
X699650Y800720D01*
X694570Y798180D01*
X266580Y166990D02*
X269120Y172070D01*
X266580Y177150D01*
X271660Y174610D01*
X276740Y177150D01*
X274200Y172070D01*
X276740Y166990D01*
X271660Y169530D01*
X266580Y166990D01*
X859165Y373235D02*
X861705D01*
X864245Y375775D01*
X866785Y373235D01*
X869325D01*
Y375775D01*
X866785Y378315D01*
X869325Y380855D01*
Y383395D01*
X866785D01*
X864245Y380855D01*
X861705Y383395D01*
X859165D01*
Y380855D01*
X861705Y378315D01*
X859165Y375775D01*
Y373235D01*
X850780Y390510D02*
X853320D01*
X855860Y393050D01*
X858400Y390510D01*
X860940D01*
Y393050D01*
X858400Y395590D01*
X860940Y398130D01*
Y400670D01*
X858400D01*
X855860Y398130D01*
X853320Y400670D01*
X850780D01*
Y398130D01*
X853320Y395590D01*
X850780Y393050D01*
Y390510D01*
X848240Y403210D02*
X850780D01*
X853320Y405750D01*
X855860Y403210D01*
X858400D01*
Y405750D01*
X855860Y408290D01*
X858400Y410830D01*
Y413370D01*
X855860D01*
X853320Y410830D01*
X850780Y413370D01*
X848240D01*
Y410830D01*
X850780Y408290D01*
X848240Y405750D01*
Y403210D01*
Y412100D02*
X850780D01*
X853320Y414640D01*
X855860Y412100D01*
X858400D01*
Y414640D01*
X855860Y417180D01*
X858400Y419720D01*
Y422260D01*
X855860D01*
X853320Y419720D01*
X850780Y422260D01*
X848240D01*
Y419720D01*
X850780Y417180D01*
X848240Y414640D01*
Y412100D01*
Y436230D02*
X850780D01*
X853320Y438770D01*
X855860Y436230D01*
X858400D01*
Y438770D01*
X855860Y441310D01*
X858400Y443850D01*
Y446390D01*
X855860D01*
X853320Y443850D01*
X850780Y446390D01*
X848240D01*
Y443850D01*
X850780Y441310D01*
X848240Y438770D01*
Y436230D01*
X530740Y674990D02*
X533280D01*
X535820Y677530D01*
X538360Y674990D01*
X540900D01*
Y677530D01*
X538360Y680070D01*
X540900Y682610D01*
Y685150D01*
X538360D01*
X535820Y682610D01*
X533280Y685150D01*
X530740D01*
Y682610D01*
X533280Y680070D01*
X530740Y677530D01*
Y674990D01*
X457080D02*
X459620D01*
X462160Y677530D01*
X464700Y674990D01*
X467240D01*
Y677530D01*
X464700Y680070D01*
X467240Y682610D01*
Y685150D01*
X464700D01*
X462160Y682610D01*
X459620Y685150D01*
X457080D01*
Y682610D01*
X459620Y680070D01*
X457080Y677530D01*
Y674990D01*
X843160Y443850D02*
X845700D01*
X848240Y446390D01*
X850780Y443850D01*
X853320D01*
Y446390D01*
X850780Y448930D01*
X853320Y451470D01*
Y454010D01*
X850780D01*
X848240Y451470D01*
X845700Y454010D01*
X843160D01*
Y451470D01*
X845700Y448930D01*
X843160Y446390D01*
Y443850D01*
X792360Y497190D02*
X794900D01*
X797440Y499730D01*
X799980Y497190D01*
X802520D01*
Y499730D01*
X799980Y502270D01*
X802520Y504810D01*
Y507350D01*
X799980D01*
X797440Y504810D01*
X794900Y507350D01*
X792360D01*
Y504810D01*
X794900Y502270D01*
X792360Y499730D01*
Y497190D01*
X848240Y426070D02*
X850780D01*
X853320Y428610D01*
X855860Y426070D01*
X858400D01*
Y428610D01*
X855860Y431150D01*
X858400Y433690D01*
Y436230D01*
X855860D01*
X853320Y433690D01*
X850780Y436230D01*
X848240D01*
Y433690D01*
X850780Y431150D01*
X848240Y428610D01*
Y426070D01*
X835540Y446390D02*
X838080D01*
X840620Y448930D01*
X843160Y446390D01*
X845700D01*
Y448930D01*
X843160Y451470D01*
X845700Y454010D01*
Y456550D01*
X843160D01*
X840620Y454010D01*
X838080Y456550D01*
X835540D01*
Y454010D01*
X838080Y451470D01*
X835540Y448930D01*
Y446390D01*
X777120Y403210D02*
X779660D01*
X782200Y405750D01*
X784740Y403210D01*
X787280D01*
Y405750D01*
X784740Y408290D01*
X787280Y410830D01*
Y413370D01*
X784740D01*
X782200Y410830D01*
X779660Y413370D01*
X777120D01*
Y410830D01*
X779660Y408290D01*
X777120Y405750D01*
Y403210D01*
X735210Y399400D02*
X737750D01*
X740290Y401940D01*
X742830Y399400D01*
X745370D01*
Y401940D01*
X742830Y404480D01*
X745370Y407020D01*
Y409560D01*
X742830D01*
X740290Y407020D01*
X737750Y409560D01*
X735210D01*
Y407020D01*
X737750Y404480D01*
X735210Y401940D01*
Y399400D01*
X727590Y424800D02*
X730130D01*
X732670Y427340D01*
X735210Y424800D01*
X737750D01*
Y427340D01*
X735210Y429880D01*
X737750Y432420D01*
Y434960D01*
X735210D01*
X732670Y432420D01*
X730130Y434960D01*
X727590D01*
Y432420D01*
X730130Y429880D01*
X727590Y427340D01*
Y424800D01*
X742830Y456550D02*
X745370D01*
X747910Y459090D01*
X750450Y456550D01*
X752990D01*
Y459090D01*
X750450Y461630D01*
X752990Y464170D01*
Y466710D01*
X750450D01*
X747910Y464170D01*
X745370Y466710D01*
X742830D01*
Y464170D01*
X745370Y461630D01*
X742830Y459090D01*
Y456550D01*
X719970Y521320D02*
X722510D01*
X725050Y523860D01*
X727590Y521320D01*
X730130D01*
Y523860D01*
X727590Y526400D01*
X730130Y528940D01*
Y531480D01*
X727590D01*
X725050Y528940D01*
X722510Y531480D01*
X719970D01*
Y528940D01*
X722510Y526400D01*
X719970Y523860D01*
Y521320D01*
X886340Y473060D02*
Y483220D01*
X896500D01*
Y473060D01*
X886340D01*
X888372Y475092D02*
Y481188D01*
X894468D01*
Y475092D01*
X888372D01*
X858400Y569580D02*
X860940D01*
X863480Y572120D01*
X866020Y569580D01*
X868560D01*
Y572120D01*
X866020Y574660D01*
X868560Y577200D01*
Y579740D01*
X866020D01*
X863480Y577200D01*
X860940Y579740D01*
X858400D01*
Y577200D01*
X860940Y574660D01*
X858400Y572120D01*
Y569580D01*
X340240Y690230D02*
X342780Y695310D01*
X340240Y700390D01*
X345320Y697850D01*
X350400Y700390D01*
X347860Y695310D01*
X350400Y690230D01*
X345320Y692770D01*
X340240Y690230D01*
X294520Y253350D02*
X297060Y258430D01*
X294520Y263510D01*
X299600Y260970D01*
X304680Y263510D01*
X302140Y258430D01*
X304680Y253350D01*
X299600Y255890D01*
X294520Y253350D01*
X632340Y56500D02*
X634880Y61580D01*
X632340Y66660D01*
X637420Y64120D01*
X642500Y66660D01*
X639960Y61580D01*
X642500Y56500D01*
X637420Y59040D01*
X632340Y56500D01*
X450730Y263510D02*
X453270Y268590D01*
X450730Y273670D01*
X455810Y271130D01*
X460890Y273670D01*
X458350Y268590D01*
X460890Y263510D01*
X455810Y266050D01*
X450730Y263510D01*
X294520Y626730D02*
X297060Y631810D01*
X294520Y636890D01*
X299600Y634350D01*
X304680Y636890D01*
X302140Y631810D01*
X304680Y626730D01*
X299600Y629270D01*
X294520Y626730D01*
X374530Y567040D02*
X377070Y572120D01*
X374530Y577200D01*
X379610Y574660D01*
X384690Y577200D01*
X382150Y572120D01*
X384690Y567040D01*
X379610Y569580D01*
X374530Y567040D01*
X820300Y674990D02*
X822840Y680070D01*
X820300Y685150D01*
X825380Y682610D01*
X830460Y685150D01*
X827920Y680070D01*
X830460Y674990D01*
X825380Y677530D01*
X820300Y674990D01*
X676790Y434960D02*
X679330D01*
X681870Y437500D01*
X684410Y434960D01*
X686950D01*
Y437500D01*
X684410Y440040D01*
X686950Y442580D01*
Y445120D01*
X684410D01*
X681870Y442580D01*
X679330Y445120D01*
X676790D01*
Y442580D01*
X679330Y440040D01*
X676790Y437500D01*
Y434960D01*
X371197Y164927D02*
X373737Y170007D01*
X371197Y175087D01*
X376277Y172547D01*
X381357Y175087D01*
X378817Y170007D01*
X381357Y164927D01*
X376277Y167467D01*
X371197Y164927D01*
X799980Y327010D02*
Y337170D01*
X810140D01*
Y327010D01*
X799980D01*
X802012Y329042D02*
Y335138D01*
X808108D01*
Y329042D01*
X802012D01*
X540900Y382890D02*
X543440D01*
X545980Y385430D01*
X548520Y382890D01*
X551060D01*
Y385430D01*
X548520Y387970D01*
X551060Y390510D01*
Y393050D01*
X548520D01*
X545980Y390510D01*
X543440Y393050D01*
X540900D01*
Y390510D01*
X543440Y387970D01*
X540900Y385430D01*
Y382890D01*
X477400Y367650D02*
X479940D01*
X482480Y370190D01*
X485020Y367650D01*
X487560D01*
Y370190D01*
X485020Y372730D01*
X487560Y375270D01*
Y377810D01*
X485020D01*
X482480Y375270D01*
X479940Y377810D01*
X477400D01*
Y375270D01*
X479940Y372730D01*
X477400Y370190D01*
Y367650D01*
X510420Y493380D02*
X512960D01*
X515500Y495920D01*
X518040Y493380D01*
X520580D01*
Y495920D01*
X518040Y498460D01*
X520580Y501000D01*
Y503540D01*
X518040D01*
X515500Y501000D01*
X512960Y503540D01*
X510420D01*
Y501000D01*
X512960Y498460D01*
X510420Y495920D01*
Y493380D01*
X477400Y484490D02*
X479940D01*
X482480Y487030D01*
X485020Y484490D01*
X487560D01*
Y487030D01*
X485020Y489570D01*
X487560Y492110D01*
Y494650D01*
X485020D01*
X482480Y492110D01*
X479940Y494650D01*
X477400D01*
Y492110D01*
X479940Y489570D01*
X477400Y487030D01*
Y484490D01*
X525660D02*
X528200D01*
X530740Y487030D01*
X533280Y484490D01*
X535820D01*
Y487030D01*
X533280Y489570D01*
X535820Y492110D01*
Y494650D01*
X533280D01*
X530740Y492110D01*
X528200Y494650D01*
X525660D01*
Y492110D01*
X528200Y489570D01*
X525660Y487030D01*
Y484490D01*
X717430Y327010D02*
Y337170D01*
X727590D01*
Y327010D01*
X717430D01*
X719462Y329042D02*
Y335138D01*
X725558D01*
Y329042D01*
X719462D01*
X612020Y267320D02*
X614560Y272400D01*
X612020Y277480D01*
X617100Y274940D01*
X622180Y277480D01*
X619640Y272400D01*
X622180Y267320D01*
X617100Y269860D01*
X612020Y267320D01*
X563760Y358760D02*
X566300D01*
X568840Y361300D01*
X571380Y358760D01*
X573920D01*
Y361300D01*
X571380Y363840D01*
X573920Y366380D01*
Y368920D01*
X571380D01*
X568840Y366380D01*
X566300Y368920D01*
X563760D01*
Y366380D01*
X566300Y363840D01*
X563760Y361300D01*
Y358760D01*
X942220Y620380D02*
X944760D01*
X947300Y622920D01*
X949840Y620380D01*
X952380D01*
Y622920D01*
X949840Y625460D01*
X952380Y628000D01*
Y630540D01*
X949840D01*
X947300Y628000D01*
X944760Y630540D01*
X942220D01*
Y628000D01*
X944760Y625460D01*
X942220Y622920D01*
Y620380D01*
X632340Y578470D02*
Y588630D01*
X642500D01*
Y578470D01*
X632340D01*
X634372Y580502D02*
Y586598D01*
X640468D01*
Y580502D01*
X634372D01*
X632340Y523860D02*
Y534020D01*
X642500D01*
Y523860D01*
X632340D01*
X634372Y525892D02*
Y531988D01*
X640468D01*
Y525892D01*
X634372D01*
X510420Y545450D02*
X512960D01*
X515500Y547990D01*
X518040Y545450D01*
X520580D01*
Y547990D01*
X518040Y550530D01*
X520580Y553070D01*
Y555610D01*
X518040D01*
X515500Y553070D01*
X512960Y555610D01*
X510420D01*
Y553070D01*
X512960Y550530D01*
X510420Y547990D01*
Y545450D01*
X658295Y436187D02*
X660835D01*
X663375Y438727D01*
X665915Y436187D01*
X668455D01*
Y438727D01*
X665915Y441267D01*
X668455Y443807D01*
Y446347D01*
X665915D01*
X663375Y443807D01*
X660835Y446347D01*
X658295D01*
Y443807D01*
X660835Y441267D01*
X658295Y438727D01*
Y436187D01*
X652263Y425955D02*
X654803D01*
X657343Y428495D01*
X659883Y425955D01*
X662423D01*
Y428495D01*
X659883Y431035D01*
X662423Y433575D01*
Y436115D01*
X659883D01*
X657343Y433575D01*
X654803Y436115D01*
X652263D01*
Y433575D01*
X654803Y431035D01*
X652263Y428495D01*
Y425955D01*
X665360Y420990D02*
X667900D01*
X670440Y423530D01*
X672980Y420990D01*
X675520D01*
Y423530D01*
X672980Y426070D01*
X675520Y428610D01*
Y431150D01*
X672980D01*
X670440Y428610D01*
X667900Y431150D01*
X665360D01*
Y428610D01*
X667900Y426070D01*
X665360Y423530D01*
Y420990D01*
X631070Y744382D02*
X633610Y749462D01*
X631070Y754542D01*
X636150Y752002D01*
X641230Y754542D01*
X638690Y749462D01*
X641230Y744382D01*
X636150Y746922D01*
X631070Y744382D01*
Y690230D02*
X633610Y695310D01*
X631070Y700390D01*
X636150Y697850D01*
X641230Y700390D01*
X638690Y695310D01*
X641230Y690230D01*
X636150Y692770D01*
X631070Y690230D01*
Y111110D02*
X633610Y116190D01*
X631070Y121270D01*
X636150Y118730D01*
X641230Y121270D01*
X638690Y116190D01*
X641230Y111110D01*
X636150Y113650D01*
X631070Y111110D01*
Y165720D02*
X633610Y170800D01*
X631070Y175880D01*
X636150Y173340D01*
X641230Y175880D01*
X638690Y170800D01*
X641230Y165720D01*
X636150Y168260D01*
X631070Y165720D01*
X338970Y744840D02*
X341510Y749920D01*
X338970Y755000D01*
X344050Y752460D01*
X349130Y755000D01*
X346590Y749920D01*
X349130Y744840D01*
X344050Y747380D01*
X338970Y744840D01*
X338918Y798434D02*
X341458Y803514D01*
X338918Y808594D01*
X343998Y806054D01*
X349078Y808594D01*
X346538Y803514D01*
X349078Y798434D01*
X343998Y800974D01*
X338918Y798434D01*
X345320Y57770D02*
X347860Y62850D01*
X345320Y67930D01*
X350400Y65390D01*
X355480Y67930D01*
X352940Y62850D01*
X355480Y57770D01*
X350400Y60310D01*
X345320Y57770D01*
Y112380D02*
X347860Y117460D01*
X345320Y122540D01*
X350400Y120000D01*
X355480Y122540D01*
X352940Y117460D01*
X355480Y112380D01*
X350400Y114920D01*
X345320Y112380D01*
X71000Y498460D02*
X73540Y503540D01*
X71000Y508620D01*
X76080Y506080D01*
X81160Y508620D01*
X78620Y503540D01*
X81160Y498460D01*
X76080Y501000D01*
X71000Y498460D01*
X199270Y393050D02*
X201810D01*
X204350Y395590D01*
X206890Y393050D01*
X209430D01*
Y395590D01*
X206890Y398130D01*
X209430Y400670D01*
Y403210D01*
X206890D01*
X204350Y400670D01*
X201810Y403210D01*
X199270D01*
Y400670D01*
X201810Y398130D01*
X199270Y395590D01*
Y393050D01*
X173870D02*
X176410D01*
X178950Y395590D01*
X181490Y393050D01*
X184030D01*
Y395590D01*
X181490Y398130D01*
X184030Y400670D01*
Y403210D01*
X181490D01*
X178950Y400670D01*
X176410Y403210D01*
X173870D01*
Y400670D01*
X176410Y398130D01*
X173870Y395590D01*
Y393050D01*
X600590Y690230D02*
X603130Y695310D01*
X600590Y700390D01*
X605670Y697850D01*
X610750Y700390D01*
X608210Y695310D01*
X610750Y690230D01*
X605670Y692770D01*
X600590Y690230D01*
Y799450D02*
X603130Y804530D01*
X600590Y809610D01*
X605670Y807070D01*
X610750Y809610D01*
X608210Y804530D01*
X610750Y799450D01*
X605670Y801990D01*
X600590Y799450D01*
X371990Y56500D02*
X374530Y61580D01*
X371990Y66660D01*
X377070Y64120D01*
X382150Y66660D01*
X379610Y61580D01*
X382150Y56500D01*
X377070Y59040D01*
X371990Y56500D01*
X659010Y414640D02*
X661550D01*
X664090Y417180D01*
X666630Y414640D01*
X669170D01*
Y417180D01*
X666630Y419720D01*
X669170Y422260D01*
Y424800D01*
X666630D01*
X664090Y422260D01*
X661550Y424800D01*
X659010D01*
Y422260D01*
X661550Y419720D01*
X659010Y417180D01*
Y414640D01*
D15*
X518548Y436230D02*
G03*
X518548Y436230I-3048J0D01*
G01*
X517278Y422260D02*
G03*
X517278Y422260I-3048J0D01*
G01*
X508428Y419720D02*
G03*
X508428Y419720I-3048J0D01*
G01*
X502673Y438135D02*
G03*
X502673Y438135I-3048J0D01*
G01*
D102*
X407550Y753730D02*
G03*
X407550Y753730I-5080J0D01*
G01*
X420250Y804530D02*
G03*
X420250Y804530I-5080J0D01*
G01*
X432950Y753730D02*
G03*
X432950Y753730I-5080J0D01*
G01*
X445650Y804530D02*
G03*
X445650Y804530I-5080J0D01*
G01*
X458350Y753730D02*
G03*
X458350Y753730I-5080J0D01*
G01*
X471050Y804530D02*
G03*
X471050Y804530I-5080J0D01*
G01*
X483750Y753730D02*
G03*
X483750Y753730I-5080J0D01*
G01*
X496450Y804530D02*
G03*
X496450Y804530I-5080J0D01*
G01*
X509150Y753730D02*
G03*
X509150Y753730I-5080J0D01*
G01*
X521850Y804530D02*
G03*
X521850Y804530I-5080J0D01*
G01*
X534550Y753730D02*
G03*
X534550Y753730I-5080J0D01*
G01*
X547250Y804530D02*
G03*
X547250Y804530I-5080J0D01*
G01*
X559950Y753730D02*
G03*
X559950Y753730I-5080J0D01*
G01*
X572650Y804530D02*
G03*
X572650Y804530I-5080J0D01*
G01*
X585350Y753730D02*
G03*
X585350Y753730I-5080J0D01*
G01*
X406280Y112380D02*
G03*
X406280Y112380I-5080J0D01*
G01*
X418980Y61580D02*
G03*
X418980Y61580I-5080J0D01*
G01*
X431680Y112380D02*
G03*
X431680Y112380I-5080J0D01*
G01*
X444380Y61580D02*
G03*
X444380Y61580I-5080J0D01*
G01*
X457080Y112380D02*
G03*
X457080Y112380I-5080J0D01*
G01*
X469780Y61580D02*
G03*
X469780Y61580I-5080J0D01*
G01*
X482480Y112380D02*
G03*
X482480Y112380I-5080J0D01*
G01*
X495180Y61580D02*
G03*
X495180Y61580I-5080J0D01*
G01*
X507880Y112380D02*
G03*
X507880Y112380I-5080J0D01*
G01*
X520580Y61580D02*
G03*
X520580Y61580I-5080J0D01*
G01*
X533280Y112380D02*
G03*
X533280Y112380I-5080J0D01*
G01*
X545980Y61580D02*
G03*
X545980Y61580I-5080J0D01*
G01*
X558680Y112380D02*
G03*
X558680Y112380I-5080J0D01*
G01*
X571380Y61580D02*
G03*
X571380Y61580I-5080J0D01*
G01*
X584080Y112380D02*
G03*
X584080Y112380I-5080J0D01*
G01*
X520580Y436230D02*
G03*
X520580Y436230I-5080J0D01*
G01*
X519310Y422260D02*
G03*
X519310Y422260I-5080J0D01*
G01*
X510460Y419720D02*
G03*
X510460Y419720I-5080J0D01*
G01*
X504705Y438135D02*
G03*
X504705Y438135I-5080J0D01*
G01*
M02*
