G04*
G04 #@! TF.GenerationSoftware,Altium Limited,Altium Designer,24.1.2 (44)*
G04*
G04 Layer_Color=8421504*
%FSLAX44Y44*%
%MOMM*%
G71*
G04*
G04 #@! TF.SameCoordinates,3D4D6B29-C5DB-4252-9A0B-4BD64E52DF01*
G04*
G04*
G04 #@! TF.FilePolarity,Positive*
G04*
G01*
G75*
%ADD17R,2.0000X4.0000*%
%ADD18R,4.0000X2.0000*%
%ADD19R,2.5000X1.7000*%
%ADD20R,1.6510X1.5240*%
%ADD21R,1.0000X0.9500*%
%ADD22R,1.4000X1.2000*%
%ADD23R,0.9500X1.0000*%
%ADD24R,0.8000X1.2000*%
%ADD25R,0.8500X0.8000*%
%ADD26R,3.3000X2.4000*%
%ADD27R,1.0000X2.4000*%
G04:AMPARAMS|DCode=28|XSize=1.49mm|YSize=0.28mm|CornerRadius=0.07mm|HoleSize=0mm|Usage=FLASHONLY|Rotation=90.000|XOffset=0mm|YOffset=0mm|HoleType=Round|Shape=RoundedRectangle|*
%AMROUNDEDRECTD28*
21,1,1.4900,0.1400,0,0,90.0*
21,1,1.3500,0.2800,0,0,90.0*
1,1,0.1400,0.0700,0.6750*
1,1,0.1400,0.0700,-0.6750*
1,1,0.1400,-0.0700,-0.6750*
1,1,0.1400,-0.0700,0.6750*
%
%ADD28ROUNDEDRECTD28*%
G04:AMPARAMS|DCode=29|XSize=1.49mm|YSize=0.28mm|CornerRadius=0.07mm|HoleSize=0mm|Usage=FLASHONLY|Rotation=0.000|XOffset=0mm|YOffset=0mm|HoleType=Round|Shape=RoundedRectangle|*
%AMROUNDEDRECTD29*
21,1,1.4900,0.1400,0,0,0.0*
21,1,1.3500,0.2800,0,0,0.0*
1,1,0.1400,0.6750,-0.0700*
1,1,0.1400,-0.6750,-0.0700*
1,1,0.1400,-0.6750,0.0700*
1,1,0.1400,0.6750,0.0700*
%
%ADD29ROUNDEDRECTD29*%
%ADD30R,0.2600X0.7900*%
%ADD31R,0.7900X0.2600*%
%ADD32R,4.2000X5.6000*%
%ADD33R,1.7000X2.5000*%
%ADD34R,9.1000X10.1000*%
%ADD35R,3.2500X1.1000*%
D17*
X137040Y448990D02*
D03*
Y519990D02*
D03*
D18*
X154700Y259700D02*
D03*
X83700D02*
D03*
D19*
X304680Y667370D02*
D03*
X344680D02*
D03*
X305000Y721980D02*
D03*
X345000D02*
D03*
X305000Y776590D02*
D03*
X345000D02*
D03*
X305000Y829930D02*
D03*
X345000D02*
D03*
X310400Y34910D02*
D03*
X350400D02*
D03*
X311350Y89520D02*
D03*
X351350D02*
D03*
X310080Y144130D02*
D03*
X350080D02*
D03*
X310080Y198740D02*
D03*
X350080D02*
D03*
X673930Y829930D02*
D03*
X633930D02*
D03*
X675200Y776590D02*
D03*
X635200D02*
D03*
X675200Y721980D02*
D03*
X635200D02*
D03*
X675200Y667370D02*
D03*
X635200D02*
D03*
X675200Y34910D02*
D03*
X635200D02*
D03*
X675200Y88250D02*
D03*
X635200D02*
D03*
X675520Y144130D02*
D03*
X635520D02*
D03*
X675200Y197470D02*
D03*
X635200D02*
D03*
D20*
X637420Y463662D02*
D03*
Y499730D02*
D03*
X43060Y502778D02*
D03*
Y466710D02*
D03*
Y581772D02*
D03*
Y617840D02*
D03*
D21*
X650120Y393050D02*
D03*
X635120D02*
D03*
X66040Y634350D02*
D03*
X81040D02*
D03*
X635120Y375270D02*
D03*
X650120D02*
D03*
X789940Y349870D02*
D03*
X804940D02*
D03*
X718820D02*
D03*
X733820D02*
D03*
X482480Y390510D02*
D03*
X497480D02*
D03*
X515620D02*
D03*
X530620D02*
D03*
X725050Y511160D02*
D03*
X710050D02*
D03*
X584080Y375270D02*
D03*
X569080D02*
D03*
X497720Y469250D02*
D03*
X482720D02*
D03*
X515740D02*
D03*
X530740D02*
D03*
X67310Y448930D02*
D03*
X82310D02*
D03*
D22*
X865986Y469866D02*
D03*
Y488866D02*
D03*
D23*
X843160Y487030D02*
D03*
Y472030D02*
D03*
X877450Y582400D02*
D03*
Y597400D02*
D03*
X947300Y598670D02*
D03*
Y583670D02*
D03*
X678060Y395710D02*
D03*
Y410710D02*
D03*
X548520Y437740D02*
D03*
Y452740D02*
D03*
Y403330D02*
D03*
Y418330D02*
D03*
X660280Y475720D02*
D03*
Y490720D02*
D03*
X766960Y555490D02*
D03*
Y540490D02*
D03*
X801250D02*
D03*
Y555490D02*
D03*
D24*
X913010Y556170D02*
D03*
Y626170D02*
D03*
D25*
X217050Y446880D02*
D03*
Y429880D02*
D03*
X147200Y607290D02*
D03*
Y590290D02*
D03*
X121800Y607290D02*
D03*
Y590290D02*
D03*
X284360Y607290D02*
D03*
Y590290D02*
D03*
X258960Y607290D02*
D03*
Y590290D02*
D03*
D26*
X203080Y569790D02*
D03*
D27*
X180080Y627790D02*
D03*
X203080D02*
D03*
X226080D02*
D03*
D28*
X725650Y487850D02*
D03*
X730650D02*
D03*
X735650D02*
D03*
X740650D02*
D03*
X745650D02*
D03*
X750650D02*
D03*
X755650D02*
D03*
X760650D02*
D03*
X765650D02*
D03*
X770650D02*
D03*
X775650D02*
D03*
X780650D02*
D03*
X785650D02*
D03*
X790650D02*
D03*
X795650D02*
D03*
X800650D02*
D03*
Y374450D02*
D03*
X795650D02*
D03*
X790650D02*
D03*
X785650D02*
D03*
X780650D02*
D03*
X775650D02*
D03*
X770650D02*
D03*
X765650D02*
D03*
X760650D02*
D03*
X755650D02*
D03*
X750650D02*
D03*
X745650D02*
D03*
X740650D02*
D03*
X735650D02*
D03*
X730650D02*
D03*
X725650D02*
D03*
D29*
X819850Y468650D02*
D03*
Y463650D02*
D03*
Y458650D02*
D03*
Y453650D02*
D03*
Y448650D02*
D03*
Y443650D02*
D03*
Y438650D02*
D03*
Y433650D02*
D03*
Y428650D02*
D03*
Y423650D02*
D03*
Y418650D02*
D03*
Y413650D02*
D03*
Y408650D02*
D03*
Y403650D02*
D03*
Y398650D02*
D03*
Y393650D02*
D03*
X706450D02*
D03*
Y398650D02*
D03*
Y403650D02*
D03*
Y408650D02*
D03*
Y413650D02*
D03*
Y418650D02*
D03*
Y423650D02*
D03*
Y428650D02*
D03*
Y433650D02*
D03*
Y438650D02*
D03*
Y443650D02*
D03*
Y448650D02*
D03*
Y453650D02*
D03*
Y458650D02*
D03*
Y463650D02*
D03*
Y468650D02*
D03*
D30*
X495380Y449580D02*
D03*
X500380D02*
D03*
X505380D02*
D03*
X510380D02*
D03*
X515380D02*
D03*
X520380D02*
D03*
Y410180D02*
D03*
X515380D02*
D03*
X510380D02*
D03*
X505380D02*
D03*
X500380D02*
D03*
X495380D02*
D03*
D31*
X527580Y442380D02*
D03*
Y437380D02*
D03*
Y432380D02*
D03*
Y427380D02*
D03*
Y422380D02*
D03*
Y417380D02*
D03*
X488180D02*
D03*
Y422380D02*
D03*
Y427380D02*
D03*
Y432380D02*
D03*
Y437380D02*
D03*
Y442380D02*
D03*
D32*
X354680Y466710D02*
D03*
X254680D02*
D03*
D33*
X224670Y322250D02*
D03*
Y362250D02*
D03*
X223400Y259380D02*
D03*
Y219380D02*
D03*
D34*
X53510Y363840D02*
D03*
D35*
X150510Y397840D02*
D03*
Y380840D02*
D03*
Y363840D02*
D03*
Y346840D02*
D03*
Y329840D02*
D03*
M02*
