G04*
G04 #@! TF.GenerationSoftware,Altium Limited,Altium Designer,24.1.2 (44)*
G04*
G04 Layer_Color=16711935*
%FSLAX44Y44*%
%MOMM*%
G71*
G04*
G04 #@! TF.SameCoordinates,3D4D6B29-C5DB-4252-9A0B-4BD64E52DF01*
G04*
G04*
G04 #@! TF.FilePolarity,Negative*
G04*
G01*
G75*
%ADD40R,1.1524X1.1024*%
%ADD55C,1.7500*%
%ADD56R,1.7500X1.7500*%
%ADD57C,2.9440*%
%ADD58C,1.6740*%
%ADD59C,1.6700*%
%ADD60R,1.6700X1.6700*%
%ADD61R,1.7700X1.7700*%
%ADD62C,1.7700*%
%ADD63O,2.3500X4.6500*%
%ADD64O,4.6500X2.3500*%
G04:AMPARAMS|DCode=65|XSize=2.35mm|YSize=4.65mm|CornerRadius=0.625mm|HoleSize=0mm|Usage=FLASHONLY|Rotation=0.000|XOffset=0mm|YOffset=0mm|HoleType=Round|Shape=RoundedRectangle|*
%AMROUNDEDRECTD65*
21,1,2.3500,3.4000,0,0,0.0*
21,1,1.1000,4.6500,0,0,0.0*
1,1,1.2500,0.5500,-1.7000*
1,1,1.2500,-0.5500,-1.7000*
1,1,1.2500,-0.5500,1.7000*
1,1,1.2500,0.5500,1.7000*
%
%ADD65ROUNDEDRECTD65*%
%ADD66C,2.0550*%
%ADD67R,1.7500X1.7500*%
%ADD68C,1.6500*%
%ADD69C,0.6500*%
%ADD70C,0.4500*%
%ADD71C,0.9500*%
D40*
X434100Y131430D02*
D03*
X419100D02*
D03*
X477280Y832470D02*
D03*
X462280D02*
D03*
X508000Y41260D02*
D03*
X523000D02*
D03*
X562490Y734680D02*
D03*
X547490D02*
D03*
D55*
X949840Y751190D02*
D03*
X948570Y459090D02*
D03*
Y433690D02*
D03*
Y408290D02*
D03*
X796170Y631810D02*
D03*
Y606410D02*
D03*
Y581010D02*
D03*
X770770Y606410D02*
D03*
Y581010D02*
D03*
X900310Y18130D02*
D03*
X899040Y843900D02*
D03*
D56*
X949840Y725790D02*
D03*
X948570Y382890D02*
D03*
X770770Y631810D02*
D03*
D57*
X28750Y703500D02*
D03*
Y754300D02*
D03*
X218320Y831200D02*
D03*
X167520D02*
D03*
X223400Y30719D02*
D03*
X172600D02*
D03*
X759340D02*
D03*
X810140D02*
D03*
Y831200D02*
D03*
X759340D02*
D03*
D58*
X979050Y832470D02*
D03*
Y33640D02*
D03*
X34170D02*
D03*
Y832470D02*
D03*
D59*
X992700Y292066D02*
D03*
Y266665D02*
D03*
Y241266D02*
D03*
Y215865D02*
D03*
Y190466D02*
D03*
Y165065D02*
D03*
Y139665D02*
D03*
D60*
Y114265D02*
D03*
D61*
X402470Y753730D02*
D03*
X579000Y112380D02*
D03*
D62*
X415170Y804530D02*
D03*
X427870Y753730D02*
D03*
X440570Y804530D02*
D03*
X453270Y753730D02*
D03*
X465970Y804530D02*
D03*
X478670Y753730D02*
D03*
X491370Y804530D02*
D03*
X504070Y753730D02*
D03*
X516770Y804530D02*
D03*
X529470Y753730D02*
D03*
X542170Y804530D02*
D03*
X554870Y753730D02*
D03*
X567570Y804530D02*
D03*
X580270Y753730D02*
D03*
X401200Y112380D02*
D03*
X413900Y61580D02*
D03*
X426600Y112380D02*
D03*
X439300Y61580D02*
D03*
X452000Y112380D02*
D03*
X464700Y61580D02*
D03*
X477400Y112380D02*
D03*
X490100Y61580D02*
D03*
X502800Y112380D02*
D03*
X515500Y61580D02*
D03*
X528200Y112380D02*
D03*
X540900Y61580D02*
D03*
X553600Y112380D02*
D03*
X566300Y61580D02*
D03*
D63*
X82430Y151750D02*
D03*
D64*
X114930Y104250D02*
D03*
D65*
X142430Y151750D02*
D03*
D66*
X634350Y337170D02*
D03*
X585350D02*
D03*
D67*
X874910Y18130D02*
D03*
X873640Y843900D02*
D03*
D68*
X225940Y658480D02*
D03*
X109100Y556880D02*
D03*
X699650Y803260D02*
D03*
X271660Y172070D02*
D03*
X345320Y695310D02*
D03*
X299600Y258430D02*
D03*
X637420Y61580D02*
D03*
X455810Y268590D02*
D03*
X299600Y631810D02*
D03*
X379610Y572120D02*
D03*
X825380Y680070D02*
D03*
X376277Y170007D02*
D03*
X617100Y272400D02*
D03*
X636150Y749462D02*
D03*
Y695310D02*
D03*
Y116190D02*
D03*
Y170800D02*
D03*
X344050Y749920D02*
D03*
X343998Y803514D02*
D03*
X350400Y62850D02*
D03*
Y117460D02*
D03*
X76080Y503540D02*
D03*
X605670Y695310D02*
D03*
Y804530D02*
D03*
X377070Y61580D02*
D03*
D69*
X792360Y450200D02*
D03*
X770770Y394320D02*
D03*
X791090Y532750D02*
D03*
X864245Y378315D02*
D03*
X855860Y395590D02*
D03*
X853320Y408290D02*
D03*
Y417180D02*
D03*
Y441310D02*
D03*
X535820Y680070D02*
D03*
X462160D02*
D03*
X848240Y448930D02*
D03*
X797440Y502270D02*
D03*
X853320Y431150D02*
D03*
X840620Y451470D02*
D03*
X782200Y408290D02*
D03*
X740290Y404480D02*
D03*
X732670Y429880D02*
D03*
X747910Y461630D02*
D03*
X725050Y526400D02*
D03*
X863480Y574660D02*
D03*
X681870Y440040D02*
D03*
X545980Y387970D02*
D03*
X482480Y372730D02*
D03*
X515500Y498460D02*
D03*
X482480Y489570D02*
D03*
X530740D02*
D03*
X568840Y363840D02*
D03*
X947300Y625460D02*
D03*
X515500Y550530D02*
D03*
X663375Y441267D02*
D03*
X657343Y431035D02*
D03*
X670440Y426070D02*
D03*
X204350Y398130D02*
D03*
X178950D02*
D03*
X664090Y419720D02*
D03*
D70*
X515500Y436230D02*
D03*
X514230Y422260D02*
D03*
X505380Y419720D02*
D03*
X499625Y438135D02*
D03*
D71*
X891420Y478140D02*
D03*
X805060Y332090D02*
D03*
X722510D02*
D03*
X637420Y583550D02*
D03*
Y528940D02*
D03*
M02*
